<svg xmlns="http://www.w3.org/2000/svg" width="10.67" height="10.33" viewBox="0 0 32 31"><g><g><g><path fill="#39b54a" d="M30.55 14.457L17.44 1.345c-.498-.497-1.108-.746-1.834-.746-.738 0-1.343.249-1.813.746L.681 14.457a2.503 2.503 0 0 0-.765 1.833c0 .698.255 1.303.765 1.813l1.51 1.51c.484.51 1.088.766 1.813.766.725 0 1.33-.256 1.813-.766l5.922-5.901v14.18c0 .698.252 1.265.755 1.702.504.436 1.112.654 1.823.654h2.578c.712 0 1.319-.218 1.823-.654.504-.437.756-1.004.756-1.702v-14.18l5.92 5.901c.484.51 1.09.766 1.814.766.712 0 1.323-.256 1.833-.766l1.51-1.51c.497-.524.746-1.128.746-1.813 0-.698-.25-1.309-.746-1.833z"/></g></g></g></svg>