<svg xmlns="http://www.w3.org/2000/svg" width="41" height="41" viewBox="0 0 41 41"><g><g><g><path fill="#2aa4ef" d="M.124 8.432C.124 4.326 4.23.219 8.337.219h24.355c4.106 0 8.213 4.107 8.213 8.213v24.355c0 4.107-4.107 8.213-8.213 8.213H8.337C4.23 41 .124 36.894.124 32.787z"/></g><g><path fill="#fff" d="M29.989 12.562a8.116 8.116 0 0 1-2.615 1.023 4.058 4.058 0 0 0-3.003-1.332c-2.27 0-4.113 1.89-4.113 4.22 0 .33.036.651.106.96-3.42-.176-6.45-1.854-8.481-4.41a4.292 4.292 0 0 0-.557 2.124c0 1.463.726 2.754 1.83 3.511a4.03 4.03 0 0 1-1.864-.526v.052c0 2.045 1.418 3.75 3.302 4.137-.345.099-.71.148-1.084.148-.265 0-.524-.025-.775-.075.524 1.676 2.042 2.896 3.843 2.93a8.126 8.126 0 0 1-6.091 1.748 11.461 11.461 0 0 0 6.307 1.894c7.569 0 11.707-6.428 11.707-12.004 0-.183-.004-.367-.01-.547a8.45 8.45 0 0 0 2.051-2.183 8.07 8.07 0 0 1-2.363.664 4.217 4.217 0 0 0 1.81-2.334z"/></g></g></g></svg>