<svg xmlns="http://www.w3.org/2000/svg" width="27" height="25.5" viewBox="0 0 54 51"><g><g><g><g><g><path fill="#2693ff" d="M41.018 8.062a.567.567 0 0 0 .188-.005 1.918 1.918 0 0 1 1.88 1.916.86.86 0 0 0 1.718 0 3.64 3.64 0 0 0-2.858-3.551v-.825a.859.859 0 0 0-1.717 0v.864a3.634 3.634 0 0 0-2.665 3.986 3.634 3.634 0 0 0 3.604 3.161 1.918 1.918 0 1 1-1.918 1.92.859.859 0 1 0-1.717 0 3.64 3.64 0 0 0 2.696 3.511v.941a.86.86 0 0 0 1.717 0v-.902a3.635 3.635 0 0 0-.778-7.186 1.918 1.918 0 0 1-.15-3.829z"/></g><g><path fill="#2693ff" d="M41.217 23.229c-5.784 0-10.474-4.689-10.473-10.474 0-5.785 4.689-10.474 10.474-10.474 5.784 0 10.473 4.69 10.473 10.474-.006 5.782-4.691 10.468-10.474 10.474zm-2.383 21.026a5.028 5.028 0 0 1-5.018 5.028H33.8a5.065 5.065 0 0 1-5.056-5.04v-3.802a.799.799 0 0 0-.232-.588.798.798 0 0 0-.588-.23H9.08l.197-29.303h19.983c-.152.786-.23 1.584-.235 2.385a12.106 12.106 0 0 0 1.036 4.913h-8.11a.859.859 0 1 0 0 1.718h9.042a12.11 12.11 0 0 0 7.84 5.378zM7.169 49.283a5.05 5.05 0 0 1-5.044-5.028V41.34h24.902v2.902a6.739 6.739 0 0 0 1.988 4.774c.09.09.202.159.296.267zM41.217.54c-5.282 0-9.79 3.447-11.479 8.062H8.425c-.472 0-.855.426-.858.898l-.203 30.122H1.29c-.474 0-.882.344-.882.82v3.82a6.746 6.746 0 0 0 6.44 6.72V51H33.36v-.025c.214.008.303.025.439.025h.018a6.745 6.745 0 0 0 6.734-6.745V24.928c.215.012.442.018.664.018 6.723 0 12.193-5.481 12.193-12.203C53.408 6.02 47.94.54 41.217.54z"/></g><g><path fill="#2693ff" d="M16.44 26.938c-.569 0-1.03-.423-1.03-.944 0-.52.461-.943 1.03-.943.568 0 1.03.423 1.03.943s-.462.944-1.03.944zm0-3.605c-1.516 0-2.748 1.194-2.748 2.661 0 1.468 1.232 2.662 2.748 2.662 1.516 0 2.75-1.194 2.75-2.662 0-1.467-1.234-2.661-2.75-2.661z"/></g><g><path fill="#2693ff" d="M21.093 25.991c0 .474.384.858.86.858H33.4a.858.858 0 1 0 0-1.717H21.952a.859.859 0 0 0-.86.86z"/></g><g><path fill="#2693ff" d="M16.44 19.474c-.569 0-1.03-.423-1.03-.944 0-.52.461-.944 1.03-.944.568 0 1.03.424 1.03.944s-.462.945-1.03.945zm0-3.605c-1.516 0-2.748 1.194-2.748 2.661 0 1.468 1.232 2.662 2.748 2.662 1.516 0 2.75-1.194 2.75-2.662 0-1.467-1.234-2.66-2.75-2.66z"/></g><g><path fill="#2693ff" d="M16.44 34.402c-.569 0-1.03-.423-1.03-.944 0-.52.461-.944 1.03-.944.568 0 1.03.424 1.03.944s-.462.944-1.03.944zm0-3.605c-1.516 0-2.748 1.194-2.748 2.661 0 1.468 1.232 2.661 2.748 2.661 1.516 0 2.75-1.193 2.75-2.661 0-1.467-1.234-2.661-2.75-2.661z"/></g><g><path fill="#2693ff" d="M33.4 32.646H21.952a.858.858 0 1 0 0 1.717H33.4a.858.858 0 1 0 0-1.717z"/></g></g></g></g></g></svg>