<svg xmlns="http://www.w3.org/2000/svg" width="36" height="18" viewBox="0 0 36 18"><g><g><g><g><path fill="#999" d="M3.027 5.275v12.02H.914V5.275zM3.5 1.5c0 .206-.042.397-.125.575a1.624 1.624 0 0 1-.812.802c-.183.079-.376.118-.582.118-.206 0-.397-.039-.576-.118a1.572 1.572 0 0 1-.8-.802 1.482 1.482 0 0 1 0-1.162C.686.728.793.566.932.427a1.57 1.57 0 0 1 .474-.326 1.448 1.448 0 0 1 1.158 0c.182.079.342.188.48.326.14.139.249.301.332.487.083.186.125.38.125.587z"/></g><g><path fill="#999" d="M20.09 11.605c-.284.827-.688 1.527-1.21 2.101a5.196 5.196 0 0 1-1.899 1.317c-.743.304-1.574.457-2.492.457-.909 0-1.736-.153-2.48-.457a5.251 5.251 0 0 1-1.904-1.317c-.527-.574-.932-1.274-1.217-2.101-.284-.826-.427-1.762-.427-2.806s.143-1.982.427-2.813c.285-.83.69-1.532 1.217-2.106a5.305 5.305 0 0 1 1.904-1.323c.744-.309 1.571-.463 2.48-.463.918 0 1.749.154 2.492.463.744.308 1.377.75 1.899 1.323.522.574.926 1.276 1.21 2.106.285.83.428 1.769.428 2.813 0 1.044-.143 1.98-.428 2.806zm2.184-6.313a8.104 8.104 0 0 0-1.71-2.753 7.672 7.672 0 0 0-2.65-1.797c-1.034-.428-2.175-.64-3.425-.64s-2.389.212-3.417.64a7.671 7.671 0 0 0-2.646 1.797 8.097 8.097 0 0 0-1.71 2.753c-.402 1.065-.604 2.233-.604 3.507s.202 2.442.605 3.506a8.013 8.013 0 0 0 1.709 2.747 7.627 7.627 0 0 0 2.646 1.786c1.028.424 2.167.635 3.417.635s2.39-.211 3.424-.635a7.628 7.628 0 0 0 2.652-1.786c.736-.767 1.305-1.682 1.709-2.747.403-1.064.605-2.232.605-3.506 0-1.274-.202-2.442-.605-3.507z"/></g><g><path fill="#999" d="M34.733 2.949a.934.934 0 0 1-.225.267.504.504 0 0 1-.309.089c-.134 0-.29-.068-.469-.202a7.159 7.159 0 0 0-.676-.445 5.55 5.55 0 0 0-.985-.445c-.384-.134-.848-.202-1.394-.202-.514 0-.969.07-1.365.208a2.89 2.89 0 0 0-.99.563 2.323 2.323 0 0 0-.6.837c-.134.32-.201.667-.201 1.038 0 .475.116.869.35 1.18.233.314.542.581.925.802.384.222.819.414 1.305.576.487.162.985.33 1.495.504.511.174 1.009.37 1.496.587.487.218.921.493 1.305.825.384.332.692.74.926 1.222.233.483.35 1.076.35 1.78 0 .744-.127 1.442-.38 2.095a4.844 4.844 0 0 1-1.109 1.703 5.207 5.207 0 0 1-1.792 1.14c-.708.276-1.513.414-2.415.414-1.1 0-2.102-.2-3.008-.599a7.047 7.047 0 0 1-2.32-1.62l.664-1.092a.876.876 0 0 1 .232-.219c.09-.06.19-.089.302-.089.166 0 .356.09.57.267.214.178.48.374.8.587.321.214.709.41 1.164.588.455.177 1.01.267 1.667.267.546 0 1.033-.076 1.46-.226a3.1 3.1 0 0 0 1.086-.635c.296-.273.523-.599.682-.979a3.27 3.27 0 0 0 .237-1.269c0-.515-.117-.936-.35-1.264a2.898 2.898 0 0 0-.92-.825 6.5 6.5 0 0 0-1.3-.564l-1.494-.474c-.511-.162-1.009-.35-1.495-.564a4.85 4.85 0 0 1-1.3-.83 3.836 3.836 0 0 1-.92-1.276c-.233-.511-.35-1.14-.35-1.893a4.512 4.512 0 0 1 1.365-3.239c.443-.436.99-.784 1.643-1.045.654-.261 1.403-.39 2.25-.39.949 0 1.815.149 2.598.45.783.3 1.467.735 2.053 1.305z"/></g></g></g></g></svg>