<svg xmlns="http://www.w3.org/2000/svg" width="39" height="41" viewBox="0 0 39 41"><g><g><g><path fill="#eceff1" d="M33.47 0H13.822a4.697 4.697 0 0 0-4.698 4.698v23.063a4.697 4.697 0 0 0 4.698 4.697H33.47a4.697 4.697 0 0 0 4.697-4.697V4.698A4.697 4.697 0 0 0 33.469 0z"/></g><g><g><path fill="#90a4ae" d="M30.052 23.063H17.24a1.282 1.282 0 0 1 0-2.563h12.812a1.282 1.282 0 0 1 0 2.563z"/></g><g><path fill="#90a4ae" d="M30.052 17.938H17.24a1.282 1.282 0 0 1 0-2.563h12.812a1.282 1.282 0 0 1 0 2.563z"/></g><g><path fill="#90a4ae" d="M30.052 12.813H17.24a1.282 1.282 0 0 1 0-2.563h12.812a1.282 1.282 0 0 1 0 2.563z"/></g></g><g><path fill="#2196f3" d="M13.823 35.021c-4.004 0-7.26-3.258-7.26-7.26V4.698c0-.147.034-.284.042-.427H5.281A4.701 4.701 0 0 0 .583 8.97v27.333A4.702 4.702 0 0 0 5.281 41h20.5a4.702 4.702 0 0 0 4.698-4.698v-1.28z"/></g></g></g></svg>