<svg xmlns="http://www.w3.org/2000/svg" width="41" height="41" viewBox="0 0 41 41"><defs><linearGradient id="ovhfa" x1="20.42" x2="20.42" y1="-19.53" y2="150.99" gradientUnits="userSpaceOnUse"><stop offset="0" stop-color="#c5c5c5"/><stop offset="1" stop-color="#a7a7a7"/></linearGradient><linearGradient id="ovhfb" x1="12.25" x2="12.25" y1="9.71" y2="20.29" gradientUnits="userSpaceOnUse"><stop offset="0" stop-color="#2a2a2a"/><stop offset="1" stop-color="#545454"/></linearGradient><linearGradient id="ovhfc" x1="28.6" x2="28.6" y1="9.71" y2="20.29" gradientUnits="userSpaceOnUse"><stop offset="0" stop-color="#2a2a2a"/><stop offset="1" stop-color="#545454"/></linearGradient><linearGradient id="ovhfd" x1="20.42" x2="20.42" y1="15.15" y2="39.92" gradientUnits="userSpaceOnUse"><stop offset="0" stop-color="#151515"/><stop offset="1" stop-color="#2e2e2e"/></linearGradient></defs><g><g><g><path fill="url(#ovhfa)" d="M40.53 20.707C40.53 9.605 31.528.601 20.423.601 9.315.601.313 9.605.313 20.707c0 11.109 9.002 20.113 20.11 20.113 11.105 0 20.107-9.004 20.107-20.113z"/></g><g><g><g><path fill="url(#ovhfb)" d="M14.752 15.724a2.508 2.508 0 0 0-2.505-2.51 2.51 2.51 0 0 0 0 5.018 2.508 2.508 0 0 0 2.505-2.508z"/></g><g><path fill="url(#ovhfc)" d="M31.103 15.724a2.507 2.507 0 1 0-5.013 0 2.507 2.507 0 0 0 5.013 0z"/></g></g></g><g><g><g><path fill="url(#ovhfd)" d="M27.35 27.927H13.496a.75.75 0 0 1-.753-.753.75.75 0 0 1 .753-.75h13.856a.751.751 0 0 1 0 1.503z"/></g></g></g></g></g></svg>