<svg xmlns="http://www.w3.org/2000/svg" width="52" height="37" viewBox="0 0 52 37"><g><g><path fill="#ed1c24" d="M20.645 11.31v13.443l12.91-6.676zM25.5 1.962c5.782 0 11.692.182 17.564.54 2.986.181 5.228 2.44 5.578 5.62.71 6.454.71 13.27 0 20.259-.32 3.142-2.566 5.398-5.589 5.615-4.995.357-10.445.538-16.199.538-5.763 0-12.042-.183-18.658-.539-2.996-.165-5.234-2.421-5.57-5.617a96.492 96.492 0 0 1 0-20.26c.336-3.17 2.577-5.428 5.577-5.616 5.696-.358 11.516-.54 17.297-.54zm1.356 34.531c5.8 0 11.297-.183 16.338-.544 4.007-.287 6.979-3.249 7.398-7.37.724-7.126.722-14.08-.001-20.671-.46-4.163-3.435-7.121-7.407-7.362-11.826-.722-23.63-.722-35.102 0C4.156.793 1.112 3.822.679 7.912a98.345 98.345 0 0 0 0 20.67c.434 4.124 3.482 7.154 7.412 7.369 6.652.359 12.966.542 18.765.542z"/></g></g></svg>