<svg xmlns="http://www.w3.org/2000/svg" width="27" height="26" viewBox="0 0 27 26"><g><g></g><g><g><path fill="#7e7e7e" d="M25.456 7.058H24.33c-.206 0-.38.15-.411.353a3.88 3.88 0 0 1-.709 1.71.415.415 0 0 0 .041.54l.797.797-.166.166-.004.004-.156.156-.797-.797a.414.414 0 0 0-.54-.04 3.878 3.878 0 0 1-1.71.708.414.414 0 0 0-.353.41v1.127h-.464v-1.126c0-.205-.15-.38-.353-.41a3.872 3.872 0 0 1-1.71-.709.416.416 0 0 0-.54.04l-.797.798-.326-.327.797-.797a.415.415 0 0 0 .04-.54 3.88 3.88 0 0 1-.709-1.71.414.414 0 0 0-.41-.353h-1.127v-.463h1.126c.205 0 .38-.15.411-.353a3.863 3.863 0 0 1 .709-1.71.416.416 0 0 0-.041-.54l-.797-.797.327-.327.797.797a.415.415 0 0 0 .54.041 3.877 3.877 0 0 1 1.709-.709.415.415 0 0 0 .354-.411V1.459h.462v1.127c0 .205.151.38.354.41a3.877 3.877 0 0 1 1.71.71.415.415 0 0 0 .54-.04l.796-.798.327.326-.797.797a.418.418 0 0 0-.041.541 3.86 3.86 0 0 1 .709 1.709.416.416 0 0 0 .411.353h1.126zM1.118 21.874V7.081h12.774v.39c0 .23.186.417.415.417h1.2c.116.505.316.987.59 1.428l-.847.848a.414.414 0 0 0-.001.587h.001l.914.915a.415.415 0 0 0 .587 0h.001l.848-.848c.44.274.922.474 1.428.592v1.198c0 .23.186.416.415.416h1.293a.415.415 0 0 0 .415-.416V11.41a4.736 4.736 0 0 0 1.428-.592l.848.848c.087.086.208.13.33.118v10.091zm24.754-16.11h-1.199a4.749 4.749 0 0 0-.592-1.427l.848-.849a.415.415 0 0 0 0-.587l-.914-.914a.415.415 0 0 0-.587 0h-.001l-.848.848a4.743 4.743 0 0 0-1.428-.592v-1.2a.415.415 0 0 0-.415-.415h-1.293a.416.416 0 0 0-.416.416v1.199a4.694 4.694 0 0 0-1.427.592l-.848-.848a.416.416 0 0 0-.588 0l-.915.914a.416.416 0 0 0 0 .588l.849.849c-.275.44-.475.922-.592 1.427h-1.2a.415.415 0 0 0-.414.416v.07H.702a.416.416 0 0 0-.415.414v15.624c0 .23.186.415.416.415h23.47a.415.415 0 0 0 .415-.415V11.093l.341-.342a.414.414 0 0 0 0-.587l-.848-.848a4.71 4.71 0 0 0 .592-1.428h1.2a.416.416 0 0 0 .414-.416V6.18a.416.416 0 0 0-.415-.416z"/></g><g><path fill="#7e7e7e" d="M20.09 8.503a1.677 1.677 0 1 1 0-3.354 1.677 1.677 0 0 1 0 3.354zm0-4.185a2.508 2.508 0 1 0 0 5.016 2.508 2.508 0 0 0 0-5.016z"/></g><g><path fill="#7e7e7e" d="M15.516 14.126l-5.714-3.588a.417.417 0 0 0-.637.352v7.176a.416.416 0 0 0 .637.352l5.713-3.587a.416.416 0 0 0 0-.704z"/></g><g><path fill="#7e7e7e" d="M9.996 17.314v-5.672l4.517 2.835z"/></g><g><path fill="#7e7e7e" d="M24.173 24.117H6.874a1.263 1.263 0 0 0-1.208-.908h-2.39a1.263 1.263 0 0 0-1.208.908H.703a.416.416 0 1 0 0 .831h1.365c.157.537.65.906 1.208.908h2.389a1.264 1.264 0 0 0 1.209-.908h17.298a.415.415 0 1 0 0-.831z"/></g><g><path fill="#7e7e7e" d="M2.84 24.475c0-.218.218-.435.436-.435h2.39c.217 0 .435.217.435.435v.115a.468.468 0 0 1-.435.435h-2.39a.468.468 0 0 1-.435-.435z"/></g></g></g></svg>