<svg xmlns="http://www.w3.org/2000/svg" width="26" height="26" viewBox="0 0 26 26"><g><g><path fill="#fff" d="M18.2 16.974c0 .608-.494.648-1.101.648H8.19c-.608 0-1.1-.04-1.1-.648v-.105c0-.437.257-.811.626-.989l.35-3.014a4.58 4.58 0 0 1 3.636-4.482v-1.17a.942.942 0 0 1 1.884 0v1.17a4.582 4.582 0 0 1 3.638 4.483l.35 3.014c.368.178.624.551.624.988zm-5.555 3.292A1.645 1.645 0 0 1 11 18.622h3.287a1.643 1.643 0 0 1-1.643 1.644zm0-19.637C5.662.629 0 6.29 0 13.273c0 6.983 5.661 12.645 12.644 12.645 6.983 0 12.644-5.662 12.644-12.645S19.628.629 12.645.629z"/></g></g></svg>