<svg xmlns="http://www.w3.org/2000/svg" width="41" height="41" viewBox="0 0 41 41"><defs><linearGradient id="nj2pa" x1="20.53" x2="20.53" y1="-15.94" y2="93.79" gradientUnits="userSpaceOnUse"><stop offset="0" stop-color="#c5c5c5"/><stop offset="1" stop-color="#a7a7a7"/></linearGradient><linearGradient id="nj2pb" x1="12.36" x2="12.36" y1="48.73" y2="4.05" gradientUnits="userSpaceOnUse"><stop offset="0" stop-color="#2a2a2a"/><stop offset="1" stop-color="#545454"/></linearGradient><linearGradient id="nj2pc" x1="28.71" x2="28.71" y1="48.73" y2="4.05" gradientUnits="userSpaceOnUse"><stop offset="0" stop-color="#2a2a2a"/><stop offset="1" stop-color="#545454"/></linearGradient><linearGradient id="nj2pd" x1="20.53" x2="20.53" y1="12.58" y2="53.36" gradientUnits="userSpaceOnUse"><stop offset="0" stop-color="#151515"/><stop offset="1" stop-color="#2e2e2e"/></linearGradient></defs><g><g><g><path fill="url(#nj2pa)" d="M40.639 20.71C40.639 9.607 31.634.605 20.532.605 9.424.604.422 9.606.422 20.711c0 11.108 9.002 20.106 20.11 20.106 11.102 0 20.107-8.998 20.107-20.106z"/></g><g><g><g><g><path fill="url(#nj2pb)" d="M14.862 16.81a.754.754 0 0 1-.753-.75 1.755 1.755 0 0 0-3.507 0 .752.752 0 0 1-1.503 0 3.26 3.26 0 0 1 3.258-3.26 3.26 3.26 0 0 1 3.258 3.26c0 .41-.338.75-.753.75z"/></g></g><g><g><path fill="url(#nj2pc)" d="M31.212 16.81a.754.754 0 0 1-.752-.75 1.755 1.755 0 0 0-3.51 0 .75.75 0 1 1-1.5 0 3.26 3.26 0 0 1 3.257-3.26 3.262 3.262 0 0 1 3.259 3.26c0 .41-.339.75-.754.75z"/></g></g></g></g><g><g><g><path fill="url(#nj2pd)" d="M20.532 30.837c-3.63 0-7.561-2.064-8.046-6.012a.75.75 0 1 1 1.49-.179c.378 3.045 3.656 4.69 6.556 4.69 2.893 0 6.178-1.645 6.55-4.69a.753.753 0 0 1 1.493.18c-.485 3.947-4.413 6.01-8.043 6.01z"/></g></g></g></g></g></svg>