<svg xmlns="http://www.w3.org/2000/svg" width="33" height="39" viewBox="0 0 33 39"><g><g><g><path fill="#999" d="M30.707 7.875v4.873c0 8.099-2.42 14.664-7.198 19.51-2.93 2.973-5.892 4.349-6.875 4.752-.983-.404-3.948-1.782-6.875-4.752-4.776-4.846-7.198-11.411-7.198-19.51V7.875l.762-.126a32.146 32.146 0 0 0 13.31-5.511 32.16 32.16 0 0 0 13.313 5.511zm1.185-1.865l-1.612-.269A30.047 30.047 0 0 1 17.245.163a1.022 1.022 0 0 0-1.221 0A30.045 30.045 0 0 1 2.988 5.741l-1.611.269a1.014 1.014 0 0 0-.851 1.004v5.734c0 8.565 2.71 15.825 7.84 20.996 3.903 3.935 7.781 5.266 7.942 5.32a1 1 0 0 0 .651 0c.163-.054 4.046-1.391 7.943-5.32 5.129-5.171 7.841-12.431 7.841-20.996V7.014c0-.5-.358-.922-.85-1.004z"/></g><g><g><path fill="#999" d="M16.634 21.802a.754.754 0 1 1 0-1.509.754.754 0 0 1 0 1.509zm0-3.018a2.266 2.266 0 0 0-2.263 2.264 2.265 2.265 0 0 0 2.263 2.263 2.266 2.266 0 0 0 2.264-2.263 2.267 2.267 0 0 0-2.264-2.264z"/></g><g><path fill="#999" d="M20.407 24.82h-7.545v-7.545h7.545zm-6.036-9.808a2.266 2.266 0 0 1 2.263-2.264 2.267 2.267 0 0 1 2.264 2.264v.754h-4.527zm2.263-3.773a3.777 3.777 0 0 0-3.772 3.773v.754h-.755a.754.754 0 0 0-.754.755v9.054c0 .417.337.754.754.754h9.054a.754.754 0 0 0 .755-.754v-9.054a.755.755 0 0 0-.755-.755h-.754v-.754a3.778 3.778 0 0 0-3.773-3.773z"/></g></g></g></g></svg>