<svg xmlns="http://www.w3.org/2000/svg" width="45" height="37" viewBox="0 0 45 37"><g><g><g><g><g><g><path fill="#ed1c24" d="M29.594 23.824v-.001a11.014 11.014 0 0 0-7.083-2.577c-2.594 0-5.11.916-7.08 2.576l-3.622-3.612a16.07 16.07 0 0 1 10.702-4.061c3.96 0 7.76 1.442 10.696 4.057zm5.516-3.676a1.904 1.904 0 0 0-.632-1.359 17.975 17.975 0 0 0-11.967-4.542 17.972 17.972 0 0 0-11.967 4.542 1.9 1.9 0 0 0-.075 2.762l3.616 3.616a1.89 1.89 0 0 0 2.568.112 9.103 9.103 0 0 1 5.858-2.13c2.146 0 4.227.756 5.858 2.13.357.301.791.45 1.223.45.487 0 .972-.189 1.345-.562l3.616-3.616c.369-.369.572-.881.557-1.403z"/></g></g></g><g><g><g><path fill="#ed1c24" d="M23.996 33.733a2.104 2.104 0 0 1-2.971 0 2.104 2.104 0 0 1 0-2.971 2.088 2.088 0 0 1 1.486-.615c.56 0 1.088.219 1.485.615.397.397.615.925.615 1.486 0 .561-.218 1.088-.615 1.485zm1.345-4.316a3.975 3.975 0 0 0-2.83-1.172c-1.07 0-2.075.416-2.83 1.172a4.009 4.009 0 0 0 0 5.661 3.99 3.99 0 0 0 2.83 1.171c1.025 0 2.05-.39 2.83-1.171a3.976 3.976 0 0 0 1.173-2.83c0-1.07-.417-2.075-1.173-2.831z"/></g></g></g><g><g><g><path fill="#ed1c24" d="M39.515 13.905C34.888 9.611 28.85 7.247 22.511 7.247c-6.34 0-12.377 2.365-17.001 6.655l-3.606-3.613c11.556-10.853 29.658-10.852 41.213 0l.003.004zm4.904-5.002C32.134-2.636 12.887-2.636.602 8.903c-.38.357-.594.84-.602 1.361a1.882 1.882 0 0 0 .556 1.374l3.61 3.609a1.892 1.892 0 0 0 2.634.052A23.026 23.026 0 0 1 22.51 9.15a23.023 23.023 0 0 1 15.71 6.149 1.888 1.888 0 0 0 2.636-.052l3.609-3.609c.367-.367.564-.854.556-1.373a1.891 1.891 0 0 0-.603-1.362z"/></g></g></g></g></g></g></svg>