<svg xmlns="http://www.w3.org/2000/svg" width="29" height="25.5" viewBox="0 0 58 51"><g><g><g><g><g><path fill="#2693ff" d="M18.082 47.502c-.97 1.576-3.224 2.491-5.647 1.307-.12-.059.648-1.362.736-1.485a4.45 4.45 0 0 1 1.056-1.045 4.114 4.114 0 0 1 1.853-.703c.578-.066 2.38-.118 2.443.755.027.376-.277.906-.441 1.171zm-6.597-6.314c-1.455 1.145-3.887 1.225-5.752-.722 1.656-2.128 4.083-2.297 5.648-1.308.28.178.537.404.755.662l.21.323c-.178.407-.513.771-.86 1.045zM8.803 32.27l-.067.086a3.364 3.364 0 0 1-1.03.71c-1.695.743-4.07.211-5.387-2.143 2.138-1.644 4.53-1.198 5.796.152.282.302.512.667.666 1.059l.028.106.005.016zm-.17-7.396c-.395.143-.82.211-1.235.198-1.85-.06-3.762-1.564-3.937-4.255 2.638-.563 4.604.87 5.164 2.634.125.395.175.823.145 1.243l-.02.107-.003.017-.015.008-.098.048zm16.384 22.608a20.401 20.401 0 0 1-9.903-6.438 20.398 20.398 0 0 1-1.994-2.809 20.575 20.575 0 0 1-1.607-3.432 20.477 20.477 0 0 1-1.099-4.913c-.331-3.4.198-6.846 1.531-9.965a.836.836 0 0 0-1.535-.656c-.323.755-.6 1.53-.835 2.317a5.464 5.464 0 0 0-2.58-2.09c-1.405-.56-3.092-.601-4.629-.114a.836.836 0 0 0-.583.77c-.05 1.61.447 3.223 1.366 4.423 1.029 1.342 2.518 2.11 4.196 2.166a4.988 4.988 0 0 0 1.342-.144c-.054.916-.052 1.835.008 2.753-1.06-.831-2.365-1.234-3.758-1.14-1.507.1-3.047.789-4.225 1.89a.835.835 0 0 0-.194.946c.648 1.476 1.793 2.717 3.14 3.403.804.41 1.658.616 2.512.616.745 0 1.491-.156 2.206-.47.392-.171.765-.4 1.105-.67.301 1.07.682 2.11 1.141 3.118a5.469 5.469 0 0 0-3.036.139c-1.434.475-2.752 1.529-3.615 2.891a.836.836 0 0 0 .049.964c.998 1.266 2.417 2.18 3.892 2.506.415.092.83.137 1.237.137 1.216 0 2.381-.403 3.368-1.18.33-.259.63-.568.888-.91a22.335 22.335 0 0 0 2.161 2.357 5.5 5.5 0 0 0-2.526 1.14c-1.182.941-2.054 2.385-2.395 3.962a.834.834 0 0 0 .38.887 7.145 7.145 0 0 0 3.694 1.063c.277 0 .553-.017.823-.054 1.676-.227 3.083-1.14 3.963-2.568.22-.361.397-.757.522-1.17a22.019 22.019 0 0 0 4.525 1.879.834.834 0 0 0 .465-1.604z"/></g><g><path fill="#2693ff" d="M50.11 33.066a3.356 3.356 0 0 1-1.029-.71c-.271-.274.43-1.078.62-1.28 1.265-1.352 3.658-1.797 5.795-.153-1.317 2.353-3.691 2.886-5.387 2.143zm-.92-9.614c.56-1.765 2.525-3.198 5.164-2.635-.175 2.69-2.087 4.195-3.937 4.255a3.377 3.377 0 0 1-1.236-.198c-.023-.01-.058-.028-.097-.047l-.016-.008-.003-.018-.02-.107c-.03-.419.02-.848.145-1.242zm2.893 17.014c-1.866 1.947-4.297 1.867-5.753.722a3.367 3.367 0 0 1-.818-.947l-.044-.1c.266-.396.555-.722.967-.983 1.564-.99 3.99-.82 5.648 1.308zm-9.35 5.357a4.249 4.249 0 0 1 1.581 1.093c.135.15 1.266 1.796 1.067 1.893-2.423 1.184-4.678.27-5.648-1.307a3.322 3.322 0 0 1-.441-1.171l-.003-.035c-.024-.445.93-.586 1.244-.658l.014-.003c.722-.174 1.493-.082 2.186.188zm14.37-15.722c-1.177-1.102-2.717-1.791-4.225-1.892-1.393-.092-2.7.31-3.758 1.14.06-.917.063-1.836.008-2.751 2.054.5 4.245-.336 5.539-2.024.919-1.199 1.416-2.811 1.365-4.423a.835.835 0 0 0-.582-.77c-1.538-.486-3.225-.444-4.628.115a5.454 5.454 0 0 0-2.58 2.09 22.011 22.011 0 0 0-.836-2.318.835.835 0 0 0-1.535.657 20.394 20.394 0 0 1-3.169 21.119 20.336 20.336 0 0 1-9.904 6.438.835.835 0 0 0 .465 1.604 22.035 22.035 0 0 0 4.526-1.879c.125.412.3.809.522 1.17.88 1.429 2.287 2.34 3.963 2.568 1.552.21 3.188-.193 4.518-1.01a.837.837 0 0 0 .379-.887c-.34-1.576-1.214-3.02-2.396-3.961a5.499 5.499 0 0 0-2.525-1.14 22.502 22.502 0 0 0 2.161-2.356c.258.34.557.65.887.909a5.4 5.4 0 0 0 3.369 1.179c2 0 3.906-1.091 5.129-2.643a.835.835 0 0 0 .049-.964c-.863-1.361-2.18-2.415-3.615-2.89a5.461 5.461 0 0 0-3.036-.14 21.76 21.76 0 0 0 1.141-3.118c.34.271.713.499 1.105.67a5.46 5.46 0 0 0 2.205.471c.855 0 1.709-.206 2.514-.617 1.346-.686 2.49-1.926 3.138-3.402a.831.831 0 0 0-.194-.945z"/></g><g><path fill="#2693ff" d="M14.085 15.83a1.393 1.393 0 0 0 .082 1.518l5.182 7.077-5.182 7.078a1.391 1.391 0 0 0 1.274 2.205l3.187-.347a.834.834 0 1 0-.18-1.66l-2.561.28 4.93-6.734c.359-.492.359-1.152 0-1.644l-4.93-6.733 8.295.903a1.392 1.392 0 0 0 1.424-.822l3.366-7.635 1.154 2.617a.836.836 0 0 0 1.528-.674l-1.408-3.194a1.39 1.39 0 1 0-2.546 0l-3.539 8.025-8.72-.948a1.395 1.395 0 0 0-1.356.688z"/></g><g><path fill="#2693ff" d="M42.505 33.708a1.393 1.393 0 0 0 1.272-2.205l-5.181-7.078 5.181-7.077a1.393 1.393 0 0 0-1.272-2.206l-8.72.949-.549-1.245a.834.834 0 1 0-1.528.673l.63 1.432c.247.557.82.888 1.424.822l8.295-.903-4.93 6.734c-.358.49-.358 1.152.002 1.643l4.928 6.733-8.295-.902a1.384 1.384 0 0 0-1.423.822l-3.367 7.635-3.366-7.635a1.386 1.386 0 0 0-1.424-.822l-1.917.208a.835.835 0 1 0 .182 1.66l1.713-.186 3.54 8.026a1.391 1.391 0 0 0 2.545 0l3.54-8.026z"/></g><g><path fill="#2693ff" d="M24.998 3.951a.834.834 0 0 0 1.652-.243L26.21.714a.836.836 0 0 0-1.652.243z"/></g><g><path fill="#2693ff" d="M12.646 9.11l2.483 1.729a.833.833 0 0 0 1.162-.208.834.834 0 0 0-.208-1.162L13.6 7.74a.832.832 0 0 0-1.162.208.834.834 0 0 0 .208 1.162z"/></g><g><path fill="#2693ff" d="M19.821 7.134a.834.834 0 0 0 1.15.27.836.836 0 0 0 .27-1.15l-1.515-2.446a.834.834 0 1 0-1.42.878z"/></g><g><path fill="#2693ff" d="M31.999 4.655a.833.833 0 0 0 .947-.704l.44-2.994a.835.835 0 1 0-1.65-.243l-.441 2.994a.835.835 0 0 0 .704.947z"/></g><g><path fill="#2693ff" d="M42.34 10.99c.164 0 .33-.049.476-.151L45.3 9.11a.836.836 0 0 0 .208-1.162.833.833 0 0 0-1.162-.208L41.86 9.47a.835.835 0 0 0 .479 1.52z"/></g><g><path fill="#2693ff" d="M36.974 7.404a.836.836 0 0 0 1.15-.27l1.514-2.448a.834.834 0 1 0-1.42-.88l-1.514 2.449a.835.835 0 0 0 .27 1.15z"/></g></g></g></g></g></svg>