<svg xmlns="http://www.w3.org/2000/svg" width="27" height="26" viewBox="0 0 27 26"><g><g><g><g></g></g></g><g><g><g><g><path fill="#7e7e7e" d="M13.315 15.273h-3.119a.21.21 0 0 1-.207-.207V6.799a.21.21 0 0 1 .207-.207h3.119c.111 0 .207.096.207.207v8.267a.21.21 0 0 1-.207.207z"/></g><g><path fill="#7e7e7e" d="M24.668 18.02a.484.484 0 0 0-.898-.356 2.468 2.468 0 0 1-2.279 1.557H11.412a.492.492 0 0 0-.334.133l-4.601 4.404V19.7a.48.48 0 0 0-.144-.34.484.484 0 0 0-.34-.144H3.698a2.453 2.453 0 0 1-2.449-2.449V5.912c0-1.35 1.1-2.449 2.449-2.449h10.918a.486.486 0 0 0 .484-.484.485.485 0 0 0-.484-.483H3.698a3.415 3.415 0 0 0-3.41 3.411v10.859a3.415 3.415 0 0 0 3.41 3.411h1.817v4.707a.482.482 0 0 0 .818.346l5.276-5.053h9.887a3.428 3.428 0 0 0 3.172-2.157z"/></g><g><path fill="#7e7e7e" d="M25.306 7.957l-.909 5.77v.016c-.122.983-.749 1.482-1.865 1.482h-7.108A1.423 1.423 0 0 1 14 13.802V7.453c.048 0 .096 0 .143-.016.138-.038 3.422-.989 3.422-3.964V.96c.351-.048.892-.058 1.296.234.388.287.579.829.579 1.62v3.002c0 .266.218.484.484.484h4.006c.297 0 .584.09.823.265.42.303.638.85.553 1.392zM13.038 14.79h-2.566V7.075h2.566zm13.22-6.684c.142-.898-.23-1.812-.947-2.327a2.37 2.37 0 0 0-1.387-.446h-3.522V2.814c0-1.115-.329-1.923-.978-2.396C18.4-.336 16.996.094 16.938.11a.479.479 0 0 0-.335.457v2.906c0 2.237-2.608 3.002-2.715 3.034-.01.005-.021.011-.032.011a.896.896 0 0 0-.754-.41h-2.699a.9.9 0 0 0-.898.898v7.847a.9.9 0 0 0 .898.898h2.7c.25 0 .472-.1.637-.265.43.43 1.025.696 1.684.696h7.108c1.61 0 2.636-.845 2.822-2.317z"/></g></g></g></g></g></svg>