<svg xmlns="http://www.w3.org/2000/svg" width="31" height="37" viewBox="0 0 31 37"><g><g><g><path fill="#ed1c24" d="M28.538 18.288v12.929c0 1.77-1.44 3.21-3.21 3.21H5.783c-1.77 0-3.21-1.44-3.21-3.21V18.288c0-1.77 1.44-3.21 3.21-3.21h19.545c1.77 0 3.21 1.44 3.21 3.21zM6.543 13.255V9.866c0-4.422 4.043-8.02 9.013-8.02 4.969 0 9.012 3.598 9.012 8.02v3.389zm19.85.119V9.866c0-5.428-4.862-9.844-10.837-9.844S4.72 4.438 4.72 9.866v3.508a5.017 5.017 0 0 0-3.97 4.915v12.929a5.039 5.039 0 0 0 5.033 5.032h19.545a5.038 5.038 0 0 0 5.033-5.033V18.288a5.017 5.017 0 0 0-3.969-4.914z"/></g><g><path fill="#ed1c24" d="M16.629 25.414a1.074 1.074 0 0 1-2.147 0v-3.97c0-.591.482-1.073 1.074-1.073.591 0 1.073.482 1.073 1.073zm-1.073-6.866a2.9 2.9 0 0 0-2.897 2.896v3.97a2.9 2.9 0 0 0 2.897 2.897 2.9 2.9 0 0 0 2.896-2.897v-3.97a2.9 2.9 0 0 0-2.896-2.896z"/></g></g></g></svg>