<svg xmlns="http://www.w3.org/2000/svg" width="41" height="41" viewBox="0 0 41 41"><defs><linearGradient id="z4e7a" x1="20.88" x2="20.88" y1="-15.94" y2="93.79" gradientUnits="userSpaceOnUse"><stop offset="0" stop-color="#c5c5c5"/><stop offset="1" stop-color="#a7a7a7"/></linearGradient><linearGradient id="z4e7b" x1="12.7" x2="12.7" y1="-9.44" y2="82.03" gradientUnits="userSpaceOnUse"><stop offset="0" stop-color="#2a2a2a"/><stop offset="1" stop-color="#545454"/></linearGradient><linearGradient id="z4e7c" x1="29.05" x2="29.05" y1="-9.44" y2="82.03" gradientUnits="userSpaceOnUse"><stop offset="0" stop-color="#2a2a2a"/><stop offset="1" stop-color="#545454"/></linearGradient><linearGradient id="z4e7d" x1="20.88" x2="20.88" y1="20.5" y2="73.49" gradientUnits="userSpaceOnUse"><stop offset="0" stop-color="#151515"/><stop offset="1" stop-color="#2e2e2e"/></linearGradient></defs><g><g><g><path fill="url(#z4e7a)" d="M40.983 20.707c0-11.102-9-20.106-20.106-20.106C9.771.601.77 9.605.77 20.707.77 31.816 9.77 40.82 20.877 40.82c11.105 0 20.106-9.004 20.106-20.113z"/></g><g><g><g><path fill="url(#z4e7b)" d="M15.21 15.724a2.51 2.51 0 0 0-2.509-2.51 2.508 2.508 0 0 0 0 5.018 2.506 2.506 0 0 0 2.509-2.508z"/></g><g><path fill="url(#z4e7c)" d="M31.557 15.724a2.508 2.508 0 0 0-2.505-2.51 2.508 2.508 0 0 0 0 5.018 2.505 2.505 0 0 0 2.505-2.508z"/></g></g></g><g><g><g><path fill="url(#z4e7d)" d="M20.877 23.746c3.629 0 7.558 2.067 8.042 6.016a.749.749 0 0 1-.653.836.761.761 0 0 1-.84-.657c-.372-3.049-3.656-4.692-6.549-4.692-2.897 0-6.178 1.643-6.557 4.692a.751.751 0 0 1-1.49-.179c.485-3.949 4.417-6.016 8.047-6.016z"/></g></g></g></g></g></svg>