<svg xmlns="http://www.w3.org/2000/svg" width="23" height="23" viewBox="0 0 23 23"><g><g><path fill="#fff" d="M14.145 10.563v4.812h-5.5v-4.812h-2.87l5.62-6.556 5.619 6.556zm0 7.562H12.77V16.75h1.375zm-4.125 0H8.645V16.75h1.375zm12.375-5.307V9.682L19.73 8.421l-.442-1.064.992-2.776-2.217-2.218-2.778.993-1.062-.44L12.962.25H9.827L8.565 2.916l-1.062.44-2.778-.993-2.217 2.218.992 2.776-.441 1.064L.395 9.682v3.136l2.664 1.261.441 1.064-.992 2.776 2.217 2.218 2.776-.992 1.065.441 1.261 2.664h3.135l1.262-2.664 1.064-.441 2.776.992 2.217-2.218-.992-2.776.442-1.064z"/></g></g></svg>