<svg xmlns="http://www.w3.org/2000/svg" width="25" height="23" viewBox="0 0 25 23"><g><g><g><g><g><path fill="#2693ff" d="M7.912 10.75H3.024l2.881-2.882a.874.874 0 1 0-1.237-1.236L.293 11.007a.875.875 0 0 0 0 1.237l4.375 4.375a.875.875 0 0 0 1.237-1.237L3.024 12.5h4.888z"/></g></g></g><g><g><g><path fill="#2693ff" d="M21.912.25H10.537a2.625 2.625 0 0 0-2.625 2.625v7.875h9.625a.875.875 0 0 1 0 1.75H7.912v7.875A2.626 2.626 0 0 0 10.537 23h11.375a2.625 2.625 0 0 0 2.625-2.625v-17.5A2.625 2.625 0 0 0 21.912.25z"/></g></g></g></g><g><g><g><g><path fill="#2693ff" d="M7.912 10.75H3.024l2.881-2.882a.874.874 0 1 0-1.237-1.236L.293 11.007a.875.875 0 0 0 0 1.237l4.375 4.375a.875.875 0 0 0 1.237-1.237L3.024 12.5h4.888z"/></g></g></g><g><g><g><path fill="#2693ff" d="M21.912.25H10.537a2.625 2.625 0 0 0-2.625 2.625v7.875h9.625a.875.875 0 0 1 0 1.75H7.912v7.875A2.626 2.626 0 0 0 10.537 23h11.375a2.625 2.625 0 0 0 2.625-2.625v-17.5A2.625 2.625 0 0 0 21.912.25z"/></g></g></g></g></g></svg>