<svg xmlns="http://www.w3.org/2000/svg" width="20" height="20" viewBox="0 0 20 20"><g><g><path fill="#3fa9f5" d="M16.118 8.246l-2.956 2.972a.28.28 0 0 1-.478-.197V9.475a2.935 2.935 0 0 0-1.123.164c-.798.28-1.48.883-2.028 1.793l-.178.297a.28.28 0 1 1-.516-.096l-.059-.342-.002-.012v-.002a4.32 4.32 0 0 1 .05-1.421A4.24 4.24 0 0 1 10.3 7.391c.116-.104.872-.73 2.384-.79V5.106a.28.28 0 0 1 .477-.198l2.956 2.942c.11.109.11.286 0 .395zm-.664 6.282a1.401 1.401 0 0 1-1.4 1.399H4.898a1.4 1.4 0 0 1-1.399-1.4V7.863a1.399 1.399 0 0 1 1.399-1.398h1.935a.28.28 0 0 1 0 .559H4.897a.841.841 0 0 0-.84.839v6.666a.84.84 0 0 0 .84.84h9.158c.463 0 .839-.377.84-.84v-1.182a.28.28 0 1 1 .56 0zM16.68.85H3.019A2.696 2.696 0 0 0 .322 3.547v13.66a2.697 2.697 0 0 0 2.697 2.697h13.66a2.697 2.697 0 0 0 2.696-2.697V3.547A2.696 2.696 0 0 0 16.679.85z"/></g></g></svg>