<svg xmlns="http://www.w3.org/2000/svg" width="26" height="37" viewBox="0 0 26 37"><g><g><g><path fill="gray" d="M22.122 26.639H10.137a.595.595 0 0 0 0 1.189h11.985a.594.594 0 0 0 0-1.189z"/></g><g><path fill="gray" d="M22.122 23.816H10.137a.594.594 0 0 0 0 1.189h11.985a.594.594 0 0 0 0-1.189z"/></g><g><path fill="gray" d="M6.755 17.146v12.869a.554.554 0 0 0 .579.562h12.034l-1.786 5.054-15.451-5.473zm8.454-8.372a.892.892 0 0 1-.218.115c.125-.183.291-.334.486-.44a.92.92 0 0 1-.268.325zm1.536-.342zm.734 1.49a1.374 1.374 0 0 1-2.638.214c.39-.036.762-.177 1.078-.408.408-.305.687-.746.826-1.296.55.275.851.885.734 1.49zM7.944 8.536l1.551-1.965c.113.172.228.343.353.511.878 1.181 1.952 2.115 3.027 2.633.231.112.47.205.714.28a2.56 2.56 0 1 0 .13-1.209c-.895-.333-1.977-1.145-2.921-2.413a9.386 9.386 0 0 1-.527-.795l.91-1.154h9.897l3.286 4.112v20.853H7.944zm1.822-7.084c.718-.535 2.414.075 3.914 1.784h-2.786a.602.602 0 0 0-.466.23l-.738.932c-.538-1.383-.474-2.537.076-2.946zM1.167 31.088l16.578 5.878a.592.592 0 0 0 .454-.024.623.623 0 0 0 .305-.354l2.125-6.011h4.295c.328 0 .628-.233.628-.562V8.329a.609.609 0 0 0-.145-.369L21.84 3.466a.618.618 0 0 0-.474-.23h-6.163c-.024 0-.047-.06-.071-.092-.878-1.18-1.955-2.112-3.029-2.63-1.2-.577-2.281-.58-3.046-.011-.764.569-1.071 1.607-.863 2.921.121.706.344 1.39.661 2.032L6.876 7.96a.584.584 0 0 0-.121.369v5.26L.812 30.329a.588.588 0 0 0 .355.759z"/></g><g><g><g><text fill="gray" style="line-height:6px;font-kerning:normal" dominant-baseline="text-before-edge" font-family="'Proxima Nova','ProximaNova-Semibold'" font-size="5" transform="translate(14 14)"><tspan>$</tspan></text></g></g><g><g><text fill="gray" style="line-height:6px;font-kerning:normal" dominant-baseline="text-before-edge" font-family="'Proxima Nova','ProximaNova-Semibold'" font-size="5" transform="translate(9 14)"><tspan>$</tspan></text></g></g><g><g><text fill="gray" style="line-height:6px;font-kerning:normal" dominant-baseline="text-before-edge" font-family="'Proxima Nova','ProximaNova-Semibold'" font-size="5" transform="translate(18 14)"><tspan>$</tspan></text></g></g></g></g></g></svg>