<svg xmlns="http://www.w3.org/2000/svg" width="25" height="25" viewBox="0 0 50 50"><g><g><g><g><g><g><g><path fill="#b3b3b3" d="M21.013 45.691l-3.707-3.707 1.065-.963 3.701 3.7zm-1.653 1.516a4.015 4.015 0 0 1-2.851 1.18 4.01 4.01 0 0 1-2.852-1.18l-10.9-10.9a4.006 4.006 0 0 1-1.18-2.85c0-1.078.42-2.09 1.18-2.852l.445-.444 3.698 3.7-.029.028a2.421 2.421 0 0 0 0 3.42l5.783 5.785a2.407 2.407 0 0 0 1.711.708c.647 0 1.254-.251 1.682-.68l.06-.054 3.716 3.715zM5.22 28.144l3.698 3.699-.876.876-3.698-3.7zm7.392 10.312a4.034 4.034 0 0 1 3.104-2.692l5.637-1.024 3.498 3.497 3.497-3.497 5.636 1.025a4.032 4.032 0 0 1 3.104 2.692l1.161 3.478h-16.68l-3.142-3.141-3.49 3.158a.826.826 0 0 1-1.141 0l-1.76-1.762zm14.658-4.957v.038l-2.42 2.42-2.418-2.42V33.5a8.023 8.023 0 0 0 4.838 0zm-8.87-11.755a10.463 10.463 0 0 0 6.45-2.867 10.462 10.462 0 0 0 6.453 2.867v4.062c0 1.176-.32 2.276-.873 3.226h-5.58v1.613h4.254a6.408 6.408 0 0 1-4.253 1.613 6.459 6.459 0 0 1-6.452-6.452zm-1.613-1.583v.921a3.18 3.18 0 0 0-.807.334v-2.868c0-4.89 3.98-8.871 8.87-8.871 4.892 0 8.872 3.98 8.872 8.87v2.869a3.146 3.146 0 0 0-.806-.334v-.92h-.807a8.872 8.872 0 0 1-6.314-2.616l-.944-.944-.944.944a8.874 8.874 0 0 1-6.314 2.615zm0 5.421a1.607 1.607 0 0 1-.807-1.388c0-.595.327-1.109.807-1.39zm16.129-2.777c.479.28.806.794.806 1.39a1.61 1.61 0 0 1-.806 1.387zm.806 5.42a.807.807 0 0 1-.806.807h-.679a7.969 7.969 0 0 0 .526-1.68c.345-.07.663-.208.959-.381zm6.764 15.323l-1.867-5.6a5.65 5.65 0 0 0-4.346-3.77l-5.39-.98v-.418a8.123 8.123 0 0 0 2.404-2.135h1.629a2.422 2.422 0 0 0 2.419-2.42v-9.677c0-5.78-4.703-10.483-10.484-10.483-5.78 0-10.484 4.703-10.484 10.483v5.646a3.23 3.23 0 0 0 2.572 3.158 8.078 8.078 0 0 0 3.88 5.428v.418l-5.391.98a5.648 5.648 0 0 0-4.345 3.77l-.322.967-2.747-2.746a.809.809 0 0 1 0-1.142l3.185-3.184-5.98-5.979-3.599 3.6a5.609 5.609 0 0 0-1.653 3.992c0 1.508.587 2.925 1.653 3.991l10.9 10.899A5.608 5.608 0 0 0 16.51 50a5.584 5.584 0 0 0 3.966-1.63l3.928-3.599-1.225-1.223z"/></g></g></g><g><g><g><path fill="#b3b3b3" d="M48.237 8.871a.807.807 0 0 1-.806.806h-2.65l-5.123 3.2.549-3.2H36.14a.807.807 0 0 1-.806-.806V2.42c0-.444.362-.806.806-.806h11.29c.445 0 .807.362.807.806zM47.431 0H36.14a2.421 2.421 0 0 0-2.42 2.419v6.452a2.421 2.421 0 0 0 2.42 2.419h2.154l-.833 4.864 7.782-4.864h2.188a2.421 2.421 0 0 0 2.419-2.419V2.42A2.421 2.421 0 0 0 47.43 0z"/></g></g></g><g><g><g><path fill="#b3b3b3" d="M36.947 4.838V3.226h9.678v1.612z"/></g></g></g><g><g><g><path fill="#b3b3b3" d="M36.947 8.064V6.451H43.4v1.613z"/></g></g></g><g><g><g><path fill="#b3b3b3" d="M45.012 8.064V6.451h1.613v1.613z"/></g></g></g><g><g><g><path fill="#b3b3b3" d="M24.85 2.419c-10.537 0-19.614 7.289-21.973 17.456l-1.53-2.548-1.382.83L2.8 22.881l4.723-2.835-.829-1.383-2.186 1.31c2.286-9.3 10.65-15.94 20.342-15.94 2.119 0 4.209.314 6.213.935l.477-1.541a22.578 22.578 0 0 0-6.69-1.008z"/></g></g></g><g><g><g><path fill="#b3b3b3" d="M49.458 17.856l-4.723-2.834-2.834 4.724 1.383.83 1.411-2.353A20.88 20.88 0 0 1 45.818 25c0 4.796-1.662 9.485-4.677 13.202l1.253 1.016A22.631 22.631 0 0 0 47.43 25c0-2.467-.398-4.876-1.173-7.182l2.37 1.422z"/></g></g></g></g></g></g></g></svg>