<svg xmlns="http://www.w3.org/2000/svg" width="32" height="39" viewBox="0 0 32 39"><g><g><g><path fill="#ed1c24" d="M10.681 10.061a6.304 6.304 0 0 0-6.297 6.297 6.304 6.304 0 0 0 6.297 6.296 6.303 6.303 0 0 0 6.296-6.297 6.303 6.303 0 0 0-6.296-6.296z"/></g><g><path fill="#ed1c24" d="M29.902 15.151c-2.094 9.927-7.197 16.106-8.655 17.71-.633-.695-1.883-2.178-3.286-4.4a42.841 42.841 0 0 0 2.68-8.365c.255-1.215.384-2.396.414-3.543.096.004.193.013.287.013a6.304 6.304 0 0 0 6.297-6.297 6.302 6.302 0 0 0-6.297-6.295c-2.225 0-4.14.911-5.266 2.459-.832-.414-1.763-.713-2.79-.898 1.374-2.356 4.038-3.563 7.961-3.563 5.273 0 8.28 2.545 8.938 7.564.23 1.746.134 3.634-.283 5.615zM10.68 37.531zm-8.654-17.71c-.418-1.981-.514-3.869-.284-5.615.659-5.019 3.666-7.564 8.94-7.564 2.205 0 4.009.452 5.416 1.338 2.545 1.676 3.3 4.71 3.521 6.394.029.219.05.442.07.671 0 .02.004.04.006.06.015.217.027.441.034.672a17.754 17.754 0 0 1-.393 4.043c-2.097 9.933-7.199 16.109-8.656 17.711-1.456-1.602-6.559-7.778-8.654-17.71zM31.508 9.363C30.76 3.655 27.21.638 21.248.638c-5.776 0-8.296 2.483-9.397 4.713-.38-.027-.769-.043-1.17-.043-5.965 0-9.513 3.017-10.262 8.725C.17 15.927.27 17.967.72 20.096 2.947 30.652 8.322 36.982 9.916 38.67c.198.209.477.33.765.33.287 0 .566-.121.764-.33 1.015-1.075 3.562-4.04 5.854-8.773 1.445 2.182 2.678 3.568 3.183 4.101.198.211.477.333.764.333.29 0 .568-.122.765-.331 1.594-1.689 6.969-8.021 9.195-18.574.45-2.128.55-4.169.302-6.063z"/></g></g></g></svg>