<svg xmlns="http://www.w3.org/2000/svg" width="30" height="40" viewBox="0 0 30 40"><g><g><g><path fill="#ed1c24" d="M25.102 10.391c-.006 5.384-4.37 9.747-9.753 9.753-5.386 0-9.753-4.367-9.753-9.753S9.963.638 15.35.638a9.752 9.752 0 0 1 9.753 9.753zm-9.753-8.453c-4.661 0-8.453 3.792-8.453 8.453s3.792 8.453 8.453 8.453c4.655-.005 8.448-3.798 8.453-8.454 0-4.66-3.792-8.452-8.453-8.452"/></g><g><path fill="#ed1c24" d="M19.945 15.637a.65.65 0 0 1-.46-1.11 5.851 5.851 0 1 0-8.272 0 .65.65 0 0 1-.919.919 7.15 7.15 0 0 1 5.055-12.211 7.151 7.151 0 0 1 5.055 12.211.647.647 0 0 1-.46.191z"/></g><g><path fill="#ed1c24" d="M12.53 10.391a2.818 2.818 0 1 1 5.637 0 2.818 2.818 0 0 1-5.636 0z"/></g><g><path fill="#ed1c24" d="M6.246 27.296a.65.65 0 0 1-.65-.65V10.391a.65.65 0 1 1 1.3 0v16.255a.65.65 0 0 1-.65.65z"/></g><g><path fill="#ed1c24" d="M24.452 20.144a.65.65 0 0 1-.65-.65v-9.103a.65.65 0 0 1 1.3 0v9.103a.65.65 0 0 1-.65.65z"/></g><g><path fill="#ed1c24" d="M6.246 31.198a2.603 2.603 0 0 1-1.3-4.854 2.602 2.602 0 0 1 3.14.414.65.65 0 0 1-.92.919 1.334 1.334 0 0 0-1.839 0 1.3 1.3 0 0 0 .92 2.22.65.65 0 0 1 0 1.301z"/></g><g><path fill="#ed1c24" d="M4.126 31.047h4.24c.067 0 .125.043.145.106l2.2 7.152a.151.151 0 0 1-.145.195H1.926a.148.148 0 0 1-.12-.062.148.148 0 0 1-.024-.132l2.2-7.153a.154.154 0 0 1 .145-.106zm7.367 7.985c.216-.292.28-.673.174-1.02l-2.201-7.153a1.145 1.145 0 0 0-1.1-.812H4.125c-.508 0-.95.327-1.1.812L.827 38.01a1.151 1.151 0 0 0 1.099 1.49h8.642c.364 0 .709-.174.926-.468z"/></g><g><path fill="#ed1c24" d="M24.452 24.045a2.6 2.6 0 0 1-1.3-4.853 2.6 2.6 0 0 1 3.139.414.65.65 0 0 1-.92.918 1.333 1.333 0 0 0-1.838 0 1.3 1.3 0 0 0 .92 2.221.65.65 0 0 1 0 1.3z"/></g><g><path fill="#ed1c24" d="M25.947 23.895a.15.15 0 0 1 .14.099l2.13 5.851a.15.15 0 0 1-.02.139.146.146 0 0 1-.122.063H20.83a.15.15 0 0 1-.123-.063.151.151 0 0 1-.018-.138l2.127-5.852a.154.154 0 0 1 .142-.099zm2.128 7.152a1.15 1.15 0 0 0 1.08-1.543l-2.127-5.851a1.154 1.154 0 0 0-1.081-.758h-2.99a1.156 1.156 0 0 0-1.081.757l-2.128 5.852a1.152 1.152 0 0 0 1.081 1.543z"/></g><g><g><path fill="#ed1c24" d="M4.946 37.049a.681.681 0 0 1-.462-.188 1.156 1.156 0 0 1-.078-.098.48.48 0 0 1-.058-.117.397.397 0 0 1-.039-.117.65.65 0 1 1 1.287-.13.673.673 0 0 1-.189.462.677.677 0 0 1-.461.188z"/></g><g><path fill="#ed1c24" d="M7.547 37.049a.681.681 0 0 1-.462-.188 1.066 1.066 0 0 1-.078-.098.484.484 0 0 1-.059-.117.463.463 0 0 1-.039-.117.65.65 0 1 1 1.288-.13.67.67 0 0 1-.19.462.676.676 0 0 1-.46.188z"/></g><g><path fill="#ed1c24" d="M23.152 28.597a.645.645 0 0 1-.651-.65.673.673 0 0 1 .189-.462.652.652 0 1 1 .462 1.112z"/></g><g><path fill="#ed1c24" d="M25.752 28.597a.65.65 0 0 1-.461-1.112.674.674 0 0 1 .923 0 .65.65 0 0 1-.462 1.112z"/></g></g></g></g></svg>