<svg xmlns="http://www.w3.org/2000/svg" width="38" height="25" viewBox="0 0 38 25"><g><g><g><path fill="#5cbfab" d="M3.256 6.377l-.114.08a.483.483 0 0 0-.018.68l1.212 1.277c.136.142.349.186.532.106a10.472 10.472 0 0 1 8.53.046.474.474 0 0 0 .517-.087l1.299-1.235a.481.481 0 0 0-.106-.774 13.121 13.121 0 0 0-11.852-.093z"/></g><g><path fill="#999" d="M.182 2.318l-.084.063a.483.483 0 0 0-.018.68l1.194 1.257a.473.473 0 0 0 .575.085 14.752 14.752 0 0 1 14.804.177.474.474 0 0 0 .567-.062l1.261-1.196a.478.478 0 0 0-.073-.753C12.911-.926 5.758-1.024.182 2.32z"/></g><g><path fill="#fff" d="M4.654 21.52v-1.174h22.754v1.174z"/></g><g><path fill="#fff" d="M29.529 22.14v-.417h5.51v.417z"/></g><g><path fill="#5cbfab" d="M29.53 20.598v-1.46h2.784v1.46z"/></g><g><path fill="#97d5c9" d="M32.314 20.598v-1.46h2.726v1.46z"/></g><g><path fill="#999" d="M27.408 20.346v1.174H4.654v-1.174zM8.083 11.575a1.078 1.078 0 1 1 2.155.001 1.078 1.078 0 0 1-2.155-.001zm21.446 10.148h5.511v.416h-5.511zm0-2.585h5.511v1.46h-5.51zM3.286 16.844c-.678 0-1.227.55-1.227 1.226v5.726c0 .678.549 1.227 1.227 1.227h32.67c.677 0 1.225-.549 1.225-1.227V18.07c0-.677-.548-1.226-1.226-1.226H9.74v-3.317a2.029 2.029 0 0 0-.598-3.969c-1.123 0-2.034.911-2.034 2.034 0 .915.606 1.678 1.436 1.935v3.317z"/></g><g><path fill="#97d5c9" d="M8.083 11.575a1.077 1.077 0 1 0 0 0z"/></g></g></g></svg>