<svg xmlns="http://www.w3.org/2000/svg" width="20" height="20" viewBox="0 0 20 20"><g><g><g><g><path fill="#666" d="M14.334 12.944c0 .479-.388.51-.866.51H6.452c-.48 0-.867-.031-.867-.51v-.082c0-.345.203-.64.493-.779l.275-2.374a3.609 3.609 0 0 1 2.865-3.53v-.922a.742.742 0 1 1 1.484 0v.922a3.609 3.609 0 0 1 2.865 3.53l.275 2.374c.29.14.492.434.492.78zM9.96 15.537c-.715 0-1.295-.58-1.295-1.295h2.589c0 .715-.58 1.295-1.294 1.295zM9.959.071C4.46.071.001 4.531.001 10.03c0 5.5 4.459 9.96 9.958 9.96 5.5 0 9.959-4.46 9.959-9.96 0-5.5-4.459-9.958-9.959-9.958z"/></g></g></g></g></svg>