<svg xmlns="http://www.w3.org/2000/svg" width="31" height="27" viewBox="0 0 31 27"><g><g><g><path fill="#999" d="M5.936 6.612V.784h.61c.146 0 .238.071.276.213l.075.599c.215-.265.455-.482.722-.65.266-.169.576-.254.929-.254.395 0 .714.11.958.328.243.219.419.514.527.886a1.818 1.818 0 0 1 .765-.926c.165-.1.34-.173.526-.219.186-.046.375-.07.567-.07.307 0 .58.05.82.148.24.098.443.24.61.43.167.186.294.418.382.692.088.274.132.588.132.94v3.711h-1.023V2.901c0-.456-.1-.802-.3-1.038-.199-.236-.488-.354-.868-.354-.169 0-.329.03-.48.089-.152.06-.286.147-.4.262-.116.115-.207.26-.274.434a1.681 1.681 0 0 0-.1.607v3.711H9.364V2.901c0-.467-.094-.817-.281-1.046-.189-.231-.463-.346-.823-.346-.254 0-.489.068-.705.204a2.335 2.335 0 0 0-.596.556v4.343z"/></g><g><path fill="#999" d="M17.006 5.985c-.135 0-.259-.016-.374-.049a.753.753 0 0 1-.501-.431.992.992 0 0 1-.075-.4.74.74 0 0 1 .14-.439c.095-.131.246-.245.453-.341.207-.097.475-.175.805-.235.33-.06.731-.09 1.203-.09v1.203a3.304 3.304 0 0 1-.354.328 2.197 2.197 0 0 1-.38.244c-.132.067-.273.119-.422.156-.15.036-.315.054-.495.054zm2.658-3.101c0-.326-.045-.625-.132-.897a1.923 1.923 0 0 0-.392-.697 1.778 1.778 0 0 0-.64-.448 2.19 2.19 0 0 0-.867-.161c-.453 0-.865.077-1.237.23-.372.153-.72.385-1.042.696l.185.328c.03.054.07.099.123.135a.305.305 0 0 0 .18.055c.09 0 .179-.032.269-.095.09-.064.197-.134.322-.213.125-.079.272-.15.443-.213.17-.063.38-.095.63-.095.38 0 .666.117.86.351.194.233.291.578.291 1.033v.457c-.66 0-1.218.053-1.674.159-.457.106-.826.241-1.108.407-.282.166-.486.355-.613.57a1.292 1.292 0 0 0-.189.665c0 .266.043.496.13.69.085.195.2.356.347.482.146.127.318.223.515.286.197.064.41.095.636.095.222 0 .425-.019.607-.057.182-.038.354-.095.515-.17.16-.074.314-.167.46-.276.145-.109.295-.233.449-.37l.115.54c.02.099.059.165.12.195a.534.534 0 0 0 .242.046h.455z"/></g><g><path fill="#999" d="M25.193 1.82a.487.487 0 0 1-.092.098.22.22 0 0 1-.132.034.331.331 0 0 1-.188-.072 2.249 2.249 0 0 0-.632-.316 1.784 1.784 0 0 0-.544-.072c-.284 0-.535.051-.754.152-.22.102-.402.25-.55.44a1.994 1.994 0 0 0-.333.697 3.453 3.453 0 0 0-.112.914c0 .353.04.667.12.941.081.274.194.505.34.69.146.187.323.329.532.426.21.098.444.147.705.147.249 0 .455-.03.616-.089.161-.059.295-.126.403-.199.107-.073.195-.14.264-.198a.32.32 0 0 1 .207-.089c.088 0 .154.032.196.097l.288.375c-.254.31-.57.538-.95.681-.379.144-.78.216-1.202.216-.365 0-.703-.067-1.016-.201a2.328 2.328 0 0 1-.814-.584A2.781 2.781 0 0 1 21 4.967a3.796 3.796 0 0 1-.198-1.272c0-.433.06-.834.18-1.202.122-.368.298-.686.531-.952.231-.267.518-.475.859-.624.342-.15.733-.225 1.174-.225.407 0 .767.066 1.082.2.315.131.593.318.834.56z"/></g><g><path fill="#999" d="M14.735 20.34c-.284.827-.688 1.527-1.21 2.1a5.2 5.2 0 0 1-1.899 1.318c-.743.304-1.574.457-2.492.457-.91 0-1.736-.153-2.48-.457a5.255 5.255 0 0 1-1.904-1.317c-.526-.574-.932-1.274-1.217-2.1-.284-.827-.427-1.763-.427-2.807s.143-1.982.427-2.813c.285-.83.691-1.532 1.217-2.106a5.305 5.305 0 0 1 1.904-1.323c.744-.31 1.57-.463 2.48-.463.918 0 1.749.154 2.492.463.744.308 1.377.75 1.899 1.323.522.574.926 1.276 1.21 2.106.285.831.427 1.769.427 2.813 0 1.044-.142 1.98-.427 2.806zm2.789-2.806c0-1.274-.202-2.442-.605-3.507a8.103 8.103 0 0 0-1.709-2.753 7.671 7.671 0 0 0-2.652-1.797c-1.032-.428-2.174-.641-3.424-.641s-2.389.213-3.417.641a7.67 7.67 0 0 0-2.646 1.797 8.096 8.096 0 0 0-1.71 2.753C.959 15.092.757 16.26.757 17.534s.202 2.442.606 3.506a8.015 8.015 0 0 0 1.709 2.747 7.634 7.634 0 0 0 2.646 1.786c1.028.424 2.167.635 3.417.635s2.392-.21 3.424-.635a7.635 7.635 0 0 0 2.652-1.786c.736-.767 1.305-1.682 1.709-2.747.403-1.064.605-2.232.605-3.506z"/></g><g><path fill="#999" d="M29.378 11.684a.93.93 0 0 1-.225.267.5.5 0 0 1-.309.089c-.134 0-.29-.068-.468-.202a7.27 7.27 0 0 0-.677-.445 5.501 5.501 0 0 0-.985-.445c-.383-.134-.848-.202-1.394-.202-.514 0-.969.07-1.365.208a2.895 2.895 0 0 0-.991.563 2.328 2.328 0 0 0-.599.837c-.135.32-.2.667-.2 1.038 0 .475.115.869.35 1.181.232.313.54.58.924.801.384.222.819.414 1.305.576.487.162.985.33 1.496.504.51.174 1.008.37 1.495.587.486.218.92.493 1.305.825.384.332.692.74.926 1.222.233.483.35 1.076.35 1.78 0 .744-.127 1.442-.38 2.095a4.832 4.832 0 0 1-1.11 1.703 5.194 5.194 0 0 1-1.79 1.139c-.71.277-1.514.415-2.416.415-1.1 0-2.103-.199-3.008-.599a7.062 7.062 0 0 1-2.32-1.62l.664-1.092a.87.87 0 0 1 .232-.219.536.536 0 0 1 .302-.089c.167 0 .356.089.57.267.213.178.48.374.8.587.321.214.709.41 1.164.588.455.177 1.01.267 1.667.267.546 0 1.032-.076 1.46-.226.427-.15.789-.362 1.085-.635.297-.273.525-.599.683-.979.158-.379.237-.803.237-1.269 0-.515-.116-.936-.35-1.264a2.908 2.908 0 0 0-.92-.825 6.485 6.485 0 0 0-1.3-.564l-1.494-.474a14.85 14.85 0 0 1-1.495-.564 4.838 4.838 0 0 1-1.3-.83 3.817 3.817 0 0 1-.92-1.276c-.233-.51-.35-1.141-.35-1.893 0-.601.117-1.182.35-1.744a4.486 4.486 0 0 1 1.015-1.495c.443-.436.99-.784 1.644-1.045.652-.26 1.402-.391 2.248-.391.95 0 1.816.15 2.599.451.783.3 1.468.735 2.053 1.305z"/></g></g></g></svg>