<svg xmlns="http://www.w3.org/2000/svg" width="24" height="24.5" viewBox="0 0 48 49"><g><g><g><g><g><path fill="#2693ff" d="M1.508 6.847v-4a.8.8 0 0 1 .8-.8h43.2a.8.8 0 0 1 .8.8v4zm44.8 39.2c0 .442-.358.8-.8.8h-43.2a.8.8 0 0 1-.8-.8v-37.6h44.8zm-.8-45.6h-43.2a2.4 2.4 0 0 0-2.4 2.4v43.2a2.4 2.4 0 0 0 2.4 2.4h43.2c1.325 0 2.4-1.075 2.4-2.4v-43.2a2.4 2.4 0 0 0-2.4-2.4z"/></g><g><path fill="#2693ff" d="M3.34 3.879a.794.794 0 0 0-.168.872c.036.099.094.19.168.264a.803.803 0 0 0 1.136-1.136.838.838 0 0 0-1.136 0z"/></g><g><path fill="#2693ff" d="M6.54 3.879a.84.84 0 0 0-.232.568c0 .053.006.107.016.16.008.05.025.098.048.144a.55.55 0 0 0 .072.144c.029.042.06.082.096.12a.81.81 0 0 0 1.136 0l.096-.12a.656.656 0 0 0 .072-.144.507.507 0 0 0 .048-.144.802.802 0 0 0-1.352-.729z"/></g><g><path fill="#2693ff" d="M9.74 3.879a.809.809 0 0 0 0 1.136.803.803 0 0 0 1.136-1.136.838.838 0 0 0-1.136 0z"/></g><g><path fill="#2693ff" d="M43.108 19.647h-38.4v-8h38.4zm1.6-9.6h-41.6v11.2h41.6z"/></g><g><path fill="#2693ff" d="M15.908 43.647h-11.2v-19.2h11.2zm1.6-20.8h-14.4v22.4h14.4z"/></g><g><path fill="#2693ff" d="M20.708 24.447h22.4v7.2h-22.4zm-1.6 8.8h25.6v-10.4h-25.6z"/></g><g><path fill="#2693ff" d="M20.708 36.447h22.4v7.2h-22.4zm-1.6 8.8h25.6v-10.4h-25.6z"/></g></g></g></g></g></svg>