<svg xmlns="http://www.w3.org/2000/svg" width="28" height="28" viewBox="0 0 28 28"><defs><linearGradient id="a738a" x1="13.5" x2="13.5" y1="8.83" y2="18.58" gradientUnits="userSpaceOnUse"><stop offset="0" stop-color="#86bbe5"/><stop offset="1" stop-color="#116cb3"/></linearGradient></defs><g><g><g><path fill="#e53029" d="M13.529.064s8.031-.362 12.287 7.709h-12.97s-2.449-.08-4.537 2.892c-.602 1.244-1.245 2.53-.522 5.06-1.044-1.768-5.54-9.598-5.54-9.598S5.417.385 13.528.064z"/></g><g><path fill="#fdd900" d="M25.398 20.555s-3.703 7.135-12.82 6.785l6.485-11.232s1.295-2.08-.234-5.375c-.777-1.144-1.568-2.343-4.12-2.982 2.053-.02 11.082.001 11.082.001s3.385 5.62-.393 12.803z"/></g><g><path fill="#66b44b" d="M1.718 20.61s-4.327-6.776.536-14.496l6.482 11.234s1.155 2.161 4.772 2.485c1.38-.101 2.813-.187 4.643-2.077-1.009 1.787-5.542 9.596-5.542 9.596s-6.56.122-10.891-6.742z"/></g><g><path fill="#61ab48" d="M12.577 27.406l1.824-7.613s2.006-.157 3.687-2.001c-1.043 1.835-5.51 9.614-5.51 9.614z"/></g><g><path fill="#fff" d="M7.419 13.82a6.077 6.077 0 1 1 12.155 0 6.077 6.077 0 0 1-12.155 0z"/></g><g><path fill="url(#a738a)" d="M8.436 13.82a5.06 5.06 0 1 1 10.12 0 5.06 5.06 0 0 1-10.12 0z"/></g><g><path fill="#f0ce00" d="M25.791 7.752l-7.513 2.203s-1.132-1.663-3.569-2.204c2.11-.007 11.082.001 11.082.001z"/></g><g><path fill="#d92f27" d="M7.641 15.45c-1.056-1.828-5.395-9.323-5.395-9.323l5.565 5.505s-.572 1.176-.355 2.856z"/></g></g></g></svg>