<svg xmlns="http://www.w3.org/2000/svg" width="37" height="39" viewBox="0 0 37 39"><g><g><g><g><g><g><path fill="#ed1c24" d="M5.88 18.778v-1.445h17.333v1.445z"/></g></g></g><g><g><g><path fill="#ed1c24" d="M5.88 21.667v1.444h14.058l1.444-1.444z"/></g></g></g><g><g><g><path fill="#ed1c24" d="M5.88 26v1.444h9.724L17.048 26z"/></g></g></g><g><g><g><path fill="#ed1c24" d="M5.88 31.778v-1.444h7.222v1.444z"/></g></g></g><g><g><g><path fill="#ed1c24" d="M33.729 17.49l-2.043-2.043 1.022-1.021 2.043 2.043zm-2.043 2.043l-2.042-2.043 1.021-1.022 2.043 2.043zM21.472 29.746l-2.042-2.042 9.192-9.193 2.043 2.043zm-2.028 2.029l-1.046.003-.963-.963v-1.117l.973-.973 2.043 2.043zM7.324 8.643A2.905 2.905 0 0 1 9.411 5.89a3.429 3.429 0 0 0 2.359-2.357 2.9 2.9 0 0 1 2.777-2.089 2.9 2.9 0 0 1 2.776 2.089 3.424 3.424 0 0 0 2.358 2.357 2.9 2.9 0 0 1 2.088 2.777v1.444H7.324zm28.448 6.804l-2.043-2.042a1.446 1.446 0 0 0-2.043-.001L15.991 29.1v4.122c3.477 0 2.598.002 4.055-.006l7.5-7.501v10.396c0 .798-.646 1.445-1.444 1.445H2.992a1.444 1.444 0 0 1-1.445-1.445v-26c0-.798.646-1.444 1.444-1.444H5.88v2.889h17.333V8.667h2.89c.797 0 1.444.646 1.444 1.444v5.365l1.444-1.455v-3.91a2.888 2.888 0 0 0-2.889-2.889h-3.138a4.34 4.34 0 0 0-2.884-2.72 1.988 1.988 0 0 1-1.368-1.369 4.336 4.336 0 0 0-8.33 0 1.992 1.992 0 0 1-1.37 1.369 4.345 4.345 0 0 0-2.885 2.72H2.991a2.888 2.888 0 0 0-2.889 2.889v26A2.888 2.888 0 0 0 2.992 39h23.11a2.888 2.888 0 0 0 2.89-2.889v-11.84l6.78-6.781a1.445 1.445 0 0 0 0-2.043z"/></g></g></g><g><g><g><path fill="#ed1c24" d="M13.485 4.333a1.083 1.083 0 1 1 2.167 0 1.083 1.083 0 0 1-2.167 0z"/></g></g></g></g></g></g></svg>