<svg xmlns="http://www.w3.org/2000/svg" width="55" height="37" viewBox="0 0 55 37"><g><g><g><path fill="#ed1c24" d="M52.233 32.256c-.47 1.1-1.152 1.79-2.023 2.051a3.494 3.494 0 0 1-.93.118c-.666 0-1.422-.159-2.261-.474-2.299-.919-5.113-2.927-8.149-5.812-2.347-2.346-6.593-3.739-11.37-3.739-4.718 0-8.996 1.348-11.444 3.608-3.328 3.084-5.991 4.984-8.139 5.805-.961.36-2.19.723-3.229.346-.838-.251-1.52-.94-1.99-2.04-.62-1.473-.866-3.773-.733-6.839a47.954 47.954 0 0 1 1.458-9.579c.836-3.27 1.824-5.925 2.935-7.885C10.378.58 15.243 1.861 20.39 3.215c2.276.588 4.346 1.091 6.612 1.285l.976-.003c2.278-.191 4.354-.694 6.633-1.282l.14-.035C39.86 1.902 44.685.694 48.644 7.82c1.143 2.017 2.13 4.671 2.935 7.887.825 3.449 1.328 6.757 1.456 9.572.136 3.121-.126 5.402-.802 6.977zm2.737-7.087c-.137-3.151-.685-6.644-1.507-9.933-.822-3.151-1.85-6.097-3.082-8.357-4.796-8.427-10.002-7.125-16.236-5.481-1.987.48-4.11 1.028-6.302 1.233h-.685c-2.193-.205-4.316-.753-6.303-1.233C14.621-.178 9.415-1.548 4.62 6.947c-1.233 2.261-2.33 5.206-3.083 8.358C.715 18.593.167 22.087.03 25.237c-.137 3.495.205 6.029.959 7.81.753 1.644 1.85 2.672 3.288 3.083 1.302.342 2.809.206 4.384-.48 2.672-1.096 5.755-3.425 8.77-6.233 2.123-2.056 6.096-3.083 10.069-3.083 3.973 0 7.947 1.027 10.07 3.083 3.014 2.808 6.097 5.137 8.769 6.233 1.575.617 3.082.822 4.384.48 1.37-.411 2.535-1.37 3.288-3.151.754-1.713 1.096-4.247.96-7.81z"/></g><g><g><g><path fill="#ed1c24" d="M20.485 15.647a1.392 1.392 0 0 1-1.027.411h-.96a1.3 1.3 0 0 0-1.301 1.302v.89c0 .411-.137.754-.41 1.028a1.396 1.396 0 0 1-1.03.411c-.41 0-.752-.137-1.026-.411a1.396 1.396 0 0 1-.411-1.028v-.959a1.3 1.3 0 0 0-1.302-1.301h-.959c-.411 0-.754-.137-1.028-.411a1.393 1.393 0 0 1-.41-.96c0-.411.136-.753.41-1.027l.07-.069a1.64 1.64 0 0 1 .958-.342h.96a1.3 1.3 0 0 0 1.3-1.302v-.959c0-.411.138-.753.412-1.027a1.393 1.393 0 0 1 1.027-.411c.41 0 .754.137 1.028.411l.068.068c.206.274.343.617.343.959v.959c0 .685.548 1.302 1.301 1.302h.96c.411 0 .753.137 1.027.411.274.274.411.616.411 1.027 0 .412-.137.754-.411 1.028zm1.713-3.836c-.685-.617-1.507-1.096-2.466-1.165a3.896 3.896 0 0 0-1.097-2.397l-.068-.069a3.883 3.883 0 0 0-2.81-1.164A4.042 4.042 0 0 0 12.95 8.18c-.617.617-1.096 1.507-1.165 2.466-.959.069-1.781.48-2.466 1.096l-.069.069a3.88 3.88 0 0 0-1.164 2.808c0 1.097.479 2.124 1.164 2.809.685.685 1.507 1.096 2.535 1.165.069.959.48 1.849 1.165 2.466a3.879 3.879 0 0 0 2.808 1.164 4.045 4.045 0 0 0 2.809-1.164c.616-.685 1.096-1.507 1.165-2.466.959-.069 1.85-.48 2.466-1.165a3.88 3.88 0 0 0 1.164-2.809 4.044 4.044 0 0 0-1.164-2.808z"/></g></g></g><g><g><g><path fill="#ed1c24" d="M38.022 9.756a2.398 2.398 0 1 1 4.795 0 2.398 2.398 0 0 1-4.795 0z"/></g></g></g><g><g><g><path fill="#ed1c24" d="M38.022 19.483a2.398 2.398 0 1 1 4.795 0 2.398 2.398 0 0 1-4.795 0z"/></g></g></g><g><g><g><path fill="#ed1c24" d="M33.158 14.62a2.398 2.398 0 1 1 4.796 0 2.398 2.398 0 0 1-4.796 0z"/></g></g></g><g><g><g><path fill="#ed1c24" d="M42.886 14.62a2.398 2.398 0 1 1 4.796 0 2.398 2.398 0 0 1-4.796 0z"/></g></g></g></g></g></svg>