<svg xmlns="http://www.w3.org/2000/svg" width="35" height="35.33" viewBox="0 0 105 106"><defs><clipPath id="9zwka"><path fill="#fff" d="M0 52.632C0 23.637 23.505.132 52.5.132s52.5 23.505 52.5 52.5-23.505 52.5-52.5 52.5S0 81.627 0 52.632z"/></clipPath></defs><g><g><g><g><path fill="#39b54a" d="M0 52.632C0 23.637 23.505.132 52.5.132s52.5 23.505 52.5 52.5-23.505 52.5-52.5 52.5S0 81.627 0 52.632z"/><path fill="none" stroke="#39b54a" stroke-miterlimit="50" stroke-width="20" d="M0 52.632C0 23.637 23.505.132 52.5.132s52.5 23.505 52.5 52.5-23.505 52.5-52.5 52.5S0 81.627 0 52.632z" clip-path="url(&quot;#9zwka&quot;)"/></g><g><path fill="#fff" d="M21.72 55.055c-.485-.484-.727-1.21-.727-1.696 0-.485.242-1.212.727-1.697l3.393-3.393c.969-.97 2.423-.97 3.393 0l.242.243 13.33 14.299a1.172 1.172 0 0 0 1.697 0l32.477-33.689h.242c.97-.97 2.424-.97 3.393 0l3.393 3.393c.97.97.97 2.424 0 3.394L44.502 76.141c-.485.485-.969.727-1.697.727-.727 0-1.211-.242-1.696-.727L22.204 55.782z"/></g></g></g></g></svg>