<svg xmlns="http://www.w3.org/2000/svg" width="39" height="39" viewBox="0 0 39 39"><g><g><g><path fill="#999" d="M18.637 22.43c.112.113.247.203.397.265a1.21 1.21 0 0 0 .933 0c.104-.043.189-.114.276-.183.04-.03.085-.044.122-.08l6.906-6.906a1.22 1.22 0 1 0-1.724-1.724l-4.828 4.827V1.258a1.22 1.22 0 0 0-2.438 0v17.368l-4.824-4.824a1.22 1.22 0 1 0-1.724 1.724z"/></g><g><path fill="#999" d="M37.313 34.571a2.785 2.785 0 0 1-2.782 2.781H4.469a2.784 2.784 0 0 1-2.781-2.781v-8.938c0-.638.518-1.156 1.156-1.156h4.478c.51 0 .966.341 1.11.829l1.739 5.802a2.082 2.082 0 0 0 2.007 1.494h14.644a2.11 2.11 0 0 0 2.007-1.492l1.742-5.809a1.159 1.159 0 0 1 1.107-.824h4.478c.638 0 1.157.518 1.157 1.156zm-5.635-11.782a2.83 2.83 0 0 0-2.725 2.027l-1.742 5.809a.408.408 0 0 1-.39.289H12.179a.408.408 0 0 1-.389-.289l-1.742-5.808a2.826 2.826 0 0 0-2.725-2.028H2.844A2.847 2.847 0 0 0 0 25.633v8.938a4.472 4.472 0 0 0 4.47 4.468h30.06A4.472 4.472 0 0 0 39 34.571v-8.938a2.847 2.847 0 0 0-2.844-2.844z"/></g></g></g></svg>