<svg xmlns="http://www.w3.org/2000/svg" width="24" height="27" viewBox="0 0 24 27"><g><g><g><g><path fill="#4caf50" d="M2.502 8.947c-.934 0-1.69.756-1.69 1.69v7.887a1.69 1.69 0 1 0 3.38 0v-7.887a1.69 1.69 0 0 0-1.69-1.69z"/></g><g><path fill="#4caf50" d="M21.656 8.947a1.69 1.69 0 0 0-1.69 1.69v7.887a1.69 1.69 0 0 0 3.38 0v-7.887a1.69 1.69 0 0 0-1.69-1.69z"/></g><g><path fill="#4caf50" d="M18.276 8.947H5.882a.563.563 0 0 0-.563.563v9.014a2.814 2.814 0 0 0 2.253 2.76v4a1.69 1.69 0 0 0 3.38 0V21.34h2.254v3.943a1.69 1.69 0 1 0 3.38 0v-4a2.814 2.814 0 0 0 2.253-2.76V9.51a.563.563 0 0 0-.563-.563z"/></g><g><path fill="#4caf50" d="M16.175 2.268L17.548.895a.563.563 0 1 0-.783-.81l-.014.014-1.6 1.6a7.704 7.704 0 0 0-6.143 0L7.408.097a.563.563 0 1 0-.797.797l1.372 1.374a5.944 5.944 0 0 0-2.664 4.99c0 .31.252.562.563.562h12.394a.563.563 0 0 0 .563-.563 5.942 5.942 0 0 0-2.664-4.989z"/></g></g><g><g><path fill="#fafafa" d="M8.699 5.003a.563.563 0 1 1 1.126 0 .563.563 0 0 1-1.126 0z"/></g><g><path fill="#fafafa" d="M14.333 5.003a.563.563 0 1 1 1.126 0 .563.563 0 0 1-1.126 0z"/></g></g></g></g></svg>