<svg xmlns="http://www.w3.org/2000/svg" width="28" height="28" viewBox="0 0 56 56"><g><g><g><path fill="#fff" d="M27.959 53.97c-14.337 0-26-11.665-26-26 0-14.337 11.663-26 26-26s26 11.663 26 26c0 14.335-11.663 26-26 26zm0-54c-15.44 0-28 12.56-28 28 0 15.438 12.56 28 28 28s28-12.562 28-28c0-15.44-12.56-28-28-28z"/></g><g><path fill="#fff" d="M39.959 15.97h-24a1 1 0 1 0 0 2h24a1 1 0 0 0 0-2z"/></g><g><path fill="#fff" d="M39.959 26.97h-24a1 1 0 1 0 0 2h24a1 1 0 0 0 0-2z"/></g><g><path fill="#fff" d="M39.959 37.97h-24a1 1 0 1 0 0 2h24a1 1 0 0 0 0-2z"/></g></g></g></svg>