<svg xmlns="http://www.w3.org/2000/svg" width="41" height="40" viewBox="0 0 41 40"><defs><clipPath id="jlrla"><path fill="#fff" d="M.22 8.731C.22 4.366 4.587 0 8.953 0H31.49c4.365 0 8.73 4.366 8.73 8.731V31.27c0 4.365-4.365 8.731-8.73 8.731H8.952C4.586 40 .22 35.634.22 31.269z"/></clipPath></defs><g><g><g><path fill="#d2eef9" d="M.22 8.731C.22 4.366 4.587 0 8.953 0H31.49c4.365 0 8.73 4.366 8.73 8.731V31.27c0 4.365-4.365 8.731-8.73 8.731H8.952C4.586 40 .22 35.634.22 31.269z"/></g><g><path fill="#fff" d="M21.978 14.73h2.342v-3.513h-2.697c-3.819 0-3.728 3.078-3.728 3.537v2.318h-1.773v3.514h1.773v8.197h3.497v-8.197h2.342l.586-3.514h-2.928v-1.756c0-.385.22-.586.586-.586z"/></g><g><path fill="#4469b0" d="M.22 8.731C.22 4.366 4.587 0 8.953 0H31.49c4.365 0 8.73 4.366 8.73 8.731V31.27c0 4.365-4.365 8.731-8.73 8.731H8.952C4.586 40 .22 35.634.22 31.269z"/><path fill="none" stroke="#4469b0" stroke-miterlimit="50" stroke-width="2" d="M.22 8.731C.22 4.366 4.587 0 8.953 0H31.49c4.365 0 8.73 4.366 8.73 8.731V31.27c0 4.365-4.365 8.731-8.73 8.731H8.952C4.586 40 .22 35.634.22 31.269z" clip-path="url(&quot;#jlrla&quot;)"/></g><g><path fill="#fff" d="M21.978 14.73h2.342v-3.513h-2.697c-3.819 0-3.728 3.078-3.728 3.537v2.318h-1.773v3.514h1.773v8.197h3.497v-8.197h2.342l.586-3.514h-2.928v-1.756c0-.385.22-.586.586-.586z"/></g></g></g></svg>