<svg xmlns="http://www.w3.org/2000/svg" width="22" height="25.5" viewBox="0 0 44 51"><g><g><g><path fill="#b3b3b3" d="M20.155 19.395a.5.5 0 0 1 .5-.501h4.219a.5.5 0 1 1 0 1h-4.219a.5.5 0 0 1-.5-.5zm6.126 4.898a.5.5 0 0 1-.354-.854l7.584-7.584h-6.277a.5.5 0 0 1 0-1.001h7.485a.5.5 0 0 1 .353.854l-7.583 7.585h7.23a.5.5 0 1 1 0 1H26.28zm-13.254-3.815h4.006l-2.003-4.006zm-2.663 3.09l4.219-8.44a.5.5 0 0 1 .895 0l2.824 5.651.003.006 1.392 2.782a.502.502 0 0 1-.447.725.5.5 0 0 1-.448-.277l-1.268-2.536h-5.007l-1.268 2.536a.5.5 0 0 1-.895-.447zM42.12 5.506l-2.28-.682v6.5l2.28-.682zm0 7.842l-2.28-.682v6.498l2.28-.68zm0 7.841l-2.28-.681v6.498l2.28-.68zm0 7.842l-2.28-.682v6.499l2.28-.681zm0 7.842l-2.28-.682v6.498l2.28-.68zm-3.28 10.84H6.336a3.502 3.502 0 0 1-3.498-3.498 3.502 3.502 0 0 1 3.498-3.498H38.84v-1.04H5.49c-.558 0-1.22.25-1.864.707a.497.497 0 0 1-.697-.12.498.498 0 0 1 .119-.696c.811-.575 1.679-.892 2.442-.892h.168v-1.54a.5.5 0 0 1 1.001 0v1.54h32.18V2H6.66v31.295a.5.5 0 0 1-1 0V2h-.447a3.522 3.522 0 0 0-3.518 3.517v38.698C1.695 48.769 5.415 49 6.16 49h32.68zM6.336 41.719a2.5 2.5 0 0 0-2.498 2.497 2.501 2.501 0 0 0 2.498 2.498H38.84v-4.995zm36.427-30.224l-1.676.501 1.677.501a.5.5 0 0 1 .356.479v5.881c0 .221-.145.416-.357.48l-1.676.5 1.677.5c.21.065.356.26.356.481V26.7a.5.5 0 0 1-.357.479l-1.676.5 1.677.502c.21.063.356.259.356.48v5.88a.5.5 0 0 1-.357.48l-1.676.5 1.677.502a.5.5 0 0 1 .356.479v5.88c0 .222-.145.417-.357.48l-2.923.873V49.5a.5.5 0 0 1-.5.5H6.16C3.64 50 .695 48.485.695 44.216V5.518A4.523 4.523 0 0 1 5.213 1H39.34a.5.5 0 0 1 .5.5v2.281l2.924.874a.5.5 0 0 1 .357.479v5.88a.502.502 0 0 1-.358.481zM35.552 45.23a.5.5 0 0 1-.5.5H5.587a.5.5 0 0 1 0-1.001h29.465a.5.5 0 0 1 .5.501zM5.587 42.878h29.465a.5.5 0 1 1 0 1H5.587a.5.5 0 1 1 0-1z"/><path fill="none" stroke="#b3b3b3" stroke-miterlimit="50" stroke-width=".4" d="M20.155 19.395a.5.5 0 0 1 .5-.501h4.219a.5.5 0 1 1 0 1h-4.219a.5.5 0 0 1-.5-.5zm6.126 4.898a.5.5 0 0 1-.354-.854l7.584-7.584h-6.277a.5.5 0 0 1 0-1.001h7.485a.5.5 0 0 1 .353.854l-7.583 7.585h7.23a.5.5 0 1 1 0 1H26.28zm-13.254-3.815h4.006l-2.003-4.006zm-2.663 3.09l4.219-8.44a.5.5 0 0 1 .895 0l2.824 5.651.003.006 1.392 2.782a.502.502 0 0 1-.447.725.5.5 0 0 1-.448-.277l-1.268-2.536h-5.007l-1.268 2.536a.5.5 0 0 1-.895-.447zM42.12 5.506l-2.28-.682v6.5l2.28-.682zm0 7.842l-2.28-.682v6.498l2.28-.68zm0 7.841l-2.28-.681v6.498l2.28-.68zm0 7.842l-2.28-.682v6.499l2.28-.681zm0 7.842l-2.28-.682v6.498l2.28-.68zm-3.28 10.84H6.336a3.502 3.502 0 0 1-3.498-3.498 3.502 3.502 0 0 1 3.498-3.498H38.84v-1.04H5.49c-.558 0-1.22.25-1.864.707a.497.497 0 0 1-.697-.12.498.498 0 0 1 .119-.696c.811-.575 1.679-.892 2.442-.892h.168v-1.54a.5.5 0 0 1 1.001 0v1.54h32.18V2H6.66v31.295a.5.5 0 0 1-1 0V2h-.447a3.522 3.522 0 0 0-3.518 3.517v38.698C1.695 48.769 5.415 49 6.16 49h32.68zM6.336 41.719a2.5 2.5 0 0 0-2.498 2.497 2.501 2.501 0 0 0 2.498 2.498H38.84v-4.995zm36.427-30.224l-1.676.501 1.677.501a.5.5 0 0 1 .356.479v5.881c0 .221-.145.416-.357.48l-1.676.5 1.677.5c.21.065.356.26.356.481V26.7a.5.5 0 0 1-.357.479l-1.676.5 1.677.502c.21.063.356.259.356.48v5.88a.5.5 0 0 1-.357.48l-1.676.5 1.677.502a.5.5 0 0 1 .356.479v5.88c0 .222-.145.417-.357.48l-2.923.873V49.5a.5.5 0 0 1-.5.5H6.16C3.64 50 .695 48.485.695 44.216V5.518A4.523 4.523 0 0 1 5.213 1H39.34a.5.5 0 0 1 .5.5v2.281l2.924.874a.5.5 0 0 1 .357.479v5.88a.502.502 0 0 1-.358.481zM35.552 45.23a.5.5 0 0 1-.5.5H5.587a.5.5 0 0 1 0-1.001h29.465a.5.5 0 0 1 .5.501zM5.587 42.878h29.465a.5.5 0 1 1 0 1H5.587a.5.5 0 1 1 0-1z"/></g></g></g></svg>