<svg xmlns="http://www.w3.org/2000/svg" width="41" height="41" viewBox="0 0 41 41"><defs><linearGradient id="7my6a" x1="20.52" x2="20.52" y1="-15.94" y2="93.79" gradientUnits="userSpaceOnUse"><stop offset="0" stop-color="#ffcc00"/><stop offset="1" stop-color="#ff9900"/></linearGradient><linearGradient id="7my6b" x1="12.34" x2="12.34" y1="48.73" y2="4.05" gradientUnits="userSpaceOnUse"><stop offset="0" stop-color="#2a2a2a"/><stop offset="1" stop-color="#545454"/></linearGradient><linearGradient id="7my6c" x1="28.69" x2="28.69" y1="48.73" y2="4.05" gradientUnits="userSpaceOnUse"><stop offset="0" stop-color="#2a2a2a"/><stop offset="1" stop-color="#545454"/></linearGradient><linearGradient id="7my6d" x1="20.51" x2="20.51" y1="9.7" y2="66.21" gradientUnits="userSpaceOnUse"><stop offset="0" stop-color="#151515"/><stop offset="1" stop-color="#2e2e2e"/></linearGradient></defs><g><g><g><path fill="url(#7my6a)" d="M40.622 20.71c0-11.108-9-20.106-20.106-20.106C9.41.604.409 9.602.409 20.71c0 11.106 9.001 20.107 20.107 20.107 11.105 0 20.106-9.001 20.106-20.107z"/></g><g><g><g><g><path fill="url(#7my6b)" d="M14.845 16.81a.753.753 0 0 1-.75-.755A1.76 1.76 0 0 0 12.34 14.3c-.969 0-1.755.79-1.755 1.755a.752.752 0 1 1-1.503 0 3.258 3.258 0 0 1 6.516 0 .755.755 0 0 1-.753.754z"/></g></g><g><g><path fill="url(#7my6c)" d="M31.196 16.81a.755.755 0 0 1-.753-.755c0-.965-.787-1.755-1.752-1.755-.97 0-1.758.79-1.758 1.755a.75.75 0 1 1-1.5 0 3.258 3.258 0 0 1 6.516 0 .755.755 0 0 1-.753.754z"/></g></g></g></g><g><g><path fill="url(#7my6d)" d="M31.126 24.732c-.624 6.071-5.91 9.237-10.61 9.237-4.702 0-9.987-3.166-10.614-9.237z"/></g></g></g></g></svg>