<svg xmlns="http://www.w3.org/2000/svg" width="27" height="26" viewBox="0 0 27 26"><g><g></g><g><g><path fill="#2693ff" d="M20.96 14.692c.341-1.42.528-2.873.559-4.333h3.889a9.055 9.055 0 0 1-1.337 4.333zm.101 3.003a9.166 9.166 0 0 1-1.353.68 21.15 21.15 0 0 0 1.026-2.816h2.731a9.196 9.196 0 0 1-2.404 2.136zM19.708 1.477a9.073 9.073 0 0 1 3.759 2.815h-2.733a21.174 21.174 0 0 0-1.026-2.815zm-2.955 2.815V.837c.616.029 1.226.12 1.823.27.507 1.025.927 2.09 1.255 3.185zm4.766 5.2a20.474 20.474 0 0 0-.558-4.333h3.11a9.06 9.06 0 0 1 1.337 4.333zm-5.632-5.2h-3.076c.328-1.095.747-2.16 1.254-3.184a9.125 9.125 0 0 1 1.822-.271zm-3.978 0H9.173a9.067 9.067 0 0 1 3.761-2.816c-.41.913-.75 1.855-1.025 2.816zm12.765.197A9.973 9.973 0 1 0 6.76 7.098l.831.245a9.016 9.016 0 0 1 .978-2.184h3.114a20.596 20.596 0 0 0-.467 2.779l.863.084c.095-.965.26-1.922.495-2.863h3.313V9.33h.866V5.16h3.315c.355 1.418.55 2.872.583 4.333h-3.03v.867h3.03a19.605 19.605 0 0 1-.583 4.333h-2.502v.867h2.265a20.323 20.323 0 0 1-1.255 3.185c-.468.119-.946.201-1.427.244l.078.863c5.482-.5 9.52-5.352 9.018-10.834a9.978 9.978 0 0 0-1.57-4.528z"/></g><g><path fill="#2693ff" d="M15.887 15.098a9.93 9.93 0 0 1-5.104 8.675L8.52 25.03l-2.262-1.257a9.927 9.927 0 0 1-5.104-8.675v-3.872h.043a10.735 10.735 0 0 0 4.129-.822A10.715 10.715 0 0 0 8.52 8.36a10.79 10.79 0 0 0 7.324 2.866h.043zm.433-4.74h-.476a9.858 9.858 0 0 1-7.017-2.905.432.432 0 0 0-.613 0 9.858 9.858 0 0 1-7.017 2.906H.721a.433.433 0 0 0-.434.433v4.306a10.794 10.794 0 0 0 5.55 9.432l2.473 1.374c.13.073.29.073.421 0l2.473-1.374a10.795 10.795 0 0 0 5.549-9.432v-4.306a.433.433 0 0 0-.433-.433z"/></g><g><path fill="#2693ff" d="M14.631 12.03a11.57 11.57 0 0 1-5.848-2.316.432.432 0 0 0-.526 0A11.572 11.572 0 0 1 2.41 12.03a.433.433 0 0 0-.389.43v2.638a9.06 9.06 0 0 0 4.658 7.917l1.631.906c.13.073.29.073.42 0l1.632-.906a9.061 9.061 0 0 0 4.658-7.917V12.46a.433.433 0 0 0-.389-.431z"/></g><g><path fill="#2693ff" d="M14.154 15.098a8.198 8.198 0 0 1-4.213 7.16l-1.421.79-1.42-.79a8.197 8.197 0 0 1-4.213-7.16v-2.252a12.427 12.427 0 0 0 5.633-2.248 12.435 12.435 0 0 0 5.634 2.248z"/></g><g><path fill="#2693ff" d="M8.087 11.659h.867v.867h-.867z"/></g><g><path fill="#2693ff" d="M8.087 21.192h.867v.867h-.867z"/></g><g><path fill="#2693ff" d="M3.754 13.392h.866v.867h-.866z"/></g><g><path fill="#2693ff" d="M4.62 17.725h.867v.867H4.62z"/></g><g><path fill="#2693ff" d="M11.554 17.725h.866v.867h-.866z"/></g><g><path fill="#2693ff" d="M12.42 13.392h.867v.867h-.867z"/></g></g></g></svg>