<svg xmlns="http://www.w3.org/2000/svg" width="35" height="28" viewBox="0 0 35 28"><g><g><g><path fill="#0097e0" d="M34.656 21.228c-.68.858-2.345 1.47-2.345 1.47l-12.39 4.45v-3.282l9.118-3.249c1.035-.37 1.194-.894.353-1.169-.84-.276-2.36-.197-3.396.175l-6.075 2.14v-3.406l.35-.119s1.756-.621 4.224-.895c2.469-.272 5.492.037 7.865.937 2.674.845 2.975 2.091 2.296 2.948z"/></g><g><path fill="#39c4b1" d="M2.776 23.523C.03 22.75-.426 21.139.826 20.21c1.156-.857 3.123-1.502 3.123-1.502l8.127-2.89v3.295l-5.849 2.093c-1.033.37-1.192.896-.352 1.17.84.276 2.36.198 3.396-.174l2.805-1.018v2.948c-.178.031-.376.063-.559.094a18.397 18.397 0 0 1-8.741-.704z"/></g><g><path fill="#f33a40" d="M18.846 2.13C17.03 1.58 14.841.979 13.176.67v25.062l5.67 1.799V6.512z"/></g><g><path fill="#ffba0c" d="M21.395 2.96v12.806c3.391 1.471 6.02-.255 6.02-4.633 0-4.485-1.542-6.548-6.02-8.172z"/></g></g></g></svg>