<svg xmlns="http://www.w3.org/2000/svg" width="54" height="40" viewBox="0 0 54 40"><defs><linearGradient id="8cima" x1="1503.9" x2="1504.43" y1="-2397.65" y2="-2397.65" gradientUnits="userSpaceOnUse"><stop offset="0" stop-color="#c8c8c8"/><stop offset="1" stop-color="#cdcdcd"/></linearGradient><linearGradient id="8cimb" x1="1503.98" x2="1504.6" y1="-2398.04" y2="-2398.04" gradientUnits="userSpaceOnUse"><stop offset="0" stop-color="#d9d9d9"/><stop offset="1" stop-color="#e2e2e2"/></linearGradient></defs><g><g><g><path fill="#eaeaea" d="M50.633 40H3.968a3.334 3.334 0 0 1-3.334-3.333V3.334A3.334 3.334 0 0 1 3.968.001h46.665a3.333 3.333 0 0 1 3.334 3.333v33.333A3.333 3.333 0 0 1 50.633 40z"/></g><g><path fill="#d54c3f" d="M7.3 40H3.969a3.334 3.334 0 0 1-3.334-3.333V3.334a3.334 3.334 0 0 1 6.667 0z"/></g><g><path fill="#b63524" d="M47.3 40h3.333a3.333 3.333 0 0 0 3.334-3.333V3.334a3.333 3.333 0 0 0-6.667 0z"/></g><g><path fill="#de5145" d="M52.542 6.067l.02-.014A3.334 3.334 0 0 0 48.724.601L27.303 16.197l-.002.001-.003-.001L5.877.6a3.334 3.334 0 0 0-3.818 5.466l-.089-.065L27.3 24.445"/></g><g><path fill="#efefef" d="M50.633.001c-.71 0-1.368.222-1.908.6L27.303 16.197l-.002.001-.003-.001L5.877.6a3.319 3.319 0 0 0-1.91-.6z"/></g><g><path fill="#c64132" d="M7.302 11.32L1.684 5.757l-.002.005c.118.111.243.213.377.306l-.089-.065 5.333 3.883-.001 1.476"/></g><g><path fill="#e3e3e3" d="M23.598 27.324L7.301 40V11.182L23.596 27.32"/></g><g><path fill="url(#8cima)" d="M23.598 27.324l3.703-2.879-20-14.56v1.297L23.596 27.32z"/></g><g><path fill="url(#8cimb)" d="M36.257 40H47.3V9.884l-20 14.561-3.705 2.874z"/></g></g></g></svg>