<svg xmlns="http://www.w3.org/2000/svg" width="22" height="25" viewBox="0 0 22 25"><defs><linearGradient id="wobza" x1="-718.15" x2="-718.08" y1="3870.58" y2="3870.58" gradientUnits="userSpaceOnUse"><stop offset="0" stop-color="#008690"/><stop offset="1" stop-color="#00568f"/></linearGradient><linearGradient id="wobzb" x1="-862.19" x2="-862.1" y1="3135.69" y2="3135.69" gradientUnits="userSpaceOnUse"><stop offset="0" stop-color="#f2f2f2"/><stop offset=".27" stop-color="#f2f2f2"/><stop offset=".81" stop-color="#acacac"/><stop offset="1" stop-color="#acacac"/></linearGradient><linearGradient id="wobzc" x1="-861.56" x2="-861.47" y1="3107.71" y2="3107.71" gradientUnits="userSpaceOnUse"><stop offset="0" stop-color="#004e53"/><stop offset="1" stop-color="#003253"/></linearGradient><linearGradient id="wobzd" x1="-861.15" x2="-861.06" y1="3106.91" y2="3106.91" gradientUnits="userSpaceOnUse"><stop offset="0" stop-color="#003c41"/><stop offset="1" stop-color="#002740"/></linearGradient><linearGradient id="wobze" x1="12.38" x2="11.37" y1="14.8" y2="13.5" gradientUnits="userSpaceOnUse"><stop offset=".1" stop-color="#9b9b9b"/><stop offset=".15" stop-color="#a7a7a7"/><stop offset=".3" stop-color="#c7c7c7"/><stop offset=".45" stop-color="#dfdfdf"/><stop offset=".62" stop-color="#f1f1f1"/><stop offset=".79" stop-color="#fbfbfb"/><stop offset="1" stop-color="#fff"/></linearGradient></defs><g><g><g><path fill="#47cf86" d="M18.308 13.859c-.47 2-1.557 3.715-3.327 5.243-1.271 1.099-2.69 1.918-3.894 2.517-3.39-1.685-6.357-4.074-7.22-7.76-.735-3.13-.729-6.456-.643-8.337 1.553-.722 4.422-1.784 7.863-1.784 3.438 0 6.308 1.062 7.865 1.787.088 1.874.094 5.185-.644 8.334"/></g><g><path fill="#fff" d="M11.087.729v3.009c3.438 0 6.308 1.062 7.865 1.787.023.49.04 1.079.04 1.738 0 .909-.033 1.951-.131 3.051a25.64 25.64 0 0 1-.553 3.545c-.019.08-.039.162-.06.242-.43 1.636-1.286 3.08-2.602 4.387-1.074 1.071-2.373 1.963-3.771 2.722l-.001.001-.023.012-.017.009c-.22.119-.436.231-.645.336l-.006.003-.048.024-.014.007-.01.005-.024.012v3.324c3.483-1.551 8.765-4.485 10.15-10.397.608-2.588.763-5.253.763-7.3 0-2.136-.169-3.6-.169-3.6S17.306.73 11.087.73"/></g><g><path fill="#282830" d="M18.248 14.1c-.43 1.637-1.286 3.081-2.602 4.388 1.216-1.212 2.145-2.653 2.602-4.387M11.834 21.233v-.001m0 0l-.02.011v-.001zm-.023.013l-.108.058-.01.004.12-.064zm-.117.062l-.028.015.026-.014zm-.075.04l-.002.001-.032.017-.01.005-.1.052.19-.1zm-.221.115l-.047.024-.027.014-.055.028-.004.002-.066.033-.01.005a25.138 25.138 0 0 0 .209-.106zm.04-.021l.038-.02-.038.02zm-.255.13l-.005.003.005-.003m-.005.003l-.043.021.03-.015zm-.057.028"/></g><g><path fill="url(#wobza)" d="M11.111 21.607"/></g><g><path fill="#47cf86" d="M11.087 3.738c3.438 0 6.308 1.062 7.865 1.787-1.557-.725-4.427-1.787-7.865-1.787m0 .456c3.221 0 5.948.973 7.42 1.63.071 1.781.057 4.946-.643 7.93-.7 2.985-2.917 5.392-6.777 7.355V4.194m7.865 1.331v0m.012 3.17zm.028-1.432zM11.398 21.462l-.047.024.047-.024M11.087 21.619"/></g><g opacity=".11"><path fill="url(#wobzb)" d="M11.203 6.955c-1.821 0-3.46.368-4.728.78v4.955a4.728 4.728 0 0 0 9.455 0V7.736c-1.267-.413-2.908-.781-4.727-.781z"/></g><g><path fill="#34c171" d="M11.087 3.738c-3.441 0-6.31 1.062-7.863 1.784-.022.489-.039 1.075-.039 1.73 0 1.865.137 4.29.681 6.607.864 3.686 3.83 6.075 7.22 7.76v-.51c-3.859-1.963-6.077-4.37-6.776-7.355-.696-2.966-.71-6.142-.642-7.933 1.472-.656 4.197-1.627 7.419-1.627v-.456"/></g><g><path fill="url(#wobzc)" d="M18.86 10.314a25.64 25.64 0 0 0 0 0m-.557 3.567l-.002.008.007-.03zm-.002.008l-.006.023.003-.01v-.005zm-.034.138zm.028-.115zm-2.649 4.576c-.951.948-2.079 1.756-3.295 2.456 1.21-.696 2.332-1.5 3.279-2.44l.016-.016m-3.769 2.721l-.002.001a22.203 22.203 0 0 0 .002-.001zm-.003.002l-.023.012.001-.001.021-.01h.001M11.189 21.567l-.006.003.005-.003h.001"/></g><g><path fill="#121216" d="M18.298000000000002 13.902000000000001v0m0 .001a8.356 8.356 0 0 1-.05.198c-.457 1.734-1.386 3.175-2.602 4.387l-.016.015c1.27-1.26 2.228-2.77 2.668-4.6zm-6.421 7.306l-.002.001.002-.001m-.002.001l-.001.001h-.001zm-.023.012v.001l-.018.01-.02.009.038-.02M11.575 21.37l-.177.092.177-.092m-.376.193l-.01.005h-.001l.011-.005m-.016.008"/></g><g><path fill="url(#wobzd)" d="M15.629999999999999 18.503c-1.07 1.063-2.363 1.951-3.753 2.706 1.008-.548 2.102-1.241 3.104-2.107.228-.196.444-.396.649-.599M11.11 21.607"/></g><g><path fill="#34c171" d="M11.087 3.738v.456c3.221 0 5.948.973 7.42 1.63.071 1.781.057 4.946-.643 7.93-.7 2.985-2.917 5.392-6.777 7.355v.51l.024-.012.01-.005.014-.007.03-.015.018-.009.005-.003.011-.005.066-.033.004-.002.055-.028.027-.014.047-.024.177-.092.01-.005.032-.017h.002l.073-.04.011-.005.108-.058.004-.003.037-.02.021-.01.004-.003c1.008-.548 2.102-1.241 3.104-2.107.228-.196.444-.396.649-.599 1.27-1.261 2.229-2.77 2.668-4.601v-.005l.005-.016.005-.022a25.64 25.64 0 0 0 .553-3.545c.169-1.896.146-3.622.091-4.789-1.557-.725-4.427-1.787-7.865-1.787"/></g><g><path fill="#fff" d="M13.467 13.013a2.144 2.144 0 0 1-1.41.525h-.861V8.316h-1.84v6.658h4.885v-.008c0-.749-.292-1.437-.774-1.953z"/></g><g><g><path fill="url(#wobze)" d="M13.466 13.014a2.148 2.148 0 0 1-1.41.524h-.737l-1.291 1.436h1.62c1.747-.33 1.837-1.683 1.818-1.96z"/></g></g><g><path fill="#fff" d="M3.866 13.859c-.544-2.317-.68-4.742-.68-6.607 0-.655.016-1.241.038-1.73 1.553-.722 4.422-1.784 7.863-1.784V.729C4.867.729.343 3.647.343 3.647s-.648 5.609.593 10.899c1.386 5.912 6.668 8.846 10.15 10.397v-3.324c-3.39-1.685-6.356-4.074-7.22-7.76z"/></g></g></g></svg>