<svg xmlns="http://www.w3.org/2000/svg" width="61" height="73" viewBox="0 0 61 73"><defs><linearGradient id="gqo6a" x1="27.03" x2="13.63" y1="9.4" y2="22.81" gradientUnits="userSpaceOnUse"><stop offset="0" stop-color="#00ddec"/><stop offset="1" stop-color="#008dea"/></linearGradient></defs><g><g><g><path fill="#7a4c08" d="M60.997 39.635l-30.48 17.974L.037 39.635c0-.015 0-.035.005-.05.025-.114 1.708-1.518 4.273-3.602.025-.02.045-.04.07-.06C12.8 29.09 30.517 15.096 30.517 15.096S48.233 29.09 56.65 35.923c2.605 2.114 4.317 3.543 4.342 3.662a.174.174 0 0 1 .005.05z"/></g><g><path fill="#f2f2f2" d="M43.052.21H10.166a5.108 5.108 0 0 0-5.107 5.107V55.04a5.107 5.107 0 0 0 5.107 5.107h41.207a5.107 5.107 0 0 0 5.108-5.107V13.639z"/></g><g><path fill="#ccc" d="M43.052 8.531a5.108 5.108 0 0 0 5.107 5.108h8.322L43.051.21z"/></g><g><path fill="url(#gqo6a)" d="M12.838 11.312c0-1.349 1.348-2.697 2.697-2.697h9.59c1.349 0 2.697 1.348 2.697 2.697v9.59c0 1.349-1.348 2.697-2.697 2.697h-9.59c-1.349 0-2.697-1.348-2.697-2.697z"/></g><g><path fill="#ccc" d="M41.545 27.763H14.322a1.465 1.465 0 1 0 0 2.932h27.223a1.465 1.465 0 1 0 0-2.932z"/></g><g><path fill="#ccc" d="M41.545 35.066H14.322a1.465 1.465 0 1 0 0 2.931h27.223a1.465 1.465 0 1 0 0-2.931z"/></g><g><path fill="#ccc" d="M29.18 42.149H14.323a1.465 1.465 0 1 0 0 2.932h14.859a1.467 1.467 0 0 0 0-2.932z"/></g><g><g><path fill="#ffb031" d="M61 39.634v29.241a3.723 3.723 0 0 1-3.714 3.714H3.746A3.715 3.715 0 0 1 .04 68.875V39.634L30.52 57.605z"/></g><g><path fill="#ff9433" d="M59.97 71.426L40.352 51.808l-9.832 5.797-9.835-5.799L1.066 71.425a3.68 3.68 0 0 0 2.68 1.164h53.54a3.698 3.698 0 0 0 2.684-1.163z"/></g></g></g></g></svg>