<svg xmlns="http://www.w3.org/2000/svg" width="33" height="37" viewBox="0 0 33 37"><g><g><g><path fill="#999" d="M22.067 14.526v9.111H11.133v-9.111zm-7.897-4.252c0-1.34 1.09-2.43 2.43-2.43s2.43 1.09 2.43 2.43v3.037h-4.86zm6.074 0A3.647 3.647 0 0 0 16.6 6.63a3.647 3.647 0 0 0-3.644 3.644v3.037H9.92v11.541H23.28V13.311h-3.037z"/></g><g><path fill="#999" d="M15.993 20.514v1.301a.607.607 0 1 0 1.214 0v-1.301a2.428 2.428 0 0 0 1.823-2.344c0-1.34-1.09-2.429-2.43-2.429a2.432 2.432 0 0 0-2.43 2.429c0 1.13.778 2.072 1.823 2.344z"/></g><g><path fill="#999" d="M16.6.556C7.557.556.2 7.912.2 16.956c0 8.569 6.61 15.621 14.997 16.336l-2.671 2.671a.608.608 0 0 0 .859.859l3.644-3.644a.61.61 0 0 0 0-.86l-3.644-3.644a.608.608 0 0 0-.86.859l2.53 2.529c-7.65-.776-13.64-7.254-13.64-15.106C1.415 8.582 8.227 1.77 16.6 1.77c8.373 0 15.185 6.812 15.185 15.186 0 4.028-1.56 7.824-4.396 10.686a.609.609 0 0 0 .863.855A16.303 16.303 0 0 0 33 16.956c0-9.044-7.357-16.4-16.4-16.4z"/></g></g></g></svg>