<svg xmlns="http://www.w3.org/2000/svg" width="27" height="27" viewBox="0 0 27 27"><g><g><path fill="#7e7e7e" d="M1.16 13.269c0-6.687 5.44-12.127 12.127-12.127s12.127 5.44 12.127 12.127a12.1 12.1 0 0 1-4.084 9.066 3.52 3.52 0 0 0-.425-.256l-4.027-2.013a1.056 1.056 0 0 1-.586-.948v-1.406a7.5 7.5 0 0 0 .294-.388 9.731 9.731 0 0 0 1.244-2.437c.602-.286.991-.886.991-1.564v-1.686a1.73 1.73 0 0 0-.421-1.126v-2.22c.024-.247.112-1.64-.896-2.789-.876-1-2.295-1.507-4.217-1.507-1.922 0-3.34.507-4.217 1.507-1.007 1.149-.92 2.542-.895 2.789v2.219c-.27.314-.422.714-.422 1.127v1.686c0 .523.235 1.012.637 1.34.386 1.51 1.178 2.652 1.471 3.04v1.376c0 .388-.211.745-.552.931l-3.76 2.051c-.121.065-.239.141-.358.226a12.094 12.094 0 0 1-4.031-9.018zm25.205 0c0-7.211-5.867-13.078-13.078-13.078C6.076.191.21 6.058.21 13.269c0 3.809 1.638 7.242 4.245 9.634l-.012.01.424.358c.027.024.057.043.085.066.225.186.459.364.697.536.077.055.154.111.232.165.254.175.515.341.78.498l.176.101c.292.166.589.323.894.466l.068.031c.993.462 2.054.801 3.163 1.001l.087.016a12.878 12.878 0 0 0 1.174.148c.351.029.706.048 1.065.048a13.212 13.212 0 0 0 1.19-.057c.349-.032.694-.078 1.035-.136l.09-.016a12.958 12.958 0 0 0 4.297-1.593c.255-.15.507-.308.75-.475.089-.06.176-.123.263-.186.208-.15.413-.305.613-.468.044-.035.091-.066.135-.103l.435-.363-.013-.011a13.044 13.044 0 0 0 4.283-9.67z"/></g></g></svg>