<svg xmlns="http://www.w3.org/2000/svg" width="41" height="41" viewBox="0 0 41 41"><defs><linearGradient id="8a88a" x1="20.89" x2="20.89" y1="-10.36" y2="75.05" gradientUnits="userSpaceOnUse"><stop offset="0" stop-color="#ffcc00"/><stop offset="1" stop-color="#ff9900"/></linearGradient><linearGradient id="8a88b" x1="-11815.38" x2="-11815.38" y1="-9.39" y2="81.92" gradientUnits="userSpaceOnUse"><stop offset="0" stop-color="#2a2a2a"/><stop offset="1" stop-color="#545454"/></linearGradient><linearGradient id="8a88c" x1="20.89" x2="20.89" y1="13.12" y2="61.12" gradientUnits="userSpaceOnUse"><stop offset="0" stop-color="#151515"/><stop offset="1" stop-color="#2e2e2e"/></linearGradient><linearGradient id="8a88d" x1="12.72" x2="12.72" y1="-9.39" y2="81.92" gradientUnits="userSpaceOnUse"><stop offset="0" stop-color="#2a2a2a"/><stop offset="1" stop-color="#545454"/></linearGradient></defs><g><g><g><path fill="url(#8a88a)" d="M41 20.71C41 9.605 31.998.601 20.893.601 9.788.601.783 9.605.783 20.71c0 11.106 9.005 20.11 20.11 20.11C31.998 40.82 41 31.816 41 20.71z"/></g><g><g><path fill="url(#8a88b)" d="M26.56 15.727a2.506 2.506 0 0 1 2.508-2.505 2.504 2.504 0 1 1 0 5.01 2.506 2.506 0 0 1-2.508-2.505z"/></g><g><g><g><path fill="#eaeaea" d="M26.481 15.608l4.472-2.108a.75.75 0 0 0 .362-.998.751.751 0 0 0-1.002-.355l-4.476 2.103a.746.746 0 0 0-.358.996.754.754 0 0 0 1.002.362z"/></g></g></g></g><g><g><g><path fill="url(#8a88c)" d="M20.893 23.749c3.63 0 7.558 2.068 8.043 6.016a.75.75 0 0 1-.657.836.758.758 0 0 1-.836-.657c-.372-3.046-3.657-4.691-6.55-4.691-2.9 0-6.178 1.645-6.556 4.69a.752.752 0 0 1-.836.658.753.753 0 0 1-.654-.836c.485-3.948 4.416-6.016 8.046-6.016z"/></g></g></g><g><g><path fill="url(#8a88d)" d="M15.226 15.727a2.507 2.507 0 0 0-2.508-2.505 2.507 2.507 0 0 0-2.508 2.505 2.508 2.508 0 0 0 5.016 0z"/></g><g><g><g><path fill="#eaeaea" d="M15.306 15.608L10.833 13.5a.747.747 0 1 1 .637-1.353l4.476 2.103a.75.75 0 1 1-.64 1.358z"/></g></g></g></g></g></g></svg>