<svg xmlns="http://www.w3.org/2000/svg" width="131" height="16.33" viewBox="0 0 393 49"><g><g><g><g><path fill="#315881" d="M70.502 1.335c3.026 0 4.568 1.542 4.568 4.568v36.77c0 3.055-1.542 4.568-4.568 4.568H6.096c-1.456 0-2.569-.428-3.397-1.284-.857-.83-1.285-1.97-1.285-3.283V5.904c0-3.027 1.513-4.569 4.682-4.569zm5.539 4.568c0-3.626-1.884-5.425-5.539-5.425H6.096c-1.827 0-3.17.486-4.054 1.485-.999.999-1.485 2.284-1.485 3.94v36.77c0 1.657.486 2.913 1.485 3.94 1.028 1 2.34 1.485 4.054 1.485h64.406c3.655 0 5.539-1.826 5.539-5.424z"/></g><g><path fill="#315881" d="M6.61 3.447c-1.228 0-1.999.2-2.427.63-.371.484-.542 1.283-.542 2.454v7.965h69.316V6.531c0-2.084-1.028-3.084-3.083-3.084z"/></g><g><path fill="#dfa43b" d="M3.64 41.932c0 2.111 1 3.197 2.97 3.197h63.264c2.055 0 3.083-1.085 3.083-3.197v-7.966H3.641z"/></g><g><path fill="#315881" d="M32.99 31.312h-5.225l.742-1.171 3.626-11.591c.057-.285.057-.599.057-.856-.057-.257-.114-.6-.172-.857h5.225l-.857 1.056-3.626 11.705c.058.572.172 1.114.23 1.713zm10.62-15.217c1.712 0 3.282.428 4.796 1.285l-.543 2.77c-1.798-1.086-3.14-1.6-4.054-1.6-1.342 0-1.998.571-1.998 1.685 0 .485.486 1.113 1.37 1.827l2.655 1.912c1.028 1 1.485 1.941 1.485 2.97 0 1.228-.628 2.34-1.912 3.283-1.2 1.028-2.6 1.485-4.255 1.485-1.74 0-3.54-.572-5.396-1.685v-2.655c2.37 1.313 4.083 2.027 5.082 2.027.685 0 1.228-.171 1.713-.543.485-.37.743-.856.743-1.399 0-.571-.486-1.2-1.485-1.913l-2.77-1.912c-.913-.885-1.37-2.055-1.37-3.397 0-1.17.628-2.113 1.913-2.856 1.17-.856 2.484-1.284 4.025-1.284zm11.904 4.253l-2.541 4.882h2.97zm3.398-3.083l1.484 12.962.742 1.084h-4.996l.343-.77c-.057-.83-.17-1.942-.343-3.284h-4.14l-.856 1.6c-.428.97-.628 1.654-.628 2.026l.2.428h-4.026c.2-.229.372-.43.543-.657l7.108-12.96c.057-.172.17-.316.23-.544 0-.056-.058-.142-.23-.313h4.882l-.313.428zm-32.318.628c0-.4-.143-.8-.428-1.056h4.796l-9.364 14.475h-3.912l-.742-11.278c0-.799-.4-1.427-1.17-1.912l-2.684-1.285h7.994l.314 10.62 4.996-8.707c.143-.2.2-.486.2-.857z"/></g></g></g><g><g><g><path fill="#e9b040" d="M152.219 41.826a23.228 23.228 0 0 0 15.77 6.138c13.005 0 23.532-10.608 23.532-23.656 0-13.087-10.527-23.695-23.533-23.695a23.236 23.236 0 0 0-15.77 6.137c-4.755 4.349-7.763 10.608-7.763 17.558a23.603 23.603 0 0 0 7.763 17.518z"/></g><g><path fill="#e9b040" d="M189.043 37.274h.162c.04.04.04.04.04.082 0 .04 0 .08-.04.08h-.162v.123h.121l.081.285h.204l-.162-.325c.081 0 .121-.082.121-.163 0-.08 0-.122-.08-.163-.04-.04-.123-.04-.164-.04h-.284v.69h.163zm.081.813c-.285 0-.57-.285-.57-.61 0-.324.285-.568.57-.568.325 0 .61.244.61.569 0 .324-.285.609-.61.609zm0 .163a.748.748 0 0 0 .772-.773c0-.406-.325-.73-.772-.73a.728.728 0 0 0-.731.73c0 .448.325.773.731.773z"/></g><g><path fill="#cc2131" d="M159.82 21.79c-.082-.855-.245-1.667-.407-2.521h-14.389c.163-.854.407-1.666.65-2.48h13.048a26.919 26.919 0 0 0-.976-2.52h-11.055c.407-.86.854-1.7 1.341-2.52h8.333a21.43 21.43 0 0 0-1.788-2.48h-4.756a23.473 23.473 0 0 1 2.398-2.519c-4.186-3.78-9.714-6.137-15.81-6.137-12.966 0-23.534 10.608-23.534 23.695 0 13.048 10.568 23.656 23.533 23.656 6.097 0 11.624-2.317 15.81-6.138a22.367 22.367 0 0 0 2.36-2.48h-4.757a27.986 27.986 0 0 1-1.789-2.519h8.333c.524-.804.986-1.647 1.382-2.52h-11.056c-.366-.813-.731-1.626-1.016-2.48h13.047c.284-.813.488-1.666.69-2.52.163-.813.325-1.666.407-2.52a25.574 25.574 0 0 0 0-4.998z"/></g><g><path fill="#fff" d="M189.043 29.592h.081c.04 0 .081-.041.081 0 .04 0 .04.04.04.04 0 .042 0 .082-.04.082 0 .04-.04.04-.081.04h-.081v.123h.121l.081.244h.204l-.162-.284c.081-.041.121-.123.121-.163 0-.081 0-.163-.08-.204h-.448v.65h.163zm.081.772a.581.581 0 0 1-.57-.568c0-.325.285-.57.57-.57.325 0 .61.245.61.57 0 .324-.285.568-.61.568zm0 .204a.773.773 0 0 0 .772-.772.747.747 0 0 0-.772-.772c-.406 0-.731.325-.731.772 0 .406.325.772.731.772z"/></g><g><path fill="#1b3771" d="M138.196 23.577c-.772 0-1.26.407-1.26.853 0 .448.122.528 1.22 1.017 1.26.569 1.91 1.381 1.91 2.722 0 2.155-1.178 3.252-4.024 3.252-.325 0-.854-.041-1.463-.082a6.441 6.441 0 0 1-.651-.121l-.487-.082-.04-.041.284-2.235a6.813 6.813 0 0 0 2.317.407c.976 0 1.504-.366 1.504-.975 0-.448-.163-.53-1.179-1.017-1.382-.65-1.91-1.503-1.91-2.682 0-1.788.935-3.333 3.78-3.333.569 0 1.544.122 2.276.204l-.366 2.276a12.066 12.066 0 0 0-1.91-.163zm32.679 7.68l.081-1.014c-.57.77-1.342 1.178-2.682 1.178-1.261 0-2.358-1.057-2.358-2.682 0-2.316 1.747-3.739 4.51-3.739.286 0 .733 0 1.1.041.08-.325.122-.448.122-.65 0-.65-.529-.854-1.748-.854-.692 0-1.545.122-2.114.325l-.325.081-.163.041.366-2.195c1.179-.366 2.033-.528 2.967-.528 2.195 0 3.333 1.016 3.333 2.885 0 .488.08.854-.122 1.91l-.528 3.496-.082.61-.08.488-.04.325v.283zm.203-4.347c-.244-.04-.325-.04-.488-.04-1.464 0-2.195.568-2.195 1.462 0 .61.366 1.017.935 1.017 1.219 0 1.707-1.017 1.748-2.439zm11.746 2.032c1.219 0 2.032-1.341 2.032-3.292 0-1.22-.448-1.91-1.342-1.91-1.178 0-1.99 1.381-1.99 3.292 0 1.26.446 1.91 1.3 1.91zm5.73-9.673l-1.95 11.989h-2.399l.122-.975c-.691.773-1.422 1.098-2.357 1.098-1.87 0-3.13-1.626-3.13-4.064 0-1.098.163-2.073.447-2.886-.325.04-.731.122-1.138.61-.162.243-.812.975-.812.975l-.854 5.242h-2.52l1.544-9.754h2.724l-.163 1.016 1.626.976v.04c.772-1.463 2.032-2.235 3.373-2.235.976 0 1.708.447 2.318 1.382l.568-3.414zm-24.182 2.317c-1.911 0-3.253 1.87-3.252 4.51 0 1.789.895 2.927 2.399 2.927.61 0 1.342-.203 2.154-.65l-.447 2.763c-.935.244-1.545.326-2.236.326-2.764 0-4.552-1.992-4.552-5.162-.004-.626.037-1.25.122-1.87h-.204c-.528 0-.934 0-1.422.61-.162.243-.528.976-.528.976l-.935 5.242h-2.56l1.584-9.754h2.683l-.123 1.016 2.602-1.829.325.081c.569-.65 1.098-1.016 1.504-1.3.772-.448 1.503-.488 2.764-.488.447 0 .854.04 1.179.122l1.015.284c.325.122.407.122.65.244l-.446 2.602c-.894-.447-1.545-.65-2.276-.65zm-31.5 9.672h-2.194l.04-1.015c-.569.77-1.341 1.178-2.682 1.178-1.22 0-2.277-1.097-2.277-2.682 0-.447.082-.853.204-1.26.406-1.504 1.91-2.438 4.227-2.479.284 0 .73 0 1.138.041.08-.326.08-.448.08-.651 0-.65-.528-.854-1.706-.854-.732 0-1.545.122-2.114.326l-.366.081-.162.04.366-2.195c1.178-.366 2.032-.528 2.967-.528 2.195 0 3.373 1.016 3.373 2.886 0 .488.04.854-.122 1.91l-.568 3.496-.082.61-.04.487-.04.326-.042.283zm-2.032-4.348zm-.488-.04c-1.463 0-2.194.568-2.194 1.462 0 .61.365 1.017.934 1.017 1.22 0 1.707-1.017 1.748-2.439-.244-.04-.325-.04-.488-.04zm-8.17 4.388l1.464-9.225-3.292 9.225h-1.748l-.203-9.185-1.545 9.185h-2.48l1.992-11.99h3.7l.08 7.399 2.48-7.398h4.064l-1.992 11.989zm28.41-6.502c0-.813-.446-1.26-1.218-1.26-.814 0-1.382.61-1.626 1.747h2.845zm1.505 6.3a9.553 9.553 0 0 1-2.6.365c-2.765 0-4.35-1.463-4.35-4.348 0-3.374 1.869-5.813 4.47-5.813 2.073 0 3.414 1.382 3.414 3.536 0 .732-.08 1.423-.284 2.398h-5.081c-.04.163-.04.244-.04.326 0 1.138.772 1.706 2.235 1.706.935 0 1.748-.202 2.642-.609zm-7.885.08c-.772.204-1.342.326-1.91.326-1.22 0-1.952-.772-1.952-2.154 0-.284.04-.569.082-.894l.162-.935.122-.772 1.098-6.666h2.438l-.284 1.464h1.544l-.366 2.438h-1.544l-.65 3.983c-.04.204-.04.325-.04.407 0 .528.243.731.852.731.285 0 .529-.04.773-.08l-.325 2.153z"/></g><g><path fill="#fff" d="M180.67 20.691c-.407.772-.732 1.626-.975 2.805h-.163c-1.219 0-1.463 1.016-2.4 6.99h-2.519l1.545-9.754h2.317l-.244 1.504c.773-1.18 1.261-1.585 2.114-1.585h.244zm-9.023 9.796l.04-1.017c-.65.813-1.503 1.18-2.682 1.18-1.382 0-2.317-1.057-2.317-2.643 0-2.397 1.625-3.78 4.471-3.78.285 0 .65.042 1.016.082.08-.325.123-.447.123-.61 0-.65-.448-.894-1.626-.894-.732 0-1.585.082-2.154.244l-.326.122-.244.04.366-2.194c1.26-.366 2.113-.488 3.048-.488 2.195 0 3.333.976 3.333 2.845 0 .488 0 .854-.203 1.951l-.528 3.456-.082.608-.081.488-.04.367v.243zm.244-4.35c-.285 0-.407-.04-.569-.04-1.463 0-2.195.529-2.195 1.504 0 .61.366.975.935.975 1.016 0 1.788-.975 1.829-2.438zm-40.483 4.35l.041-1.017c-.65.813-1.504 1.18-2.683 1.18-1.382 0-2.316-1.057-2.316-2.643 0-2.397 1.625-3.78 4.47-3.78.285 0 .651.042 1.057.082.082-.325.082-.447.082-.61 0-.65-.448-.894-1.626-.894-.732 0-1.545.082-2.114.244l-.366.122-.244.04.366-2.194c1.26-.366 2.114-.488 3.049-.488 2.195 0 3.373.976 3.373 2.845 0 .488-.04.854-.203 1.951l-.57 3.456-.081.608-.04.488-.041.367-.04.243zm.245-4.35c-.244 0-.366-.04-.569-.04-1.423 0-2.154.529-2.154 1.504 0 .61.325.975.894.975 1.056 0 1.788-.975 1.83-2.438zm-6.3 4.35h-2.52l1.463-9.227-3.292 9.227h-1.748l-.203-9.145-1.544 9.145h-2.358l1.992-11.99h3.658l.122 7.438 2.438-7.438h3.983zm25.89-6.016v-.487c0-.813-.447-1.26-1.219-1.26-.813 0-1.382.609-1.626 1.747zm1.423 5.812a8.324 8.324 0 0 1-2.642.407c-2.845 0-4.31-1.504-4.31-4.39 0-3.333 1.871-5.812 4.432-5.812 2.113 0 3.454 1.382 3.454 3.536 0 .732-.081 1.423-.325 2.439h-5.039c-.04.122-.04.204-.04.285 0 1.138.772 1.707 2.234 1.707.935 0 1.748-.163 2.642-.61l-.406 2.438zm30.849-2.072c1.18 0 1.992-1.382 1.992-3.293 0-1.26-.448-1.91-1.342-1.91-1.138 0-1.991 1.34-1.991 3.252 0 1.3.447 1.95 1.34 1.95zm1.341 2.276l.122-.935c-.69.731-1.423 1.056-2.358 1.056-1.869 0-3.089-1.584-3.089-4.023 0-3.252 1.911-6.016 4.146-6.016 1.016 0 1.748.448 2.44 1.342l.568-3.414h2.52l-1.95 11.99zm-45.968-9.958c.569 0 1.585.082 2.235.204l-.366 2.235a15.91 15.91 0 0 0-1.83-.122c-.81 0-1.259.244-1.259.772 0 .447.122.569 1.22 1.057 1.26.61 1.788 1.38 1.788 2.723 0 2.235-1.261 3.251-3.943 3.251-.325 0-.813 0-1.382-.08a2.68 2.68 0 0 1-.69-.082l-.448-.082-.122-.04.366-2.236c.813.244 1.504.366 2.276.366 1.016 0 1.463-.284 1.463-.894 0-.407-.162-.569-1.22-1.057-1.34-.65-1.909-1.503-1.909-2.723-.04-1.788.975-3.292 3.82-3.292zm5.974 9.835c-.69.244-1.26.326-1.828.326-1.3 0-2.033-.732-2.033-2.154 0-.244.041-.57.081-.854l.163-.975.122-.772 1.097-6.666h2.52l-.284 1.463h1.3l-.325 2.398h-1.301l-.69 4.065c-.041.162-.041.285-.041.406 0 .488.244.692.853.692.285 0 .528 0 .69-.082l-.324 2.153zm14.713-9.713l.082.04c-.407.772-.731 1.626-.975 2.805h-.163c-1.22 0-1.463 1.016-2.398 6.99h-2.561l1.585-9.754h2.317l-.244 1.504c.772-1.18 1.26-1.585 2.113-1.585zm8.211-1.789l-.448 2.602c-.894-.448-1.545-.65-2.276-.65-1.91 0-3.251 1.869-3.251 4.511 0 1.83.894 2.926 2.398 2.926.61 0 1.34-.203 2.154-.61l-.447 2.723c-.935.244-1.545.367-2.236.367-2.763 0-4.471-1.992-4.471-5.202 0-4.268 2.358-7.276 5.731-7.276.447 0 .853.04 1.178.122l1.017.244c.325.122.407.162.651.243z"/></g></g></g><g><g><path fill="#0077a6" d="M277.893.33V26.3h-2.47c-.717 0-1.274.199-1.673.478V26.3h-3.624c-.598 0-1.275.159-1.634.478V26.3H262v.477c-.557-.398-1.394-.477-1.832-.477h-4.302v.477c-.398-.398-1.314-.477-1.872-.477h-4.82l-1.115 1.194-1.035-1.194h-7.17v7.806h7.051l1.155-1.195 1.035 1.195h4.38v-1.832h.4c.597 0 1.275 0 1.872-.279v2.111h3.585v-2.03h.198c.2 0 .24 0 .24.238v1.792h10.913c.677 0 1.394-.159 1.793-.478v.478h3.465c.717 0 1.434-.119 1.952-.358v14.299h-47.519v-23.54h2.31l.52-1.275h1.154l.478 1.275h4.5v-.956l.4.956h2.349l.398-.996v.996h11.153v-2.071h.199c.16 0 .2.04.2.279v1.792h5.775v-.478c.477.239 1.194.478 2.15.478h2.43l.518-1.274h1.155l.518 1.274h4.66v-1.195l.717 1.195h3.744V16.7h-3.704v.917l-.558-.917h-3.784v.917l-.478-.917h-5.138c-.877 0-1.634.12-2.231.438V16.7h-3.544v.438c-.399-.318-.917-.438-1.514-.438h-12.945l-.876 1.992-.917-1.992h-4.062v.917l-.478-.917h-3.466l-1.633 3.705V.33zm-43.217 20.632l-.916-2.19-.916 2.19zm20.155-.876c.16-.08.24-.28.24-.518s-.08-.398-.24-.517c-.16-.08-.44-.08-.678-.08h-1.633v1.235h1.634c.279 0 .478 0 .677-.12zm11.55.876l-.916-2.19-.915 2.19zm-21.588-3.146v5.576h-1.354V19.01l-1.952 4.38h-1.155l-1.952-4.38v4.38h-2.708l-.518-1.234h-2.788l-.518 1.235h-1.433l2.389-5.576h1.992l2.27 5.257v-5.257h2.15l1.753 3.783 1.634-3.783h2.19zm5.457 5.576h-4.46v-5.576h4.46v1.155h-3.107v.996h3.067v1.155h-3.067v1.115h3.107zm5.616-5.337c.438.278.717.637.717 1.274 0 .876-.598 1.314-.956 1.474.28.119.518.318.637.478.199.279.239.518.239.995v1.116h-1.354v-.717c0-.319.04-.797-.199-1.076-.199-.199-.518-.239-.996-.239h-1.434v2.032h-1.314v-5.576h3.067c.677 0 1.155 0 1.593.239zm2.828 5.337h-1.354v-5.576h1.354zm15.813 0h-1.912l-2.51-4.182v4.182h-2.707l-.519-1.235h-2.788l-.517 1.235H262c-.637 0-1.474-.16-1.951-.638-.439-.478-.678-1.115-.678-2.111 0-.836.12-1.593.717-2.19.398-.44 1.115-.637 2.031-.637h1.275v1.195h-1.275c-.477 0-.757.079-1.035.318-.24.24-.36.677-.36 1.275 0 .597.12 1.036.36 1.314.2.2.558.28.916.28h.597l1.912-4.382h1.992l2.23 5.257v-5.257h2.072l2.35 3.863v-3.863h1.354v5.576zm-27.324 6.811l-1.474-1.633h-3.345v1.036h2.947v1.115h-2.948v1.115h3.307zm3.784 2.31v-4.501l-2.07 2.191zm3.067-2.51c.478 0 .797-.278.797-.756s-.32-.677-.797-.677h-1.752v1.434h1.752zm6.492-.278a.695.695 0 0 0 .279-.558c0-.24-.12-.398-.279-.478-.159-.119-.398-.119-.637-.119h-1.633v1.275l1.633-.04c.239 0 .438 0 .637-.08zm-4.261-.478c0 1.553-1.155 1.872-2.31 1.872h-1.673v1.872h-2.589l-1.633-1.832-1.713 1.832h-5.298v-5.576h5.377l1.633 1.832 1.713-1.832h4.262c1.036 0 2.23.32 2.23 1.832zm5.337-1.553c.438.239.677.597.678 1.234 0 .877-.598 1.355-.956 1.474.318.12.557.318.676.478.16.28.2.518.2 1.035v1.076h-1.315v-.677c0-.359 0-.837-.239-1.115-.199-.199-.478-.239-.956-.239h-1.434v2.031h-1.354v-5.576h3.067c.677 0 1.195.04 1.633.28zm5.895 5.297h-4.46v-5.576h4.46v1.155h-3.146v1.036h3.066v1.115h-3.066v1.115h3.146zm5.098-2.947c.239.278.398.637.398 1.195 0 1.195-.757 1.752-2.111 1.752h-2.589v-1.195h2.589c.24 0 .4-.04.518-.12.08-.08.16-.2.16-.358 0-.159-.081-.319-.16-.398-.079-.08-.239-.12-.478-.12-1.234-.04-2.788.04-2.788-1.712 0-.797.478-1.673 1.912-1.673h2.669v1.195h-2.47c-.24 0-.398 0-.518.08-.159.119-.199.238-.199.437 0 .2.12.32.279.4.159.038.319.078.518.078h.716c.757 0 1.235.16 1.554.439zm5.616 1.195c0 1.195-.756 1.752-2.111 1.752h-2.588v-1.195h2.588c.239 0 .438-.04.518-.12.08-.08.16-.2.16-.358 0-.159-.08-.319-.16-.398-.08-.08-.24-.12-.478-.12-1.234-.04-2.788.04-2.788-1.712 0-.797.518-1.673 1.912-1.673h2.668v1.195h-2.47c-.238 0-.397 0-.517.08-.119.119-.199.238-.199.437 0 .2.12.32.28.4a2 2 0 0 0 .517.078h.717c.757 0 1.235.16 1.553.439.239.278.398.637.398 1.195zM229.14 47.33c0-.398-.359-.757-.797-.757a.757.757 0 0 0-.757.757c0 .438.32.757.757.757.438 0 .797-.318.797-.757zm-.797.917c-.478 0-.876-.4-.876-.917 0-.477.398-.876.876-.876.518 0 .916.399.916.876a.902.902 0 0 1-.916.917zm.239-1.076c0-.12-.08-.12-.12-.12h-.278v.24h.239c.08 0 .159-.04.159-.12zm.16.597h-.16c0-.079-.04-.199-.04-.239 0-.039 0-.119-.12-.119h-.238v.358h-.12v-.836h.359c.159 0 .278.04.278.199 0 .12-.039.16-.079.2.04.04.08.08.08.16v.158c0 .04 0 .04.04.04z"/></g></g><g><g><g><path fill="#f48221" d="M315 3.777c0-1.494 1.495-2.989 2.99-2.989h71.149c1.495 0 2.99 1.495 2.99 2.99v41.02c0 1.495-1.495 2.99-2.99 2.99h-71.15c-1.494 0-2.989-1.495-2.989-2.99z"/></g><g><path fill="#f9f9f9" d="M392.128 24.236V2.59a1.8 1.8 0 0 0-1.8-1.802H316.8A1.8 1.8 0 0 0 315 2.59v43.397a1.8 1.8 0 0 0 1.8 1.801h12.662s27.717-1.205 58.448-21.089a49.033 49.033 0 0 1 4.218-2.463z"/></g><g><g><path d="M340.717 19.041c0 2.82 2.213 4.996 5.067 4.996.786 0 1.5-.143 2.32-.535v-2.213c-.749.75-1.392 1.071-2.248 1.071-1.856 0-3.212-1.392-3.212-3.319 0-1.82 1.392-3.283 3.14-3.283.893 0 1.571.321 2.32 1.07v-2.177c-.785-.428-1.463-.606-2.284-.606-2.819 0-5.103 2.248-5.103 4.996zm-3.319-1.106c-1.142-.428-1.463-.678-1.463-1.213 0-.607.606-1.035 1.392-1.035.57 0 1.035.214 1.498.749l1-1.25c-.821-.713-1.785-1.069-2.82-1.069-1.712 0-2.997 1.177-2.997 2.748 0 1.32.606 1.963 2.355 2.605.75.25 1.107.428 1.285.535.392.25.57.607.57.999 0 .786-.606 1.356-1.462 1.356-.857 0-1.606-.463-2.035-1.284l-1.177 1.177c.857 1.249 1.89 1.82 3.32 1.82 1.926 0 3.282-1.284 3.282-3.14 0-1.535-.642-2.213-2.748-2.998zm-6.424 5.89h1.856v-9.566h-1.856zm-3.818-2.357c-.607.5-1.357.749-2.57.749h-.5V15.9h.5c1.213 0 1.927.214 2.57.75.642.57 1.035 1.462 1.035 2.39 0 .928-.393 1.856-1.035 2.427zm-2.177-7.21h-2.748v9.565h2.712c1.464 0 2.498-.321 3.426-1.106 1.071-.892 1.75-2.25 1.75-3.676 0-2.82-2.107-4.782-5.14-4.782z"/></g><g><path fill="#db8135" d="M353.92 14.045c-2.818 0-5.102 2.213-5.102 4.925 0 2.926 2.177 5.067 5.103 5.067 2.855 0 5.103-2.177 5.103-4.996.001-2.783-2.212-4.996-5.103-4.996z"/></g><g><path fill="#db8135" d="M353.92 14.045c-2.818 0-5.102 2.213-5.102 4.925 0 2.926 2.177 5.067 5.103 5.067 2.855 0 5.103-4.996 5.103-4.996.001-2.783-2.212-4.996-5.103-4.996z"/></g><g><path fill="#db8135" d="M353.92 19.041h5.104c0-2.784-2.213-4.996-5.103-4.996-2.82 0-5.103 2.213-5.103 4.925 0 2.926 2.177 5.067 5.103 5.067 2.855 0 5.103-2.177 5.103-4.996z"/></g><g><path fill="#db8137" d="M353.92 19.041h5.104c0-2.784-2.213-4.996-5.103-4.996-2.82 0-5.103 2.213-5.103 4.925 0 2.926 2.177 5.067 5.103 5.067 2.855 0 5.103-2.177 5.103-4.996z"/></g><g><path fill="#dc8337" d="M353.92 19.041h5.104c0-2.784-2.213-4.996-5.103-4.996-2.82 0-5.103 2.213-5.103 4.925 0 2.926 2.177 5.067 5.103 5.067 2.855 0 5.103-2.177 5.103-4.996z"/></g><g><path fill="#dc8539" d="M353.92 19.041h5.104c0-2.784-2.213-4.996-5.103-4.996-2.82 0-5.103 2.213-5.103 4.925 0 2.926 2.177 5.067 5.103 5.067 2.855 0 5.103-2.177 5.103-4.996z"/></g><g><path fill="#dc853a" d="M353.92 19.041h5.104c0-2.784-2.213-4.996-5.103-4.996-2.82 0-5.103 2.213-5.103 4.925 0 2.926 2.177 5.067 5.103 5.067 2.855 0 5.103-2.177 5.103-4.996z"/></g><g><path fill="#dc853c" d="M353.92 19.041h5.104c0-2.784-2.213-4.996-5.103-4.996-2.82 0-5.103 2.213-5.103 4.925 0 2.926 2.177 5.067 5.103 5.067 2.855 0 5.103-2.177 5.103-4.996z"/></g><g><path fill="#dd873e" d="M353.92 19.041h5.104c0-2.784-2.213-4.996-5.103-4.996-2.82 0-5.103 2.213-5.103 4.925 0 2.926 2.177 5.067 5.103 5.067 2.855 0 5.103-2.177 5.103-4.996z"/></g><g><path fill="#dd873e" d="M353.92 19.041h5.104c0-2.784-2.213-4.996-5.103-4.996-2.82 0-5.103 2.213-5.103 4.925 0 2.926 2.177 5.067 5.103 5.067 2.855 0 5.103-2.177 5.103-4.996z"/></g><g><path fill="#dd883f" d="M353.92 19.041h5.104c0-2.784-2.213-4.996-5.103-4.996-2.82 0-5.103 2.213-5.103 4.925 0 2.926 2.177 5.067 5.103 5.067 2.855 0 5.103-2.177 5.103-4.996z"/></g><g><path fill="#dd8841" d="M353.92 19.041h5.104c0-2.784-2.213-4.996-5.103-4.996-2.82 0-5.103 2.213-5.103 4.925 0 2.926 2.177 5.067 5.103 5.067 2.855 0 5.103-2.177 5.103-4.996z"/></g><g><path fill="#de8a41" d="M353.92 19.041h5.104c0-2.784-2.213-4.996-5.103-4.996-2.82 0-5.103 2.213-5.103 4.925 0 2.926 2.177 5.067 5.103 5.067 2.855 0 5.103-2.177 5.103-4.996z"/></g><g><path fill="#de8a43" d="M353.92 19.041h5.104c0-2.784-2.213-4.996-5.103-4.996-2.82 0-5.103 2.213-5.103 4.925 0 2.926 2.177 5.067 5.103 5.067 2.855 0 5.103-2.177 5.103-4.996z"/></g><g><path fill="#de8a44" d="M353.92 19.041h5.104c0-2.784-2.213-4.996-5.103-4.996-2.82 0-5.103 2.213-5.103 4.925 0 2.926 2.177 5.067 5.103 5.067 2.855 0 5.103-2.177 5.103-4.996z"/></g><g><path fill="#de8c46" d="M353.92 19.041h5.104c0-2.784-2.213-4.996-5.103-4.996-2.82 0-5.103 2.213-5.103 4.925 0 2.926 2.177 5.067 5.103 5.067 2.855 0 5.103-2.177 5.103-4.996z"/></g><g><path fill="#df8e47" d="M359.018 19.304c-.001.043-.005.087-.008.129-.026.341-.086.677-.179 1.005v.001l-.033.11c-.638 2.05-2.557 3.488-4.876 3.488-1.631 0-3.03-.665-3.947-1.76a5.112 5.112 0 0 1-.844-1.472l-.007-.019-.016-.045a5.407 5.407 0 0 1-.29-1.735c.004-.716.16-1.422.458-2.073.803-1.7 2.581-2.888 4.646-2.888 2.346 0 4.246 1.458 4.878 3.495l.012.042.023.08.01.036.02.077.02.081.01.04.02.087.006.034.014.072.011.06.002.013.019.112.002.011.015.114v.001l.015.119v.007a5.2 5.2 0 0 1 .01.123v.005c.004.041.007.083.009.124v.004l.005.127v.002l.002.13c0 .088-.002.175-.007.263zm-5.097-.263h5.103"/></g><g><path fill="#df8e48" d="M353.92 19.041h5.07a5.03 5.03 0 0 0-2.73-4.46 5.281 5.281 0 0 0-2.34-.536c-1.095 0-2.11.335-2.94.902a5.013 5.013 0 0 0-2.127 4.094c0 1.86 1.02 3.495 2.525 4.377a5.33 5.33 0 0 0 2.543.62c1.188 0 2.27-.378 3.129-1.02a5.072 5.072 0 0 0 1.94-3.977h-5.07z"/></g><g><path fill="#df8e4a" d="M353.92 19.041h4.997a5.01 5.01 0 0 0-4.996-4.996c-.043 0-.085 0-.128.002h-.004c-2.687.07-4.864 2.29-4.864 4.994a5.036 5.036 0 0 0 3.378 4.76 5.55 5.55 0 0 0 1.618.237c.698 0 1.36-.13 1.96-.368a5.039 5.039 0 0 0 3.036-4.629h-4.996z"/></g><g><path fill="#df904a" d="M353.92 19.041h4.962c0-2.712-2.213-4.96-4.961-4.96s-4.961 2.248-4.961 4.96a4.95 4.95 0 0 0 4.94 4.961h.02a4.951 4.951 0 0 0 4.962-4.94v-.021z"/></g><g><path fill="#e0914c" d="M353.92 19.041h4.926c0-2.712-2.213-4.889-4.925-4.889-2.712 0-4.925 2.177-4.925 4.889a4.934 4.934 0 0 0 4.925 4.925 4.935 4.935 0 0 0 4.925-4.925z"/></g><g><path fill="#e0914e" d="M353.92 19.041h4.89c0-2.677-2.212-4.853-4.89-4.853-2.675 0-4.888 2.176-4.888 4.853a4.896 4.896 0 0 0 4.889 4.889 4.895 4.895 0 0 0 4.889-4.889z"/></g><g><path fill="#df924f" d="M353.92 19.041h4.82a4.821 4.821 0 0 0-4.82-4.818 4.822 4.822 0 0 0-4.817 4.818c0 2.677 2.142 4.853 4.818 4.853 2.677 0 4.818-2.176 4.818-4.853z"/></g><g><path fill="#e09351" d="M353.92 19.041h4.783a4.783 4.783 0 1 0-9.566.001 4.783 4.783 0 0 0 9.566-.001z"/></g><g><path fill="#e09552" d="M353.92 19.041h4.747c0-2.605-2.14-4.71-4.746-4.71-2.605 0-4.747 2.105-4.747 4.71a4.746 4.746 0 0 0 4.747 4.747 4.745 4.745 0 0 0 4.746-4.747z"/></g><g><path fill="#e09554" d="M353.92 19.041h4.676c0-2.57-2.07-4.675-4.675-4.675s-4.711 2.106-4.711 4.675a4.707 4.707 0 0 0 4.71 4.711c2.606 0 4.676-2.106 4.676-4.711z"/></g><g><path fill="#e09555" d="M353.92 19.041h4.64a4.63 4.63 0 0 0-4.62-4.639h-.02a4.63 4.63 0 0 0-4.638 4.621v.018c0 2.57 2.07 4.675 4.639 4.675 2.57 0 4.64-2.105 4.64-4.675z"/></g><g><path fill="#e19756" d="M353.92 19.041h4.605a4.616 4.616 0 0 0-4.604-4.604 4.615 4.615 0 0 0-4.604 4.604c0 2.57 2.07 4.604 4.604 4.604a4.592 4.592 0 0 0 4.604-4.58v-.024z"/></g><g><path fill="#e19757" d="M353.92 19.041h4.57c0-2.498-2.035-4.532-4.57-4.532-2.533 0-4.567 2.034-4.567 4.532a4.556 4.556 0 0 0 4.54 4.568h.028a4.555 4.555 0 0 0 4.568-4.54v-.028z"/></g><g><path fill="#e29959" d="M353.92 19.041h4.498a4.479 4.479 0 0 0-4.497-4.497c-2.498 0-4.532 1.999-4.532 4.497a4.539 4.539 0 0 0 4.532 4.532c2.498 0 4.497-2.034 4.497-4.532z"/></g><g><path fill="#e2995b" d="M353.92 19.041h4.462a4.463 4.463 0 0 0-4.461-4.46 4.463 4.463 0 0 0-4.461 4.46c0 2.463 1.999 4.497 4.46 4.497 2.463 0 4.462-2.034 4.462-4.497z"/></g><g><path fill="#e29b5b" d="M353.92 19.041h4.426c0-2.426-2-4.425-4.425-4.425-2.427 0-4.425 2-4.425 4.425a4.424 4.424 0 0 0 4.425 4.425 4.423 4.423 0 0 0 4.425-4.425z"/></g><g><path fill="#e29b5d" d="M353.92 19.041h4.39c0-2.39-1.962-4.354-4.39-4.354-2.426 0-4.388 1.963-4.388 4.354a4.386 4.386 0 0 0 4.389 4.389 4.386 4.386 0 0 0 4.39-4.389z"/></g><g><path fill="#e39d5f" d="M353.92 19.041h4.32a4.31 4.31 0 0 0-4.302-4.318h-.017a4.311 4.311 0 0 0-4.318 4.318c0 2.39 1.927 4.354 4.318 4.354 2.39 0 4.318-1.963 4.318-4.354z"/></g><g><path fill="#e39d61" d="M353.92 19.041h4.283a4.294 4.294 0 0 0-4.282-4.282 4.295 4.295 0 0 0-4.282 4.282c0 2.39 1.927 4.318 4.282 4.318 2.356 0 4.282-1.927 4.282-4.318z"/></g><g><path fill="#e39f63" d="M353.92 19.041h4.248c0-2.32-1.89-4.247-4.247-4.247-2.355 0-4.247 1.927-4.247 4.247a4.235 4.235 0 0 0 4.247 4.247 4.234 4.234 0 0 0 4.247-4.247z"/></g><g><path fill="#e39f63" d="M353.92 19.041h4.212c0-2.32-1.89-4.175-4.211-4.175-2.32 0-4.211 1.855-4.211 4.175s1.89 4.211 4.21 4.211c2.321 0 4.212-1.89 4.212-4.211z"/></g><g><path fill="#e39f64" d="M353.92 19.041h4.14a4.14 4.14 0 0 0-4.14-4.14 4.142 4.142 0 0 0-4.139 4.14c0 2.32 1.856 4.175 4.14 4.175 2.285 0 4.139-1.855 4.139-4.175z"/></g><g><path fill="#e4a166" d="M353.92 19.041h4.106a4.106 4.106 0 0 0-8.209 0c0 2.284 1.82 4.14 4.104 4.14 2.285 0 4.105-1.856 4.105-4.14z"/></g><g><path fill="#e4a367" d="M353.92 19.041h4.07a4.066 4.066 0 0 0-4.07-4.068 4.067 4.067 0 0 0-4.067 4.068 4.068 4.068 0 1 0 8.136 0z"/></g><g><path fill="#e4a369" d="M353.92 19.041h4.034c0-2.212-1.82-3.997-4.033-3.997s-4.033 1.784-4.033 3.997a4.03 4.03 0 0 0 4.033 4.033 4.03 4.03 0 0 0 4.033-4.033z"/></g><g><path fill="#e4a36a" d="M353.92 19.041h3.963a3.952 3.952 0 0 0-3.962-3.96 3.952 3.952 0 0 0-3.961 3.96c0 2.213 1.748 3.997 3.96 3.997 2.214 0 3.963-1.784 3.963-3.997z"/></g><g><path fill="#e5a56c" d="M353.92 19.041h3.927a3.914 3.914 0 0 0-3.904-3.926h-.022a3.915 3.915 0 0 0-3.926 3.903v.023c0 2.177 1.75 3.961 3.926 3.961 2.177 0 3.926-1.784 3.926-3.961z"/></g><g><path fill="#e5a56c" d="M353.92 19.041h3.89a3.9 3.9 0 0 0-3.89-3.89 3.9 3.9 0 0 0-3.889 3.89 3.9 3.9 0 0 0 3.89 3.89 3.9 3.9 0 0 0 3.89-3.89z"/></g><g><path fill="#e5a76e" d="M353.92 19.041h3.855c0-2.105-1.748-3.818-3.854-3.818s-3.854 1.713-3.854 3.818a3.86 3.86 0 0 0 3.854 3.854 3.86 3.86 0 0 0 3.854-3.854z"/></g><g><path fill="#e5a770" d="M353.92 19.041h3.784a3.784 3.784 0 0 0-3.783-3.783 3.784 3.784 0 0 0-3.782 3.783c0 2.106 1.677 3.82 3.782 3.82 2.106 0 3.783-1.714 3.783-3.82z"/></g><g><path fill="#e6a970" d="M353.92 19.041h3.748a3.746 3.746 0 0 0-3.747-3.747 3.746 3.746 0 0 0-3.747 3.747 3.746 3.746 0 0 0 3.747 3.747 3.746 3.746 0 0 0 3.747-3.747z"/></g><g><path fill="#e6a972" d="M353.92 19.041h3.712c0-2.034-1.677-3.71-3.711-3.71s-3.711 1.676-3.711 3.71c0 2.07 1.677 3.711 3.71 3.711 2.035 0 3.712-1.64 3.712-3.711z"/></g><g><path fill="#e6ab74" d="M353.92 19.041h3.677c0-1.998-1.642-3.64-3.676-3.64-2.034 0-3.676 1.642-3.676 3.64a3.67 3.67 0 0 0 3.666 3.676h.01a3.67 3.67 0 0 0 3.676-3.666v-.01z"/></g><g><path fill="#e6ab75" d="M353.92 19.041h3.605a3.594 3.594 0 0 0-3.584-3.604h-.02a3.593 3.593 0 0 0-3.604 3.584v.02c0 1.999 1.605 3.64 3.604 3.64 1.998 0 3.604-1.641 3.604-3.64z"/></g><g><path fill="#e7ad77" d="M353.92 19.041h3.57a3.58 3.58 0 0 0-3.57-3.57 3.58 3.58 0 0 0-3.568 3.57 3.557 3.557 0 0 0 3.569 3.57 3.557 3.557 0 0 0 3.57-3.545v-.025z"/></g><g><path fill="#e7ad77" d="M353.92 19.041h3.534a3.542 3.542 0 0 0-3.533-3.533 3.542 3.542 0 0 0-3.533 3.533 3.519 3.519 0 0 0 3.533 3.533 3.518 3.518 0 0 0 3.533-3.503v-.03z"/></g><g><path fill="#e8af79" d="M353.92 19.041h3.499c0-1.927-1.571-3.462-3.498-3.462-1.927 0-3.497 1.535-3.497 3.462a3.504 3.504 0 0 0 3.497 3.498 3.505 3.505 0 0 0 3.498-3.498z"/></g><g><path fill="#e8af7b" d="M353.92 19.041h3.427a3.428 3.428 0 0 0-3.426-3.426 3.428 3.428 0 0 0-3.426 3.426c0 1.927 1.534 3.462 3.426 3.462 1.89 0 3.426-1.535 3.426-3.462z"/></g><g><path fill="#e8b17b" d="M353.92 19.041h3.392c0-1.856-1.5-3.39-3.391-3.39a3.388 3.388 0 0 0-3.39 3.39c0 1.89 1.498 3.39 3.39 3.39 1.89 0 3.39-1.498 3.39-3.39z"/></g><g><path fill="#e8b17d" d="M353.92 19.041h3.356a3.351 3.351 0 0 0-3.348-3.354h-.007a3.351 3.351 0 0 0-3.355 3.346v.008a3.353 3.353 0 0 0 3.347 3.355h.008a3.352 3.352 0 0 0 3.355-3.348v-.007z"/></g><g><path fill="#e8b17e" d="M353.92 19.041h3.32c0-1.82-1.499-3.283-3.32-3.283-1.82 0-3.318 1.463-3.318 3.283 0 1.82 1.499 3.32 3.319 3.32 1.82 0 3.32-1.5 3.32-3.32z"/></g><g><path fill="#e9b381" d="M353.92 19.041h3.249a3.26 3.26 0 0 0-3.248-3.247 3.236 3.236 0 0 0-3.247 3.225v.022c0 1.82 1.427 3.283 3.247 3.283 1.784 0 3.248-1.463 3.248-3.283z"/></g><g><path fill="#e9b381" d="M353.92 19.041h3.213a3.2 3.2 0 0 0-3.185-3.212h-.027a3.2 3.2 0 0 0-3.212 3.185v.027a3.199 3.199 0 0 0 3.186 3.212h.026a3.198 3.198 0 0 0 3.212-3.186v-.026h-3.212z"/></g><g><path fill="#e9b583" d="M353.92 19.041h3.177a3.182 3.182 0 0 0-3.176-3.176 3.183 3.183 0 0 0-3.176 3.176 3.183 3.183 0 0 0 3.176 3.176 3.182 3.182 0 0 0 3.176-3.176z"/></g><g><path fill="#e9b584" d="M353.92 19.041h3.142c0-1.713-1.428-3.105-3.141-3.105s-3.14 1.392-3.14 3.105a3.143 3.143 0 0 0 3.14 3.14c1.713 0 3.14-1.391 3.14-3.14z"/></g><g><path fill="#eab786" d="M353.92 19.041h3.07a3.07 3.07 0 0 0-6.138 0c0 1.713 1.356 3.105 3.069 3.105 1.713 0 3.07-1.392 3.07-3.105z"/></g><g><path fill="#eab788" d="M353.92 19.041h3.034a3.03 3.03 0 0 0-3.027-3.033h-.006a3.031 3.031 0 0 0-3.033 3.033 3.031 3.031 0 0 0 3.033 3.033 3.03 3.03 0 0 0 3.033-3.028v-.005z"/></g><g><path fill="#ebb989" d="M353.92 19.041h2.998a3.015 3.015 0 0 0-2.997-2.998 3.017 3.017 0 0 0-2.998 2.998 2.994 2.994 0 0 0 2.998 2.998 2.992 2.992 0 0 0 2.997-2.998z"/></g><g><path fill="#ebb98a" d="M353.92 19.041h2.963c0-1.606-1.32-2.926-2.962-2.926-1.64 0-2.962 1.32-2.962 2.926a2.955 2.955 0 0 0 2.948 2.962h.014a2.955 2.955 0 0 0 2.962-2.947v-.015z"/></g><g><path fill="#ebbb8c" d="M353.92 19.041h2.892a2.878 2.878 0 0 0-2.867-2.89h-.024a2.879 2.879 0 0 0-2.89 2.89c0 1.606 1.284 2.927 2.89 2.927s2.89-1.32 2.89-2.927z"/></g><g><path fill="#ebbb8c" d="M353.92 19.041h2.856a2.863 2.863 0 0 0-2.855-2.855 2.863 2.863 0 0 0-2.855 2.855 2.84 2.84 0 0 0 2.855 2.855 2.84 2.84 0 0 0 2.855-2.855z"/></g><g><path fill="#ecbd8f" d="M353.92 19.041h2.821a2.825 2.825 0 0 0-2.82-2.82 2.825 2.825 0 0 0-2.82 2.82 2.803 2.803 0 0 0 2.787 2.82h.033a2.803 2.803 0 0 0 2.82-2.786v-.034z"/></g><g><path fill="#ecbd90" d="M353.92 19.041h2.785c0-1.535-1.249-2.748-2.784-2.748-1.534 0-2.784 1.213-2.784 2.748a2.788 2.788 0 0 0 2.784 2.784 2.787 2.787 0 0 0 2.784-2.784z"/></g><g><path fill="#ecbf93" d="M353.92 19.041h2.713a2.71 2.71 0 0 0-2.71-2.712h-.002a2.71 2.71 0 0 0-2.712 2.71v.002c0 1.499 1.213 2.748 2.712 2.748s2.712-1.249 2.712-2.748z"/></g><g><path fill="#ecbf93" d="M353.92 19.041h2.678a2.697 2.697 0 0 0-2.677-2.677 2.673 2.673 0 0 0-2.676 2.677 2.65 2.65 0 0 0 2.676 2.677 2.673 2.673 0 0 0 2.677-2.677z"/></g><g><path fill="#edc195" d="M353.92 19.041h2.642a2.635 2.635 0 0 0-2.641-2.64 2.635 2.635 0 0 0-2.64 2.64 2.634 2.634 0 0 0 2.64 2.64 2.634 2.634 0 0 0 2.64-2.628v-.012z"/></g><g><path fill="#edc196" d="M353.92 19.041h2.606c0-1.427-1.177-2.57-2.605-2.57-1.427 0-2.605 1.143-2.605 2.57a2.62 2.62 0 0 0 2.605 2.605 2.62 2.62 0 0 0 2.605-2.605z"/></g><g><path fill="#eec397" d="M353.92 19.041h2.535a2.544 2.544 0 0 0-2.534-2.534 2.544 2.544 0 0 0-2.534 2.534c0 1.427 1.142 2.57 2.534 2.57s2.534-1.143 2.534-2.57z"/></g><g><path fill="#eec399" d="M353.92 19.041h2.499a2.505 2.505 0 0 0-2.498-2.498 2.505 2.505 0 0 0-2.498 2.498 2.482 2.482 0 0 0 2.468 2.498h.03a2.481 2.481 0 0 0 2.498-2.467v-.031z"/></g><g><path fill="#eec59b" d="M353.92 19.041h2.463a2.466 2.466 0 0 0-2.462-2.462 2.467 2.467 0 0 0-2.462 2.462 2.468 2.468 0 0 0 2.462 2.463 2.467 2.467 0 0 0 2.462-2.463z"/></g><g><path fill="#eec69d" d="M353.92 19.041h2.428c0-1.32-1.106-2.39-2.427-2.39-1.32 0-2.427 1.07-2.427 2.39a2.43 2.43 0 0 0 2.427 2.427 2.429 2.429 0 0 0 2.427-2.427h-2.427z"/></g><g><path fill="#eec69f" d="M353.92 19.041h2.357a2.354 2.354 0 0 0-2.356-2.355 2.352 2.352 0 0 0-2.355 2.355c0 1.32 1.035 2.39 2.355 2.39 1.321 0 2.356-1.07 2.356-2.39h-2.356z"/></g><g><path fill="#efc89f" d="M353.92 19.041h2.321a2.317 2.317 0 0 0-2.311-2.32h-.01a2.317 2.317 0 0 0-2.32 2.311v.009a2.316 2.316 0 0 0 2.312 2.32h.009a2.316 2.316 0 0 0 2.32-2.311v-.009z"/></g><g><path fill="#efc8a1" d="M353.92 19.041h2.286a2.3 2.3 0 0 0-2.285-2.284 2.3 2.3 0 0 0-2.284 2.284 2.278 2.278 0 0 0 2.27 2.284h.014a2.277 2.277 0 0 0 2.285-2.27v-.014z"/></g><g><path fill="#efcaa3" d="M353.92 19.041h2.25c0-1.213-1-2.212-2.25-2.212-1.248 0-2.247 1-2.247 2.212a2.238 2.238 0 0 0 2.23 2.248h.018a2.24 2.24 0 0 0 2.249-2.23v-.018z"/></g><g><path fill="#efcaa3" d="M353.92 19.041h2.178a2.162 2.162 0 0 0-2.148-2.177h-.03a2.163 2.163 0 0 0-2.176 2.149v.028c0 1.213.964 2.213 2.177 2.213 1.214 0 2.177-1 2.177-2.213z"/></g><g><path fill="#f0cca6" d="M353.92 19.041h2.142c0-1.178-.963-2.14-2.141-2.14s-2.14.962-2.14 2.14c0 1.178.962 2.14 2.14 2.14 1.177 0 2.14-.962 2.14-2.14z"/></g><g><path fill="#f0cca8" d="M353.92 19.041h2.107c0-1.142-.964-2.105-2.106-2.105a2.11 2.11 0 0 0-2.106 2.105c0 1.178.928 2.106 2.106 2.106a2.11 2.11 0 0 0 2.106-2.106z"/></g><g><path fill="#f1ceaa" d="M353.92 19.041h2.071c0-1.142-.928-2.034-2.07-2.034s-2.07.892-2.07 2.034a2.073 2.073 0 0 0 2.07 2.07 2.072 2.072 0 0 0 2.07-2.07z"/></g><g><path fill="#f1ceaa" d="M353.92 19.041h1.999a1.993 1.993 0 0 0-1.99-1.998h-.008a1.996 1.996 0 0 0-2 1.998c0 1.106.894 2.034 2 2.034 1.106 0 1.998-.928 1.998-2.034h-1.998z"/></g><g><path fill="#f1d0ad" d="M353.92 19.041h1.964a1.98 1.98 0 0 0-1.963-1.963 1.98 1.98 0 0 0-1.963 1.963 1.958 1.958 0 0 0 1.952 1.963h.01a1.958 1.958 0 0 0 1.964-1.952v-.011z"/></g><g><path fill="#f1d0ae" d="M353.92 19.041h1.928a1.941 1.941 0 0 0-1.927-1.927 1.94 1.94 0 0 0-1.927 1.927 1.919 1.919 0 0 0 1.911 1.927h.016a1.917 1.917 0 0 0 1.927-1.911v-.016z"/></g><g><path fill="#f2d2b1" d="M353.92 19.041h1.892c0-1.035-.856-1.856-1.891-1.856-1.035 0-1.89.82-1.89 1.856 0 1.035.855 1.89 1.89 1.89s1.89-.855 1.89-1.89z"/></g><g><path fill="#f2d2b3" d="M353.92 19.041h1.821c0-.999-.821-1.82-1.82-1.82-1 0-1.82.821-1.82 1.82 0 1.035.82 1.856 1.82 1.856.999 0 1.82-.82 1.82-1.856z"/></g><g><path fill="#f3d4b4" d="M353.92 19.041h1.785a1.79 1.79 0 0 0-1.784-1.784 1.79 1.79 0 0 0-1.784 1.784c0 .999.785 1.784 1.784 1.784s1.784-.785 1.784-1.784z"/></g><g><path fill="#f3d4b5" d="M353.92 19.041h1.75a1.753 1.753 0 0 0-1.75-1.749c-.963 0-1.747.786-1.747 1.749 0 .963.784 1.749 1.748 1.749a1.753 1.753 0 0 0 1.749-1.749z"/></g><g><path fill="#f3d4b7" d="M353.92 19.041h1.714c0-.928-.785-1.677-1.713-1.677s-1.713.75-1.713 1.677a1.713 1.713 0 0 0 3.426 0z"/></g><g><path fill="#f3d6b8" d="M353.92 19.041h1.643a1.639 1.639 0 0 0-1.633-1.642h-.01a1.636 1.636 0 0 0-1.64 1.633v.009c0 .928.713 1.677 1.64 1.677.929 0 1.643-.75 1.643-1.677z"/></g><g><path fill="#f4d8ba" d="M353.92 19.041h1.607a1.6 1.6 0 0 0-1.593-1.606h-.013a1.6 1.6 0 0 0-1.606 1.606 1.6 1.6 0 0 0 1.606 1.606 1.6 1.6 0 0 0 1.606-1.593v-.013z"/></g><g><path fill="#f4d9bc" d="M353.92 19.041h1.572c0-.857-.714-1.57-1.571-1.57-.856 0-1.57.714-1.57 1.57 0 .892.714 1.57 1.57 1.57.857 0 1.571-.678 1.571-1.57z"/></g><g><path fill="#f4d9be" d="M353.92 19.041h1.536c0-.821-.678-1.499-1.535-1.499-.856 0-1.534.678-1.534 1.499 0 .857.678 1.535 1.534 1.535.857 0 1.535-.679 1.535-1.535z"/></g><g><path fill="#f4dbbf" d="M353.92 19.041h1.464c0-.821-.642-1.463-1.463-1.463-.821 0-1.463.642-1.463 1.463 0 .821.642 1.499 1.463 1.499.821 0 1.463-.678 1.463-1.499z"/></g><g><path fill="#f4dbc0" d="M353.92 19.041h1.429a1.43 1.43 0 0 0-1.428-1.427 1.43 1.43 0 0 0-1.427 1.427 1.43 1.43 0 0 0 1.427 1.427 1.43 1.43 0 0 0 1.428-1.427z"/></g><g><path fill="#f5ddc3" d="M353.92 19.041h1.393c0-.75-.642-1.392-1.392-1.392-.75 0-1.392.642-1.392 1.392 0 .785.643 1.392 1.392 1.392.749 0 1.392-.607 1.392-1.392z"/></g><g><path fill="#f5ddc3" d="M353.92 19.041h1.357c0-.714-.607-1.32-1.356-1.32-.75 0-1.356.606-1.356 1.32a1.356 1.356 0 1 0 2.712 0z"/></g><g><path fill="#f6dfc6" d="M353.92 19.041h1.286a1.28 1.28 0 0 0-1.285-1.284 1.28 1.28 0 0 0-1.285 1.284c0 .714.572 1.32 1.285 1.32.714 0 1.285-.606 1.285-1.32z"/></g><g><path fill="#f6dfc7" d="M353.92 19.041h1.25c0-.678-.571-1.249-1.25-1.249-.677 0-1.248.571-1.248 1.249 0 .714.571 1.249 1.249 1.249.678 0 1.249-.535 1.249-1.249z"/></g><g><path fill="#f6e1ca" d="M353.92 19.041h1.215c0-.642-.536-1.213-1.214-1.213-.678 0-1.213.571-1.213 1.213a1.202 1.202 0 0 0 1.193 1.213h.02a1.204 1.204 0 0 0 1.214-1.193v-.02z"/></g><g><path fill="#f6e1cc" d="M353.92 19.041h1.178c0-.642-.535-1.142-1.177-1.142s-1.178.5-1.178 1.142c0 .643.536 1.178 1.178 1.178.643 0 1.177-.535 1.177-1.178z"/></g><g><path fill="#f7e3cd" d="M353.92 19.041h1.107a1.112 1.112 0 0 0-1.106-1.106 1.11 1.11 0 0 0-1.106 1.106c0 .643.5 1.142 1.106 1.142.607 0 1.106-.5 1.106-1.142z"/></g><g><path fill="#f7e3cf" d="M353.92 19.041h1.072c0-.571-.464-1.07-1.071-1.07-.606 0-1.071.499-1.071 1.07 0 .607.465 1.071 1.07 1.071.608 0 1.072-.464 1.072-1.071z"/></g><g><path fill="#f7e3d0" d="M353.92 19.041h1.036a1.036 1.036 0 0 0-1.035-1.035 1.036 1.036 0 0 0 0 2.07 1.036 1.036 0 0 0 1.035-1.035z"/></g><g><path fill="#f8e5d1" d="M353.92 19.041h1c0-.535-.463-.964-1-.964-.534 0-.998.429-.998.964a.998.998 0 0 0 .995.999h.004a.997.997 0 0 0 .999-.995v-.004z"/></g><g><path fill="#f8e8d4" d="M353.92 19.041h.929a.921.921 0 0 0-.928-.928.922.922 0 0 0-.928.915v.013c0 .535.393.964.928.964.536 0 .928-.428.928-.964z"/></g><g><path fill="#f8e8d6" d="M353.92 19.041h.893a.883.883 0 0 0-.874-.892h-.018a.882.882 0 0 0-.892.875v.017a.883.883 0 0 0 .874.892h.018a.884.884 0 0 0 .892-.875v-.017z"/></g><g><path fill="#f8e8d8" d="M353.92 19.041h.858c0-.464-.393-.821-.857-.821-.464 0-.856.357-.856.821 0 .464.392.857.856.857a.87.87 0 0 0 .857-.857z"/></g><g><path fill="#f9ead9" d="M353.92 19.041h.822c0-.428-.393-.785-.821-.785-.428 0-.821.357-.821.785 0 .464.393.821.82.821a.831.831 0 0 0 .822-.821z"/></g><g><path fill="#faecdc" d="M353.92 19.041h.75a.755.755 0 0 0-.75-.75.754.754 0 0 0-.748.75c0 .428.321.785.749.785s.749-.357.749-.785z"/></g><g><path fill="#faecdd" d="M353.92 19.041h.715a.715.715 0 0 0-.714-.714.715.715 0 0 0-.713.714c0 .393.32.714.713.714a.715.715 0 0 0 .714-.714z"/></g><g><path fill="#faecdf" d="M353.92 19.041h.679c0-.357-.32-.642-.678-.642-.357 0-.678.285-.678.642a.678.678 0 0 0 1.356 0z"/></g><g><path fill="#faeee0" d="M353.92 19.041h.644c0-.321-.286-.607-.643-.607-.357 0-.642.286-.642.607a.64.64 0 0 0 .642.643.641.641 0 0 0 .643-.638v-.005z"/></g><g><path fill="#fbf0e3" d="M353.92 19.041h.572a.564.564 0 0 0-.571-.571.564.564 0 0 0-.571.571c0 .321.25.607.57.607.322 0 .572-.286.572-.607z"/></g><g><path fill="#fbf1e5" d="M353.92 19.041h.537a.55.55 0 0 0-.536-.535.55.55 0 0 0-.535.535c0 .321.25.535.535.535a.526.526 0 0 0 .536-.535z"/></g><g><path fill="#fbf1e7" d="M353.92 19.041h.5c0-.25-.214-.464-.5-.464-.284 0-.498.214-.498.464 0 .286.214.5.499.5.285 0 .5-.214.5-.5z"/></g><g><path fill="#fcf3e8" d="M353.92 19.041h.465c0-.25-.214-.428-.464-.428s-.464.178-.464.428.214.464.464.464.464-.214.464-.464z"/></g><g><path fill="#fcf3ea" d="M353.92 19.041h.394a.396.396 0 0 0-.393-.392.396.396 0 0 0-.393.392c0 .25.179.428.393.428.214 0 .393-.178.393-.428z"/></g><g><path fill="#fcf5ed" d="M353.92 19.041h.358a.36.36 0 0 0-.357-.357.358.358 0 0 0-.357.357c0 .214.143.357.357.357s.357-.143.357-.357z"/></g><g><path fill="#fcf5ef" d="M353.92 19.041h.322c0-.178-.143-.285-.321-.285-.178 0-.321.107-.321.285a.32.32 0 0 0 .642.002v-.002z"/></g><g><path fill="#fdf8f1" d="M353.92 19.041h.286c0-.143-.143-.25-.285-.25s-.285.108-.285.25c0 .143.143.286.285.286s.285-.143.285-.286z"/></g><g><path fill="#fdf8f3" d="M353.92 19.041h.215a.23.23 0 0 0-.214-.214.23.23 0 0 0-.214.214c0 .143.107.25.214.25s.214-.107.214-.25z"/></g><g><path fill="#fdf8f5" d="M353.92 19.041h.179c0-.071-.07-.178-.178-.178-.107 0-.178.107-.178.178 0 .107.071.178.178.178s.178-.07.178-.178z"/></g><g><path fill="#fefbf6" d="M353.92 19.041h.143c0-.071-.07-.107-.142-.107-.071 0-.142.036-.142.107 0 .071.07.143.142.143a.153.153 0 0 0 .142-.143z"/></g><g><path fill="#fffffb" d="M353.92 19.041h.072c0-.036-.036-.071-.071-.071-.036 0-.107.035-.107.071 0 .071.07.107.107.107.036 0 .071-.036.071-.107z"/></g><g><path fill="#fff" d="M353.92 19.041h.037s0-.036-.036-.036-.036.036-.036.036c0 .036 0 .071.036.071s.036-.035.036-.071z"/></g><g><path d="M382.38 14.664a.592.592 0 0 0-.587.602c0 .332.265.601.587.601.32 0 .58-.271.58-.601a.592.592 0 0 0-.58-.602zm.004 1.335a.732.732 0 0 1-.736-.735v-.008a.73.73 0 1 1 1.46.008.733.733 0 0 1-.724.735zm.124-.312l-.236-.326v.326h-.199v-.843h.269c.206 0 .321.093.321.258 0 .119-.068.206-.186.236l.277.349zm-.053-.58c0-.072-.048-.106-.15-.107h-.036v.22h.034c.102 0 .152-.04.152-.113zm-.695 11.756c-.11-.191-.256-.288-.486-.288-.242 0-.51.165-.51.433 0 .237.236.363.424.435l.22.086c.43.17.753.408.753.916 0 .554-.428.948-.973.948-.49 0-.877-.362-.939-.851l.382-.08c-.005.334.264.577.59.577.327 0 .562-.274.562-.594 0-.326-.265-.468-.526-.578l-.21-.088c-.348-.15-.662-.347-.662-.771 0-.494.436-.79.897-.79.338 0 .618.168.784.462l-.306.183zm-4.76-.578h1.636v.347h-1.255v.853h1.219v.347h-1.22v1.151h1.256v.345H377zm-1.754.582a1.231 1.231 0 0 0-.807-.299c-.68 0-1.2.569-1.2 1.243 0 .666.514 1.235 1.193 1.235.3 0 .587-.112.814-.315v.449c-.244.138-.52.21-.8.213-.868 0-1.589-.69-1.589-1.57 0-.901.726-1.604 1.62-1.604.267 0 .538.066.77.207v.441zm-4.473-.582h.38v3.043h-.38zm-2.87 2.253l.903-2.253h.417l-1.32 3.207-1.325-3.207h.416zm-3.569-.533l.96 1.324h-.459l-.897-1.287h-.156v1.287h-.38v-3.044h.46c.269 0 .56.004.801.14.255.15.401.438.401.728 0 .437-.29.8-.73.852zm-.553-1.381v1.102h.12c.386 0 .808-.072.808-.556 0-.478-.451-.546-.83-.546zm-3.79-.339h1.636v.347h-1.256v.853h1.22v.347h-1.22v1.151h1.256v.345h-1.637zm-2.12.578c-.11-.191-.256-.288-.488-.288-.243 0-.51.165-.51.433 0 .237.237.363.426.435l.216.086c.434.17.757.408.757.916 0 .554-.43.948-.973.948-.493 0-.877-.362-.94-.851l.383-.08a.569.569 0 0 0 .587.577c.328 0 .56-.274.56-.594 0-.326-.26-.468-.522-.578l-.21-.088c-.348-.15-.663-.347-.663-.771 0-.494.436-.79.898-.79.336 0 .617.168.78.462l-.3.183zm-6.303 2.12h.925v.345h-1.303v-3.043h.378zm-4.09-.417l-.348.762h-.406l1.454-3.172 1.452 3.172h-.408l-.348-.762zm1.24-.347l-.54-1.232-.544 1.232zm-3.925-1.934h.379v3.043h-.379zm-2.55.283c-.681 0-1.202.569-1.202 1.243 0 .666.516 1.235 1.195 1.235.3 0 .585-.112.81-.315v.449a1.627 1.627 0 0 1-.799.213c-.87 0-1.587-.69-1.587-1.57a1.6 1.6 0 0 1 1.621-1.604c.267 0 .537.066.765.207v.441a1.215 1.215 0 0 0-.803-.299zm-5.922-.43l2.285 2.396v-2.249h.381v3.17L336.7 27.06v2.27h-.378zm-3.675 2.428l-.348.762h-.408l1.454-3.172 1.455 3.172h-.41l-.347-.762zm.698-1.579l-.542 1.232h1.084zm-5.64-.848l2.283 2.395v-2.249h.38v3.17l-2.285-2.395v2.27h-.378v-3.191zm-2.218.146h.38v3.043h-.38zm-2.83.347v.857h1.058v.347h-1.058v1.492h-.38v-3.043h1.473v.347zm54.961-7.947c1.214 0 1.82-.536 1.82-1.5 0-.927-.606-1.427-1.784-1.427h-.571v2.927h.535zm1.571 1.105l2.998 4.033h-2.284l-2.57-3.818h-.25v3.818h-1.855V14.26h2.748c2.176 0 3.39 1.035 3.39 2.82 0 1.463-.786 2.426-2.177 2.711zm-10.492-5.531h5.282V15.9h-3.426v2.105h3.283v1.642h-3.283v2.569h3.426v1.607h-5.282zm-2.891 0h2.034l-4.139 9.814h-1l-4.068-9.814h2.07l2.534 6.424z"/></g></g></g></g></g></svg>