<svg xmlns="http://www.w3.org/2000/svg" width="268" height="224" viewBox="0 0 268 224"><defs><linearGradient id="p040a" x1="267.98" x2="36.98" y1="11.33" y2="242.32" gradientUnits="userSpaceOnUse"><stop offset="0" stop-color="#00ddec"/><stop offset="1" stop-color="#008dea"/></linearGradient><linearGradient id="p040b" x1="247.35" x2="209.61" y1="176.73" y2="214.47" gradientUnits="userSpaceOnUse"><stop offset="0" stop-color="#00ddec"/><stop offset="1" stop-color="#008dea"/></linearGradient><linearGradient id="p040c" x1="64.61" x2="35.08" y1="1.56" y2="31.09" gradientUnits="userSpaceOnUse"><stop offset="0" stop-color="#00ddec"/><stop offset="1" stop-color="#008dea"/></linearGradient><linearGradient id="p040d" x1="164.28" x2="149.54" y1="179.75" y2="194.49" gradientUnits="userSpaceOnUse"><stop offset="0" stop-color="#00ddec"/><stop offset="1" stop-color="#008dea"/></linearGradient><linearGradient id="p040e" x1="37.08" x2="32.43" y1="145.44" y2="220.58" gradientUnits="userSpaceOnUse"><stop offset="0" stop-color="#3f4485"/><stop offset=".16" stop-color="#42407f"/><stop offset=".36" stop-color="#4c3770"/><stop offset=".58" stop-color="#5c2857"/><stop offset=".81" stop-color="#721435"/><stop offset="1" stop-color="#890013"/></linearGradient></defs><g><g><g opacity=".18"><path fill="url(#p040a)" d="M50.113 120.562c0-50.923 48.634-92.205 108.627-92.205 59.993 0 108.627 41.282 108.627 92.205s-48.634 92.204-108.627 92.204c-59.993 0-108.627-41.28-108.627-92.204z"/></g><g opacity=".18"><path fill="url(#p040b)" d="M211.313 193.75c0-10.503 8.514-19.018 19.016-19.018 10.503 0 19.017 8.515 19.017 19.017 0 10.503-8.514 19.017-19.017 19.017-10.502 0-19.017-8.514-19.017-19.017z"/></g><g opacity=".18"><path fill="url(#p040c)" d="M36.406 14.882C36.406 6.662 43.068 0 51.287 0 59.506 0 66.17 6.663 66.17 14.882c0 8.218-6.663 14.881-14.882 14.881S36.406 23.1 36.406 14.882z"/></g><g opacity=".18"><path fill="url(#p040d)" d="M150.204 186.404a7.429 7.429 0 1 1 14.857 0 7.429 7.429 0 0 1-14.857 0z"/></g><g><path fill="#ffce00" d="M217.987 1.222H116.393c-7.688 0-13.921 6.232-13.921 13.92l.112 39.54 8.983-8.62c1.285-1.233 3.012-1.837 4.792-1.833h101.635c7.688 0 13.914-6.232 13.914-13.92V15.142c0-7.688-6.233-13.92-13.92-13.92z"/></g><g><g opacity=".05"><g opacity=".05"><path fill="#be1e2d" d="M126.06 35.663l-.333-.007c-5.708-.178-10.336-4.932-10.336-10.655v-.006c0-5.882 4.786-10.667 10.668-10.667s10.668 4.785 10.668 10.667c0 5.883-4.786 10.668-10.668 10.668z"/></g><g opacity=".05"><path fill="#be1e2d" d="M156.367 20.49h56.5a1.805 1.805 0 0 0 0-3.61h-56.5a1.805 1.805 0 0 0 0 3.61z"/></g><g opacity=".05"><path fill="#be1e2d" d="M212.868 29.513h-56.501a1.805 1.805 0 0 0 0 3.61h56.5a1.804 1.804 0 0 0 0-3.61z"/></g></g><g><path fill="#fff" d="M156.498 16.288c0-.841.841-1.683 1.682-1.683h56.744c.842 0 1.683.842 1.683 1.683v.243c0 .842-.842 1.683-1.683 1.683H158.18c-.841 0-1.682-.841-1.682-1.683z"/></g><g><path fill="#fff" d="M156.498 28.92c0-.841.841-1.683 1.682-1.683h56.744c.841 0 1.683.842 1.683 1.683v.243c0 .842-.842 1.683-1.683 1.683H158.18c-.841 0-1.682-.841-1.682-1.683z"/></g></g><g><path fill="#2693ff" d="M138.395 62.999H239.99c7.688 0 13.92 6.233 13.92 13.92l-.11 39.54-8.985-8.62c-1.285-1.232-3.012-1.836-4.792-1.833H138.389c-7.688 0-13.915-6.232-13.915-13.92V76.92c0-7.688 6.233-13.921 13.921-13.921z"/></g><g><g opacity=".05"><g opacity=".05"><path fill="#be1e2d" d="M219.655 86.773c0-5.882 4.786-10.668 10.668-10.668s10.668 4.786 10.668 10.668v.006c0 5.722-4.628 10.476-10.336 10.654l-.332.007c-5.882 0-10.668-4.785-10.668-10.667zm-3.576 0c0 7.697 6.141 13.972 13.779 14.22v.036l.72-.012c.034-.001.067-.006.1-.007l.596-.011v-.03c7.156-.48 12.901-6.326 13.258-13.488h.035v-1.41h-.035c-.37-7.528-6.591-13.543-14.209-13.543-7.854 0-14.244 6.39-14.244 14.245z"/></g><g opacity=".05"><path fill="#be1e2d" d="M200.015 82.267h-56.501a1.804 1.804 0 0 1 0-3.608h56.5a1.804 1.804 0 1 1 0 3.608z"/></g><g opacity=".05"><path fill="#be1e2d" d="M143.514 91.291h56.5a1.804 1.804 0 1 1 0 3.608h-56.5a1.805 1.805 0 0 1 0-3.608z"/></g></g><g><path fill="#fff" d="M141.58 79.991h56.5a1.804 1.804 0 0 0 0-3.608h-56.5a1.805 1.805 0 0 0 0 3.608z"/></g><g><path fill="#fff" d="M141.58 92.623h56.5a1.805 1.805 0 0 0 0-3.608h-56.5a1.804 1.804 0 0 0 0 3.608z"/></g><g><g opacity=".44"><path fill="#fff" d="M228.616 95.164c5.757-.121 10.44-4.904 10.44-10.661v-.708h3.577v.708c0 7.715-6.276 14.102-13.989 14.238l-.72.012v-3.574z"/></g><g><path fill="#fff" d="M228.389 70.252c7.854 0 14.244 6.39 14.244 14.245v.708h-3.577v-.708c0-5.882-4.785-10.668-10.668-10.668-5.882 0-10.667 4.786-10.667 10.668s4.785 10.667 10.667 10.667l.951-.021v3.58l-.95.018c-7.855 0-14.245-6.39-14.245-14.244 0-7.855 6.39-14.245 14.245-14.245z"/></g></g></g><g><path fill="#333" d="M56.633 52.33S34.67 48.263 28.884 71.402c-4.881 20.608-1.536 26.266-15.637 49.694-14.1 23.43-10.846 42.14 4.88 46.749 15.729 4.61 49.081-28.472 54.505-68.965 5.423-40.494-5.604-44.652-15.999-46.55z"/></g><g><path fill="#4cbbdd" d="M35.765 113.422l-5.901 1.601a12.55 12.55 0 0 0-9.135 10.276c-.824 5.577-1.402 14.222-.522 26.728 1.628 23.12 1.501 32.416-2.628 61.385-.45 3.162 1.553 6.163 4.652 6.937 9.332 2.332 40.35 7.632 62.594-1.54 1.531-.631 2.262-2.395 1.777-3.977-1.67-5.44-5.3-18.735-6.378-34.604-1.034-15.235-.08-32.76-.154-46.31-.051-9.178-6.329-17.142-15.248-19.306l-2.843-.69a12.555 12.555 0 0 0-2.593-.348l-19.964-.585a12.559 12.559 0 0 0-3.657.433z"/></g><g><path fill="#ef6c74" d="M37.396 112.935l-3.696 1.002c.948 7.016 2.415 41.706 20.4 62.314 0 0 18.17-19.162 11.995-61.29l-5.561-1.348z"/></g><g opacity=".05"><path fill="url(#p040e)" d="M22.231 220.349c6.22 1.554 14.514 2.565 26.735 3.554-20.727-3.344-28.9-74.087-28.904-74.12.044.733.092 1.48.145 2.244 1.628 23.12 1.501 32.416-2.628 61.385-.45 3.162 1.553 6.163 4.652 6.937z"/></g><g opacity=".25"><g opacity=".25"><path fill="#fff" d="M36.67 135.979h30.62c.04-1.011.068-2.04.078-3.091H36.099c.176 1.01.366 2.04.57 3.09z"/></g><g opacity=".25"><path fill="#fff" d="M41.491 153.795h23.284c.253-1 .496-2.024.721-3.092h-25.06c.335 1.031.683 2.062 1.055 3.092z"/></g><g opacity=".25"><path fill="#fff" d="M34.116 117.839h32.356c-.118-.951-.234-1.902-.377-2.878l-.883-.214H33.799c.092.818.194 1.857.317 3.092z"/></g><g opacity=".25"><path fill="#fff" d="M59.283 168.419H48.397a62.394 62.394 0 0 0 2.025 3.092h7.109a51.684 51.684 0 0 0 1.752-3.092z"/></g><g opacity=".25"><path fill="#fff" d="M67.076 124.03H34.795c.121.984.254 2.016.403 3.091h32.06a110.21 110.21 0 0 0-.182-3.09z"/></g><g opacity=".25"><path fill="#fff" d="M63.072 159.56H43.795a81.27 81.27 0 0 0 1.439 3.093h16.69c.39-.98.775-2.003 1.148-3.092z"/></g><g opacity=".25"><path fill="#fff" d="M66.868 141.845H37.945c.246 1.023.506 2.053.784 3.092h27.77a87.52 87.52 0 0 0 .369-3.092z"/></g></g><g><path fill="#fff" d="M54.825 66.973s-3.74 6.235-9.992 7.777c-1.825.45-3.407 1.652-4.067 3.412a7.315 7.315 0 0 0-.403 1.646s-.271-7.954-4.7-7.954c-4.43 0-3.073 12.202 1.718 14.37 4.79 2.17 6.1 22.508 3.254 26.71 0 0 4.203 10.712 11.66 7.593 7.456-3.118 5.829-6.914 5.829-6.914s-4.61-.949-2.44-11.118c0 0 10.847 4.203 13.423-12.338 0 0 1.627-10.033.542-16.405 0 0-8.497 1.627-14.824-6.78z"/></g><g opacity=".34"><path fill="#e6e6e6" d="M45.109 95.58s2.826 10.912 9.976 13.747c-.254-1.611-.21-3.812.434-6.832 0 0 .083.031.225.076l-.06-.076s-6.779-1.356-10.575-6.915z"/></g><g opacity=".34"><path fill="#e6e6e6" d="M54.825 66.973s-3.375 5.61-9.064 7.5l-.002.006s7.62-.998 9.112-4.116c0 0 4.931 10.583 15.137 9.815.048-2.224-.03-4.493-.36-6.426 0 0-8.496 1.627-14.823-6.78z"/></g><g><path fill="#1fabcc" d="M69.305 116.293s13.888 5.668 19.428 37.502c0 0 11.91 32.412-9.714 23.518-21.623-8.894-9.714-61.02-9.714-61.02z"/></g><g><path fill="#fff" d="M50.225 123.251l-10.043 59.901a2.176 2.176 0 0 0 2.329 2.528l29.603-2.494a2.95 2.95 0 0 0 2.659-2.425l10.208-57.497a1.81 1.81 0 0 0-1.781-2.125H52.72a2.53 2.53 0 0 0-2.495 2.112z"/></g><g><path fill="#ffbfb5" d="M83.177 159.545a1.818 1.818 0 0 0-1.358-.708c-2.369-.14-9.211-.326-9.113 2.265 0 0 .319 1.566 1.385 2.22 0 0-2.263.414-1.832 2.49.43 2.076 1.735 1.924 1.735 1.924s-2.094.622-2.167 1.565c-.128 1.662 1.886 2.21 1.886 2.21s-1.862 1.188-.834 1.688 6.961-.03 7.646-.584c1.366-1.104.263-2.012.263-2.012s.967-1.954.289-3.287c-.128-.25 1.738-.595 1.15-2.261-.382-1.074.124-1.328.625-1.765.822-.718 1.632-1.986.325-3.745z"/></g><g><path fill="#ffbfb5" d="M38.11 162.936c.335 0 6.477-5.807 6.477-5.807l-.651 3.91a2.398 2.398 0 0 0 2.365 2.791h7.334c.373 0 .664.32.625.691-.114 1.094-.535 3.105-2.08 3.105 0 0 .336 3.127-1.227 3.574 0 0-.582 5.768-14.208 3.023z"/></g><g><path fill="#1fabcc" d="M29.864 115.023s-15.312 2.851-21.548 20.956c-3.968 11.519-6.73 27.015-8.212 36.765-.84 5.517 3.53 10.429 9.108 10.256 7.053-.219 17.376-2.014 29.967-8.485l-1.234-13.431-3.421 1.053a57.008 57.008 0 0 1-17.008 2.522l8.425-19.209s-.56-25.016 3.923-30.427z"/></g><g><path fill="#2693ff" d="M70.79 86.496c-.15-.255-1.072-1.39-1.072-1.39-.054.556-.153 1.53-.153 1.53.031.05 3.45 5.491 1.445 9.21-1.137 2.11-3.699 3.377-7.606 3.79a1.45 1.45 0 0 0-1.34-.895h-1.321a1.45 1.45 0 0 0-1.451 1.45v.374c0 .801.649 1.45 1.45 1.45h1.322c.754 0 1.366-.577 1.437-1.313 4.292-.455 7.141-1.91 8.455-4.351 2.29-4.255-1.027-9.62-1.166-9.855z"/></g><g><path fill="#fff" d="M121.96 20.726a6.73 6.73 0 0 1-.41-1.437c-.035-.198-.035-.403-.064-.604-.004-.026.015-.055.023-.083a3.156 3.156 0 0 1 0-.608c.026-.874.28-1.69.675-2.458a5.938 5.938 0 0 1 1.342-1.712c.427-.38.903-.695 1.423-.935a5.765 5.765 0 0 1 1.814-.527 6.293 6.293 0 0 1 1.004-.053c1.221.067 2.339.427 3.336 1.153.572.416 1.06.91 1.454 1.493.418.62.725 1.293.883 2.03.073.343.148.686.153 1.04.044.223.046.445 0 .668a6.06 6.06 0 0 1-2.06 4.246 5.984 5.984 0 0 1-4.485 1.496 5.849 5.849 0 0 1-1.951-.502 6.121 6.121 0 0 1-2.048-1.486 5.87 5.87 0 0 1-1.089-1.721zm-5.918 15.116c.056-.342.141-.678.251-1.01.489-1.473 1.38-2.677 2.51-3.716 1.093-1.003 2.341-1.763 3.698-2.354a13.654 13.654 0 0 1 2.651-.83 12.878 12.878 0 0 1 2.233-.255c.202-.014.404-.014.605 0 .291.018.58.038.87.063a12.04 12.04 0 0 1 4.75 1.496c1.013.573 1.928 1.269 2.717 2.132a9.144 9.144 0 0 1 1.628 2.442 7.65 7.65 0 0 1 .594 2.032h3.161c.004-.225-.045-.444-.062-.666a7.46 7.46 0 0 0-.282-1.447 9.941 9.941 0 0 0-1.052-2.388c-.469-.787-1.04-1.496-1.666-2.161-.183-.194-.384-.367-.578-.55a11.494 11.494 0 0 0-.88-.748 15.801 15.801 0 0 0-1.668-1.113 15.25 15.25 0 0 0-2.274-1.088c-.237-.09-.472-.183-.703-.272 2.344-1.72 3.633-4.016 3.809-6.926 0-.104-.019-.208.02-.31-.032-.042-.031-.092-.028-.142.026-.425-.028-.845-.09-1.262a8.485 8.485 0 0 0-.401-1.615 8.856 8.856 0 0 0-1.783-2.989 8.486 8.486 0 0 0-1.42-1.271 9.147 9.147 0 0 0-2.599-1.273c-.792-.24-1.607-.347-2.432-.373-.19-.006-.381.022-.569.022-.281 0-.558.032-.832.074a9.316 9.316 0 0 0-1.971.527 8.622 8.622 0 0 0-2.676 1.667 8.798 8.798 0 0 0-2.214 3.128 9.015 9.015 0 0 0-.686 2.93 7.65 7.65 0 0 0 .017 1.191 9.7 9.7 0 0 0 .27 1.598c.399 1.522 1.17 2.829 2.255 3.957.33.343.701.642 1.09.938l-.137.044a16.842 16.842 0 0 0-3.04 1.336c-1.136.65-2.182 1.423-3.103 2.357a11.94 11.94 0 0 0-1.822 2.347c-.705 1.202-1.17 2.487-1.314 3.875-.021.201-.035.402-.046.603z"/></g></g></g></svg>