<svg xmlns="http://www.w3.org/2000/svg" width="450" height="355" viewBox="0 0 450 355"><defs><linearGradient id="4vaja" x1="297.62" x2="409.59" y1="206.09" y2="206.09" gradientUnits="userSpaceOnUse"><stop offset="0" stop-color="#00ddec"/><stop offset="1" stop-color="#008dea"/></linearGradient><linearGradient id="4vajb" x1="1570.98" x2="1571.12" y1="-2403.08" y2="-2403.08" gradientUnits="userSpaceOnUse"><stop offset="0" stop-color="#00acb8"/><stop offset="1" stop-color="#006eb7"/></linearGradient><linearGradient id="4vajc" x1="330.46" x2="406.72" y1="153.58" y2="153.58" gradientUnits="userSpaceOnUse"><stop offset="0" stop-color="#008690"/><stop offset="1" stop-color="#00568f"/></linearGradient><linearGradient id="4vajd" x1="1570.39" x2="1570.54" y1="-2437.2" y2="-2437.2" gradientUnits="userSpaceOnUse"><stop offset="0" stop-color="#f2f2f2"/><stop offset=".27" stop-color="#f2f2f2"/><stop offset=".81" stop-color="#acacac"/><stop offset="1" stop-color="#acacac"/></linearGradient><linearGradient id="4vaje" x1="336.94" x2="363.83" y1="150.36" y2="150.36" gradientUnits="userSpaceOnUse"><stop offset="0" stop-color="#004e53"/><stop offset="1" stop-color="#003253"/></linearGradient><linearGradient id="4vajf" x1="335.48" x2="372.18" y1="153.27" y2="153.27" gradientUnits="userSpaceOnUse"><stop offset="0" stop-color="#003c41"/><stop offset="1" stop-color="#002740"/></linearGradient><linearGradient id="4vajg" x1="342.62" x2="340.97" y1="148.52" y2="146.4" gradientUnits="userSpaceOnUse"><stop offset=".1" stop-color="#9b9b9b"/><stop offset=".15" stop-color="#a7a7a7"/><stop offset=".3" stop-color="#c7c7c7"/><stop offset=".45" stop-color="#dfdfdf"/><stop offset=".62" stop-color="#f1f1f1"/><stop offset=".79" stop-color="#fbfbfb"/><stop offset="1" stop-color="#fff"/></linearGradient><linearGradient id="4vajh" x1="322.74" x2="340.52" y1="145.3" y2="145.3" gradientUnits="userSpaceOnUse"><stop offset="0" stop-color="#00ddec"/><stop offset="1" stop-color="#008dea"/></linearGradient></defs><g><g><g><path fill="#f2f2f2" d="M206.45 318.176c-13.179.03-26.357.262-39.512 1.34-4.96.405-9.816 1.298-14.787 1.659-9.93.719-19.683 2.062-29.648 2.681-8.025.498-16.083.793-24.085 1.425-7.502.594-15.807.457-23.251-.523-5.511-.726-11.047-1.134-16.466-2.299-6.06-1.304-12.646-2.236-18.96-2.202-9.007.047-17.777.053-26.395 2.355-3.026.808-6.729 2.136-9.027 3.83-5.259 3.883-5.97 13.568-.719 17.594 8.844 6.776 27.72 9.434 40.118 9.56 13.585.137 26.782-.605 40.387-1.042 12.642-.405 25.252-.982 37.915-.962 25.863.042 51.728 0 77.544-1.271 24.255-1.195 48.57-.785 72.878-.785 24.926 0 49.684.144 74.431 2.583 10.782 1.062 21.767 1.434 32.603 2.178 9.705.667 19.032-.013 28.698-.63 8.117-.516 16.181-2.05 23.555-4.645 5.837-2.053 16.243-8.432 18.033-13.332 5.018-13.74-70.724-13.41-82.353-13.379-13.01.035-26.122.35-39.12-.016-5.47-.153-10.857-.94-16.193-1.802-5.316-.858-10.672-.64-16.063-1-22.479-1.506-45.01-1.286-67.56-1.286-7.34 0-14.681-.047-22.024-.031z"/></g><g><g><g><g><g><g><path fill="#242449" d="M238.638 15.084c.122 1.742-.78 3.339-1.73 4.71-6.317 9.117-20.858 18.777-30.516 12.45 1.115-.203 4.006-.128 6.286-.61 5.414-1.144 9.014-6.917 11.977-12.106 1.816-3.182 2.335-12.337 5.822-13.536 3.328-1.144 7.919 5.618 8.161 9.092z"/></g></g></g><g><g><g><path fill="#424dbf" d="M208.04 19.842c2.464-5.36 4.971-8.778 8.259-12.602 3.287-3.825 7.738-6.694 12.5-6.676.567.002 1.151.049 1.66.335.581.327.997.926 1.392 1.505 2.186 3.201 6.4 7.496 6.732 11.944-8.248-.874-16.935 2.046-23.71 7.292-5.057 3.916-8.116 11.15-8.649 11.136-5.079-.123.655-10.412 1.815-12.934z"/></g></g></g></g><g><g><g><g><path fill="#242449" d="M171.569 21.731c.139 1.741 1.268 3.174 2.409 4.375 7.597 7.987 23.398 15.184 31.999 7.374-1.132-.02-3.977.519-6.301.411-5.519-.256-9.933-5.378-13.632-10.026-2.267-2.85-4.141-11.81-7.764-12.433-3.458-.593-6.988 6.828-6.711 10.299z"/></g></g></g><g><g><g><path fill="#424dbf" d="M202.506 21.494c-3.231-4.898-6.217-7.87-10.034-11.118-3.816-3.247-8.64-5.363-13.342-4.577-.56.093-1.13.235-1.589.599-.525.417-.848 1.076-1.152 1.712-1.684 3.515-5.208 8.438-4.875 12.886 8.018-2.195 17.035-.713 24.508 3.377 5.578 3.052 9.675 9.704 10.201 9.605 4.998-.94-2.196-10.18-3.717-12.484z"/></g></g></g></g></g><g><g><g><g><path fill="#f17187" d="M261.923 115.638l-96.835 7.863-6.455-86.313 96.835-7.863z"/></g></g></g><g><g><g><path fill="#f17187" d="M263.718 50.584l-110.075 8.938-1.63-21.796 110.075-8.938z"/></g></g></g></g><g opacity=".1"><g opacity=".1"><g opacity=".1"><g opacity=".1"><path d="M164.387 58.65l92.711-7.528.582 7.773z"/></g></g></g></g><g><g><g><path fill="#424dbf" d="M218.667 119.15l-11.985.974-6.536-87.394c-.066-.886.535-1.657 1.343-1.723l9.059-.735c.808-.066 1.516.6 1.583 1.485z"/></g></g></g></g><g><g><g><path fill="#babcbe" d="M345.574 155.191l32.68 35.43-24.838 21.09-3.673-4.43 9.728-20.216-19.054-16.799z"/></g></g><g><g><g><g><path fill="#242449" d="M353.708 243.482l1.475 34.213-4.325 58.173-6.47.46-7.861-52.835-10.876-44.71z"/></g></g><g><g><path fill="#1b1b32" d="M344.62 339.054l7.245 3 3.25-3.746-3.747-3.25-6.997.497z"/></g></g></g><g><g><g><path fill="#242449" d="M307.904 231.375l-1.42 25.86 4.214 76.895 6.478.324 9.71-50.433 8.564-55.305z"/></g></g><g><g><path fill="#1b1b32" d="M317.002 337.184l-7.18 3.153-3.328-3.678 3.677-3.328 7.006.35z"/></g></g></g><g><g><g><path fill="#babcbe" d="M345.574 155.19l-20.217-2.165s-11.247 1.202-18.878 27.912c-4.246 14.859-5.538 38.272-5.85 56.121.478 2.546 3.252 13.699 14.982 11.807 20.142-3.249 30.863-6.498 39.635-4.874 7.472 1.625 6.84-8.663 6.02-16.514l-2.978-24.291z"/></g></g></g><g><g><g><path fill="#be6753" d="M341.67 130.026c-5.096-1.123-10.34-2.129-15.442-1.119-1.117.22-2.316.61-2.922 1.574-.235.374-.36.805-.474 1.23-1.287 4.786-2.92 11.879.23 16.288.601.84 1.408 1.508 2.274 2.05a11.2 11.2 0 0 0 3.77 1.479 20.295 20.295 0 0 1-1.141 3.475c1.166 1.76 6.608 1.97 7.614.283l.17-4.377a10.849 10.849 0 0 0 1.902-.99c2.326-1.53 3.858-3.855 4.748-6.456.97-2.831 2.333-5.523 3.22-8.409.321-1.051.576-2.25.022-3.202-.588-1.012-1.859-1.356-3.002-1.61l-.97-.216z"/></g></g><g><g><path fill="#242449" d="M324.709 132.762c2.519-1.62 6.297-2.317 8.665-2.145 7.16.518 9.783 5.776 10.165 12.36 1.973-2.508 5.674-5.661 5.898-8.887.183-2.64-.182-6.24-1.661-8.521-1.385-2.134-4.924-3.306-7.029-4.542l-5.952-3.497c-.413-.242-.837-.489-1.31-.571-.556-.097-1.125.046-1.673.188l-14.068 3.636c-.901.233-1.927.573-2.26 1.442-.2.529-.082 1.12.039 1.672.532 2.435 1.554 4.923 1.807 7.39.287 1.432 1.141 8.775 3.678 7.928.745-1.218.856-2.719 1.437-4.023.428-.964 1.243-1.773 2.264-2.43z"/></g></g></g><g><g><path fill="#babcbe" d="M325.357 153.025l-7.472 2.274-27.29 28.59-1.624 9.422 13.046 21.54 3.523-7.896-5.523-15.919 8.771-6.173 11.696-26.315z"/></g></g></g></g><g><g><path fill="#f7c1a3" d="M265.187 117.094l1.35-8.298-3.522-.731-2.183 5.477-1.505-1.118-.29 7.241 3.558 1.255z"/></g></g><g><g><path fill="#39b54a" d="M221.122 165.004l23.358-19.652 14.557-25.687 4.831 1.29-7.28 31.888-24.68 29.775z"/></g></g><g><g><g><g><path fill="#1b1b32" d="M217.687 338.32l.342 3.568 7.225 3.095 3.099-3.806-3.785-3.332-7.225-3.095z"/></g></g></g><g><g><g><path fill="#3b308a" d="M211.652 265.986l5.564 71.208 6.961.946 5.762-60.691 4.765-19.255z"/></g></g></g></g><g><g><g><g><path fill="#3b308a" d="M195.003 247.3l-4.173 84.615 6.35 1.194 13.232-64.025 7.279-18.539z"/></g></g></g><g><g><g><path fill="#1b1b32" d="M196.615 335.91l-7.545 2.308-2.756-4.246 4.111-2.954 6.868 1.292z"/></g></g></g></g><g><g><g><path fill="#39b54a" d="M203.983 155.911c5.142-4.257 17.539-1.809 24.062-1.809-.628 0 20.296 82.255 21.78 86.959 2.46 7.795 2.453 16.979 1.758 25.047-7.001 1.924-13.557 5.527-20.757 6.46-5.923.769-11.904-.32-17.853-.847-7.036-.622-14.12-.457-21.162-.998-7.042-.54-14.161-1.836-20.394-5.157 2.788-5.394 4.934-11.093 6.721-16.89 1.773-5.755 4.055-12.147 4.702-18.148.585-5.422.681-10.94 1.47-16.436.917-6.395 2.02-12.769 3.552-19.048a143.287 143.287 0 0 1 6.901-21.048c2.16-5.195 4.738-13.704 8.797-17.703.135-.133.276-.26.423-.382z"/></g></g></g><g><g><g><g><path fill="#242449" d="M214.907 136.229c-3.258.592-7.274 3.376-8.059 6.812-.378 1.655.16 3.18-.314 4.935-.924 3.464 3.267 8.566-.882 10.974-2.132 1.238-4.797.837-7.223.398-.294-.053-.602-.112-.835-.3-.383-.31-.447-.886-.302-1.357.145-.47.457-.867.729-1.277 2.851-4.287 2.16-10.436 3.269-15.318 1.106-4.873 3.724-9.726 8.55-11.726a11.087 11.087 0 0 1 4.757 6.904z"/></g></g></g><g><g><g><path fill="#f7c1a3" d="M210.819 157.206c-3.134-1.34-5.21-4.532-5.893-7.872-.682-3.339-.14-6.816.781-10.098 3.07-10.92 16.776-7.792 19.972 1.546 2.785 8.139-5.747 20.321-14.86 16.424z"/></g></g></g><g><g><g><path fill="#242449" d="M226.775 163.213c-1.538-.957-3.047-1.958-3.938-3.744-1.441-2.887-.833-7.373-1.005-10.505-.18-3.302-.48-6.9-2.745-9.31-1.478-1.573-3.297-2.005-5.35-2.215-1.407-.143-1.507.385-2.633-.472-.863-.658-1.495-2.454-1.62-3.484-.21-1.736.63-3.477 1.871-4.71 1.91-1.898 4.052-2.738 6.672-2.572 9.194.58 15.618 6.61 17.44 15.796.875 4.415-.455 9.134.518 13.395.6 2.63 2.096 4.477 2.528 7.26 1.12 7.223 4.258 16.605 3.336 23.895-.034.27-.092.567-.31.73-.444.33-1.024-.168-1.349-.617l-5.678-7.864c-.743-1.029-1.495-2.076-1.926-3.271-1.072-2.973-.076-6.616-1.926-9.179-1.01-1.4-2.46-2.247-3.885-3.133z"/></g></g></g></g><g><g><path fill="#f7c1a3" d="M160.99 124.307l-2.272-8.094 3.417-1.122 2.783 5.198 1.37-1.28 1.101 7.162-3.394 1.646z"/></g></g><g><g><path fill="#39b54a" d="M210.153 166.97l-25.416-16.907-17.348-23.892-4.656 1.825 10.812 30.87 27.866 26.817z"/></g></g><g><g><path fill="#f7c1a3" d="M67.165 114.303l5.812-8.666 4.86 2.103-2.294 6.738 2.798.16-6.132 6.864-5.372-1.653z"/></g></g><g><g><path fill="#4cbbdd" d="M104.174 161.347l8.144 2.793 13.177 19.749 16.873-11.29 5.362 6.365-8.51 12.627-15.322 10.942-19.724-20.641z"/></g></g><g><g><g><g><path fill="#b6b6b8" d="M123.318 218.174l.58 50.13-5.343 64.533h-7.263L102.6 273.3l-9.94-59.64z"/></g></g><g><g><path fill="#1b1b32" d="M111.334 335.9l7.854 3.928 3.928-3.928-3.928-3.927h-7.855z"/></g></g></g><g><g><g><path fill="#b6b6b8" d="M73.516 218.174l-.142 29.002 4.898 85.661h7.264l12.151-56.844 6.487-62.333z"/></g></g><g><g><path fill="#1b1b32" d="M85.494 335.9l-7.855 3.928-3.927-3.928 3.927-3.927h7.855z"/></g></g></g></g><g><g><path fill="#4cbbdd" d="M65.962 235.637c-.156 4.602-.056 10.757 1.882 10.987.362.043.712-.118 1.031-.273 3.37-1.637 5.771-3.95 9.092-5.532 3.48-1.657 7.436-2.524 11.302-3.123 5.766-.92 11.627-1.474 17.43-1.525 4.987-.044 10.174 2.23 14.889 3.482 1.815.482 3.29 1.804 4.8 2.842 2.226 1.532 3.202 2.138 2.9-.992-.497-5.108-1.011-10.215-1.64-15.31-1.253-10.158-2.959-20.294-5.846-30.129-1.103-3.757-2.375-7.462-3.647-11.165l-4.646-13.53c-1.925-5.605-5.173-9.554-10.862-11.514-4.916-1.695-11.021-2.158-15.803.213-5.315 2.637-7.843 11.62-10.425 16.42-2.262 4.206-5.115 15.679-5.962 20.214-1.019 5.46-1.96 10.89-2.702 16.31-.82 6-1.4 11.984-1.568 17.932-.018.657-.15 2.496-.225 4.693z"/></g></g><g><g><path fill="#fff" d="M98.17 161.052c-.115.1-.248.179-.401.23-.305.1-.636.063-.955.026l-3.895-.46c.428-3.978-1.897-4.877-4.162-7.434-2.296-2.593-1.589-6.089-1.46-9.262.037-.883.08-1.794.454-2.595.655-1.407 2.182-2.184 3.664-2.644 3.782-1.176 8.107-.886 11.438 1.258.886.57 1.713 1.287 2.193 2.225.741 1.447.553 3.174.346 4.786-.317 2.477-1.05 4.91-2.451 7-1.306 1.945-3.794 2.876-4.08 5.211-.074.604-.257 1.282-.691 1.659z"/></g></g><g><g><g><path fill="#242449" d="M105.283 144.302c-.221.999-.687 2.01-.444 3.004 1.587-.539 2.624-2.162 3.186-3.812.255-.748.44-1.54.376-2.332-.064-.79-.408-1.587-1.032-2.034-.872-.624-2.436-.379-2.686.752-.252 1.141.932 2.918.6 4.422z"/></g></g><g><g><path fill="#242449" d="M113.709 135.524c-.037-1.197-.494-2.267-1.563-2.99-.923-.623-1.986-1.139-2.546-2.13-.435-.768-.499-1.719-.93-2.49-.78-1.397-2.474-1.807-3.948-2.281-3.686-1.183-5.671-2.55-9.575-1.035-2.776 1.078-6.362 1.222-8.939 2.794-1.075.656-1.991 1.711-2.742 2.885-2.603 4.07-3.228 9.79-1.532 14.036.379.95.86 1.823 1.376 2.66 1.03 1.672 2.135 3.73 3.96 4.549.114-.788.702-1.223.885-1.997.132-.558.088-1.142.059-1.716-.112-2.23-.796-5.76 1.432-6.867 2.818-1.399 8.105-.137 10.819 1.048 2.401 1.048 6.454 2.412 9.015 1.289 2.377-1.042 4.31-5.197 4.229-7.755z"/></g></g></g><g><g><path fill="#4cbbdd" d="M89.069 159.56l-24.92-7.345 9.225-31.155-7.602-5.451-18.347 36.065 5.074 12.49 23.81 12.29z"/></g></g><g><g><path fill="#be6753" d="M308.446 183.125l1.934 4.268-7.037 3.06-6.514-4.507 3.43-5.908z"/></g></g><g><g><path fill="#ffaf00" d="M54.148 292.086l-6.496-103.515 270.828-16.995 6.496 103.515z"/></g></g><g><g><path fill="#fff" d="M310.198 180.438l5.452 86.896-253.219 15.89-5.453-86.895zm7.177 88.417l-5.657-90.141-256.464 16.094 5.656 90.14z"/></g></g><g><g><g><g><g><path fill="#2693ff" d="M320.55 299.29l28.565-50.385-13.666-7.748-13.666-7.747-28.564 50.385 19.12-1.874z"/></g></g></g></g></g><g><g><g><g><g><path fill="#2693ff" d="M359.17 304.822l-13.273-56.378 15.291-3.6 15.292-3.6 13.272 56.378-17.825-7.166z"/></g></g></g></g></g><g><g><g><g><g><path fill="url(#4vaja)" d="M401.107 219.51l8.285-5.306-6.43-7.446 6.63-7.269-8.137-5.529 4.522-8.736-9.292-3.234 2.107-9.61-9.812-.719-.452-9.827-9.663 1.844-2.98-9.375-8.858 4.283-5.305-8.285-7.446 6.43-7.27-6.63-5.527 8.138-8.737-4.522-3.234 9.291-9.61-2.106-.72 9.81-9.826.454 1.844 9.663-9.375 2.98 4.283 8.857-8.285 5.305 6.43 7.447-6.63 7.269 8.138 5.528-4.522 8.737 9.29 3.234-2.106 9.61 9.812.719.453 9.827 9.663-1.845 2.98 9.376 8.857-4.283 5.305 8.284 7.446-6.43 7.27 6.63 5.528-8.137 8.737 4.522 3.234-9.291 9.61 2.106.718-9.812 9.828-.452-1.845-9.663 9.376-2.98z"/></g></g></g></g></g><g><g><g><g><path fill="#fff" d="M346.819 239.974c-18.715-3.748-30.848-21.958-27.1-40.672 3.748-18.715 21.958-30.848 40.673-27.1 18.714 3.748 30.847 21.958 27.1 40.672-3.749 18.715-21.958 30.848-40.673 27.1z"/></g></g></g></g><g><g><path fill="#be6753" d="M400.11 170.471l1.087 4.558-7.49 1.665-5.538-5.664 4.493-5.147z"/></g></g><g><g><path fill="#f7c1a3" d="M142.87 171.207l8.316 3.12 2.064 8.824-4.823 1.098-3.91-5.347-3.213-.2-3.018-4.873z"/></g></g><g><g><text fill="#fff" style="line-height:35.18599319458008px;font-kerning:normal" dominant-baseline="text-before-edge" font-family="'Proxima Nova','ProximaNova-Semibold'" font-size="29.32" letter-spacing="5.86" transform="translate(91 209)"><tspan>REWARDS</tspan></text></g></g><g><g><path fill="#33333d" d="M365.448 210.64c-1.236 3.11-3.402 5.612-6.62 7.65-2.312 1.463-4.795 2.443-6.879 3.118-5.057-3.53-9.263-8.091-9.77-14.239-.431-5.218.378-10.576.97-13.585 2.675-.79 7.552-1.812 13.096-.985 5.54.826 9.908 3.227 12.243 4.77-.309 3.04-1.094 8.376-3.04 13.271"/></g><g><path fill="url(#4vajb)" d="M356.968 187.75l-.723 4.85c5.54.825 9.908 3.226 12.243 4.768-.08.795-.194 1.748-.353 2.809a56.107 56.107 0 0 1-.944 4.884c-.441 1.825-1.009 3.733-1.743 5.58-.05.125-.102.251-.156.375-1.085 2.533-2.811 4.654-5.246 6.443-1.988 1.466-4.295 2.592-6.73 3.479l-.001.001-.04.014-.029.01c-.383.14-.758.268-1.121.388l-.01.003-.083.027-.024.008-.018.006-.04.013-.8 5.355c5.985-1.66 15.2-5.119 18.854-14.312 1.599-4.024 2.49-8.28 2.98-11.577.514-3.442.594-5.84.594-5.84s-6.59-5.789-16.61-7.284"/></g><g><path fill="#282830" d="M365.292 211.016c-1.085 2.533-2.811 4.654-5.246 6.443 2.25-1.661 4.093-3.759 5.246-6.443M353.245 220.963l-.033.013-.007.003-.188.067.228-.082m-.228.082l-.131.046.113-.04zm-.145.051l-.003.001-.057.02-.017.006.09-.032zm-.077.027c-.13.045-.257.089-.383.131l.076-.026.307-.105zm-.388.133h-.002l.007-.002zm-.002 0l-.111.038.066-.023zm-.14.048l-.007.002-.115.038-.018.006.169-.056zm-.15.049l-.083.027.052-.017.031-.01m-.107.035"/></g><g><path fill="url(#4vajc)" d="M351.99 221.39499999999998"/></g><g><path fill="#1f1f25" d="M356.245 192.6c5.54.825 9.908 3.226 12.243 4.768-2.335-1.542-6.704-3.943-12.243-4.769m-.109.735c5.19.774 9.349 2.996 11.565 4.41-.316 2.885-1.098 7.98-2.943 12.621-1.845 4.64-5.996 7.986-12.687 10.22l4.065-27.251M367.813 202.118zm.322-1.941a60.387 60.387 0 0 1 0 0zM351.949 221.409"/></g><g opacity=".11"><path fill="url(#4vajd)" d="M355.66 197.81c-2.935-.438-5.665-.24-7.805.12l-1.19 7.984a7.7 7.7 0 1 0 15.233 2.272l1.19-7.982c-1.943-.97-4.497-1.957-7.429-2.394z"/></g><g><path fill="#17171c" d="M356.245 192.6c-5.544-.828-10.42.194-13.096.984a62.59 62.59 0 0 0-.48 2.777c-.448 3.006-.81 6.945-.49 10.808.507 6.148 4.713 10.709 9.77 14.24l.122-.823c-5.747-4.09-8.74-8.502-9.152-13.478-.408-4.946.333-10.067.873-12.935 2.53-.703 7.152-1.613 12.344-.839l.11-.735"/></g><g><path fill="url(#4vaje)" d="M367.19 205.061c-.44 1.825-1.008 3.733-1.742 5.58.734-1.847 1.302-3.755 1.743-5.58m-1.743 5.58a12.667 12.667 0 0 1-.027.066l.003-.007.01-.026zM360.018 217.48c-1.98 1.455-4.276 2.574-6.698 3.457l-.003.001c2.434-.887 4.74-2.013 6.728-3.479zm-6.703 3.459l-.027.01.025-.01h.002m-.04.014l.013-.005zm-1.15.398l-.005.002.004-.002h.001m-.009.003l.004-.001z"/></g><g><path fill="#121216" d="M365.42100000000005 210.707c-1.147 2.844-3.053 5.046-5.403 6.773l.028-.021c2.25-1.661 4.093-3.759 5.246-6.443.044-.102.087-.205.129-.309m-12.101 10.23l-.003.001-.002.001h-.002zm-.044.016l-.026.01.025-.01m-.063.023l.033-.012h.001zm.034-.012l.004-.002-.004.002zM352.144 221.345l-.019.006h-.001l.02-.006m-.028.009l-.032.01.031-.01h.001"/></g><g><path fill="url(#4vajf)" d="M360.018 217.48c-1.98 1.455-4.276 2.574-6.698 3.457 1.756-.641 3.685-1.494 5.508-2.648.414-.262.811-.532 1.19-.809M351.99 221.395"/></g><g><path fill="#0e0e11" d="M356.245 192.6l-.109.734c5.19.774 9.349 2.996 11.565 4.41-.316 2.885-1.098 7.98-2.943 12.621-1.845 4.64-5.996 7.986-12.687 10.22l-.122.823.041-.013.018-.006.024-.008.052-.017.032-.01.008-.003.02-.006.114-.038.006-.002.096-.033.047-.015.08-.028c.103-.034.206-.07.308-.105l.017-.006.057-.02h.003l.127-.046.018-.006.188-.067.007-.003.064-.023.037-.014.007-.002c1.756-.641 3.685-1.494 5.508-2.648.414-.262.811-.532 1.19-.809 2.35-1.727 4.256-3.93 5.403-6.773l.003-.007.01-.026.014-.034c.734-1.846 1.302-3.754 1.743-5.579a58.69 58.69 0 0 0 1.297-7.693c-2.335-1.542-6.704-3.943-12.243-4.769"/></g><g><path fill="#fff" d="M357.852 208.114a3.495 3.495 0 0 1-2.399.507l-1.386-.207 1.255-8.413-2.966-.442-1.6 10.727 7.872 1.174.002-.014a4.654 4.654 0 0 0-.778-3.332z"/></g><g><g><path fill="url(#4vajg)" d="M357.85 208.116a3.502 3.502 0 0 1-2.397.505l-1.188-.177-2.426 2.004 2.611.389c2.893-.112 3.363-2.271 3.4-2.72z"/></g></g><g><path fill="url(#4vajh)" d="M342.18 207.169c-.32-3.863.041-7.802.489-10.808a62.59 62.59 0 0 1 .48-2.777c2.675-.79 7.552-1.812 13.096-.985l.723-4.849c-10.02-1.494-18.011 2.121-18.011 2.121s-2.392 8.88-1.664 17.7c.813 9.861 8.618 15.857 13.857 19.192l.8-5.355c-5.058-3.53-9.264-8.091-9.77-14.24z"/></g></g></g></g></svg>