<svg xmlns="http://www.w3.org/2000/svg" width="164" height="36" viewBox="0 0 164 36"><g><g><path fill="#77c159" d="M98.834 15.486c-4.209 0-6.066 2.172-6.066 5.25v14.392h-6.28V20.909c.034-5.929 3.46-11.759 12.346-11.759m52.643 20.562c.494 0 1.014-.053 1.557-.16a7.233 7.233 0 0 0 1.645-.545 7.661 7.661 0 0 0 1.62-1.026 9.268 9.268 0 0 0 1.508-1.582v-7.864a8.83 8.83 0 0 0-1.508-1.57 8.397 8.397 0 0 0-1.62-1.027 6.87 6.87 0 0 0-1.645-.556 8.116 8.116 0 0 0-1.557-.161c-.973 0-1.884.181-2.733.544a6.67 6.67 0 0 0-2.213 1.521 7.08 7.08 0 0 0-1.471 2.3c-.355.882-.532 1.842-.532 2.88 0 1.039.177 2 .532 2.882a7.08 7.08 0 0 0 1.471 2.3 6.664 6.664 0 0 0 2.213 1.52 6.87 6.87 0 0 0 2.733.544zm-13.428-7.245c0-1.847.31-3.57.927-5.17.618-1.598 1.484-2.991 2.597-4.178a11.934 11.934 0 0 1 3.994-2.794c1.55-.676 3.247-1.014 5.094-1.014 1.4 0 2.679.206 3.833.618 1.154.412 2.258 1.08 3.313 2.003V2.214h6.28v32.914h-6.28V33c-1.055.94-2.159 1.612-3.313 2.016-1.155.404-2.432.605-3.833.605-1.847 0-3.545-.337-5.094-1.013a11.964 11.964 0 0 1-3.994-2.795c-1.113-1.187-1.98-2.58-2.597-4.18-.618-1.598-.927-3.32-.927-5.167zm-9.17-12.662h6.282v25.323h-6.281zm3.142-1.982c-.51 0-.99-.1-1.444-.299a3.86 3.86 0 0 1-2.003-2.003c-.199-.455-.3-.947-.299-1.444 0-.508.1-.993.3-1.455a3.814 3.814 0 0 1 2.003-2.015c.455-.199.946-.301 1.443-.298.51 0 .994.1 1.455.298.449.19.858.466 1.204.811.345.346.62.755.811 1.204.2.462.299.947.299 1.456 0 .508-.1.99-.299 1.443a3.834 3.834 0 0 1-2.016 2.003c-.46.199-.954.3-1.454.3zm-19.26 27.8c-1.83 0-3.552-.33-5.168-.99a13.136 13.136 0 0 1-4.241-2.757 13.02 13.02 0 0 1-2.869-4.179c-.7-1.608-1.05-3.351-1.05-5.23 0-1.83.35-3.545 1.05-5.144.7-1.6 1.653-2.992 2.857-4.18a13.367 13.367 0 0 1 4.241-2.806 13.215 13.215 0 0 1 5.18-1.026c1.83 0 3.553.342 5.169 1.026a13.397 13.397 0 0 1 4.228 2.807 13.293 13.293 0 0 1 2.857 4.18c.7 1.598 1.05 3.313 1.05 5.143 0 1.879-.35 3.622-1.05 5.23-.7 1.607-1.657 3-2.868 4.179a13.168 13.168 0 0 1-4.23 2.757c-1.607.66-3.326.99-5.156.99zm0-5.911c.94 0 1.826-.177 2.659-.531a6.521 6.521 0 0 0 2.176-1.497 7.023 7.023 0 0 0 1.459-2.287c.355-.882.532-1.858.532-2.93 0-1.055-.182-2.024-.544-2.906a7.117 7.117 0 0 0-1.484-2.287 6.865 6.865 0 0 0-2.176-1.51 6.445 6.445 0 0 0-2.622-.543c-.939 0-1.825.181-2.658.544a6.7 6.7 0 0 0-2.176 1.51 7.199 7.199 0 0 0-1.47 2.286c-.364.882-.546 1.851-.546 2.906 0 1.071.178 2.048.532 2.93.355.882.841 1.645 1.46 2.287a6.521 6.521 0 0 0 2.175 1.497 6.776 6.776 0 0 0 2.683.53zm-42.026 0c.495 0 1.014-.053 1.558-.16a7.287 7.287 0 0 0 1.645-.545 7.65 7.65 0 0 0 1.619-1.026 9.276 9.276 0 0 0 1.51-1.582v-7.864a8.838 8.838 0 0 0-1.51-1.57 8.385 8.385 0 0 0-1.619-1.027 6.921 6.921 0 0 0-1.645-.556 8.116 8.116 0 0 0-1.558-.161c-.973 0-1.883.181-2.732.544a6.68 6.68 0 0 0-2.213 1.521 7.064 7.064 0 0 0-1.472 2.3c-.355.882-.532 1.842-.53 2.88 0 1.039.175 2 .53 2.882a7.078 7.078 0 0 0 1.471 2.3 6.677 6.677 0 0 0 2.214 1.52 6.866 6.866 0 0 0 2.732.544zm-13.428-7.245c0-1.847.31-3.57.928-5.17.618-1.598 1.484-2.991 2.596-4.178a11.953 11.953 0 0 1 3.994-2.794c1.55-.676 3.248-1.014 5.094-1.014 1.401 0 2.679.206 3.833.618 1.154.412 2.259 1.08 3.314 2.003V2.214h6.28v32.914h-6.28V33c-1.055.94-2.16 1.612-3.314 2.016-1.154.404-2.432.605-3.833.605-1.846 0-3.544-.337-5.094-1.013a11.984 11.984 0 0 1-3.994-2.795c-1.112-1.187-1.978-2.58-2.596-4.18-.619-1.598-.928-3.32-.928-5.167zm-20.373-1.73v14.39h-6.282V20.91c.035-5.929 5.17-11.518 11.753-11.598h.176c6.583.08 11.718 5.67 11.753 11.598v14.219h-6.281V20.736c0-3.077-2.585-5.151-5.56-5.174-2.976.023-5.56 2.097-5.56 5.174zm-22.752 8.975c.495 0 1.014-.053 1.558-.16a7.264 7.264 0 0 0 1.645-.545 7.68 7.68 0 0 0 1.619-1.026 9.234 9.234 0 0 0 1.509-1.582v-7.864a8.8 8.8 0 0 0-1.51-1.57 8.397 8.397 0 0 0-1.62-1.027 6.879 6.879 0 0 0-1.643-.556 8.126 8.126 0 0 0-1.558-.161c-.972 0-1.884.181-2.732.544-.85.363-1.587.87-2.214 1.521a7.096 7.096 0 0 0-1.471 2.3c-.355.882-.532 1.842-.532 2.88 0 1.039.177 2 .532 2.882a7.096 7.096 0 0 0 1.471 2.3 6.674 6.674 0 0 0 2.213 1.52c.85.363 1.761.544 2.733.544zM.754 22.467c0-1.847.31-3.57.928-5.17.618-1.598 1.483-2.991 2.596-4.178a11.934 11.934 0 0 1 3.994-2.794c1.55-.676 3.248-1.014 5.094-1.014 1.402 0 2.675.206 3.82.618 1.147.412 2.255 1.088 3.327 2.028V9.805h6.28v25.323h-6.28v-2.152c-1.072.94-2.18 1.616-3.326 2.028-1.146.412-2.42.618-3.82.618-1.847 0-3.546-.337-5.095-1.013a11.964 11.964 0 0 1-3.994-2.795c-1.113-1.187-1.978-2.58-2.596-4.18-.619-1.598-.928-3.32-.928-5.167z"/></g></g></svg>