<svg xmlns="http://www.w3.org/2000/svg" width="63" height="32" viewBox="0 0 63 32"><g><g><g><g><path fill="#999" d="M4.785 10.148V31.42H1.047V10.148zm.839-6.677c0 .364-.073.703-.22 1.018a2.953 2.953 0 0 1-.588.84c-.245.245-.529.438-.85.578-.323.14-.666.21-1.03.21s-.703-.07-1.018-.21a2.775 2.775 0 0 1-.84-.578 2.738 2.738 0 0 1-.577-.84A2.486 2.486 0 0 1 .29 3.471c0-.364.071-.711.211-1.04.139-.33.332-.616.577-.86.245-.245.525-.438.84-.578a2.47 2.47 0 0 1 1.019-.21c.363 0 .706.07 1.029.21.321.14.605.333.85.577.245.245.44.532.588.86.147.33.22.677.22 1.04z"/></g><g><path fill="#999" d="M34.981 21.35c-.504 1.464-1.218 2.703-2.142 3.718a9.187 9.187 0 0 1-3.36 2.331c-1.316.54-2.786.809-4.41.809-1.61 0-3.073-.27-4.39-.809a9.306 9.306 0 0 1-3.37-2.33c-.93-1.016-1.647-2.255-2.15-3.718-.505-1.463-.758-3.118-.758-4.966 0-1.848.253-3.507.757-4.977.504-1.47 1.22-2.712 2.152-3.727a9.402 9.402 0 0 1 3.37-2.341c1.316-.547 2.78-.819 4.39-.819 1.623 0 3.093.272 4.409.819a9.28 9.28 0 0 1 3.36 2.34c.924 1.016 1.638 2.258 2.142 3.728.504 1.47.756 3.13.756 4.977 0 1.848-.252 3.503-.756 4.966zm4.934-4.965c0-2.254-.356-4.322-1.07-6.205-.714-1.883-1.722-3.507-3.025-4.872-1.301-1.365-2.865-2.425-4.693-3.181C29.3 1.371 27.281.993 25.069.993c-2.212 0-4.228.378-6.047 1.134-1.82.756-3.381 1.816-4.683 3.18-1.302 1.366-2.31 2.99-3.024 4.873s-1.07 3.95-1.07 6.205c0 2.254.356 4.322 1.07 6.205.714 1.883 1.722 3.504 3.024 4.861 1.302 1.358 2.862 2.412 4.683 3.161 1.819.75 3.835 1.123 6.047 1.123 2.212 0 4.23-.374 6.058-1.123 1.828-.749 3.392-1.803 4.693-3.16 1.303-1.358 2.31-2.98 3.025-4.862.714-1.883 1.07-3.951 1.07-6.205z"/></g><g><path fill="#999" d="M60.893 6.033a1.65 1.65 0 0 1-.399.472c-.14.105-.323.157-.546.157-.238 0-.515-.119-.83-.357-.314-.238-.714-.5-1.196-.787a9.752 9.752 0 0 0-1.743-.787c-.68-.238-1.501-.357-2.467-.357-.911 0-1.715.123-2.415.367-.7.245-1.285.578-1.754.997a4.1 4.1 0 0 0-1.06 1.48 4.695 4.695 0 0 0-.357 1.838c0 .84.206 1.537.62 2.09.412.553.958 1.025 1.637 1.417.679.392 1.449.732 2.31 1.018.86.288 1.743.585 2.645.893a31.28 31.28 0 0 1 2.647 1.04 9.31 9.31 0 0 1 2.309 1.459 6.662 6.662 0 0 1 1.638 2.163c.413.854.62 1.904.62 3.15 0 1.316-.224 2.55-.672 3.706a8.536 8.536 0 0 1-1.963 3.014c-.861.853-1.918 1.526-3.17 2.015-1.254.49-2.678.735-4.274.735-1.947 0-3.721-.353-5.324-1.06-1.603-.707-2.971-1.663-4.105-2.866l1.176-1.933c.112-.153.248-.283.409-.388a.965.965 0 0 1 .536-.157c.294 0 .63.157 1.007.472.379.315.851.661 1.418 1.04.567.378 1.253.724 2.058 1.04.805.314 1.788.471 2.95.471.966 0 1.828-.133 2.583-.398.756-.266 1.397-.641 1.922-1.124a4.868 4.868 0 0 0 1.208-1.732c.279-.672.42-1.42.42-2.247 0-.91-.208-1.656-.62-2.237a5.144 5.144 0 0 0-1.628-1.46 11.496 11.496 0 0 0-2.3-.997c-.86-.273-1.742-.552-2.645-.84a26.49 26.49 0 0 1-2.646-.997 8.612 8.612 0 0 1-2.3-1.47c-.671-.601-1.214-1.354-1.627-2.257-.413-.904-.62-2.02-.62-3.35 0-1.064.207-2.092.62-3.087a7.93 7.93 0 0 1 1.796-2.645c.784-.77 1.753-1.386 2.908-1.848 1.155-.462 2.481-.693 3.98-.693 1.68 0 3.212.266 4.598.798A10.611 10.611 0 0 1 61.88 4.1z"/></g></g></g></g></svg>