<svg xmlns="http://www.w3.org/2000/svg" width="205" height="44" viewBox="0 0 205 44"><g><g><g><g><path fill="#f8682c" d="M.122 6.255l17.686-2.408.007 17.06-17.677.099z"/></g><g><path fill="#91c300" d="M19.943 3.532L43.393.11v20.58l-23.45.186z"/></g><g><path fill="#00b4f1" d="M17.799 22.871l.014 17.074-17.677-2.43-.001-14.758z"/></g><g><path fill="#ffc300" d="M43.398 23.032l-.005 20.487-23.45-3.31-.032-17.215z"/></g></g><g><g><path d="M195.54 24.941c1.6.671 2.755 1.363 3.465 2.074.916.905 1.374 2.052 1.374 3.447 0 1.54-.573 2.818-1.724 3.835-1.257 1.1-2.976 1.65-5.154 1.65-1.784 0-3.339-.379-4.66-1.137v-3.228c1.47 1.198 3.095 1.798 4.88 1.798 2.385 0 3.577-.876 3.577-2.623 0-.734-.263-1.34-.787-1.817-.527-.478-1.554-1.052-3.082-1.725-1.577-.685-2.696-1.393-3.357-2.127-.796-.868-1.193-2-1.193-3.394 0-1.566.619-2.864 1.854-3.898 1.235-1.032 2.824-1.55 4.768-1.55 1.493 0 2.832.294 4.016.88v3.027c-1.233-.893-2.65-1.339-4.253-1.339-1.005 0-1.803.244-2.404.734-.6.49-.898 1.119-.898 1.888 0 .832.25 1.48.753 1.945.452.428 1.394.948 2.824 1.56zm-10.423-8.237h2.973l-5.632 18.783h-3.117l-3.872-13.445a10.187 10.187 0 0 1-.293-1.725h-.074c-.035.43-.164.99-.385 1.688l-4.2 13.482h-3.008l-5.67-18.783h3.157l3.87 14.122c.122.491.208 1.053.256 1.689h.148a7.567 7.567 0 0 1 .348-1.724l4.31-14.088h2.752l3.907 14.161c.122.452.208 1.015.256 1.688h.146c.025-.477.124-1.04.294-1.688zm-28.374 14.747c1.014-1.247 1.52-3.02 1.522-5.32 0-2.41-.544-4.243-1.633-5.503-1.051-1.211-2.525-1.816-4.421-1.816-1.87 0-3.367.612-4.493 1.834-1.186 1.31-1.779 3.16-1.779 5.558 0 2.251.569 4.009 1.706 5.274 1.136 1.266 2.659 1.899 4.566 1.899 1.981 0 3.491-.642 4.532-1.926zm-4.312-15.205c2.8 0 4.987.868 6.558 2.604 1.57 1.735 2.357 4.126 2.357 7.172 0 2.995-.843 5.397-2.532 7.208-1.687 1.81-3.962 2.714-6.823 2.714-2.824 0-5.061-.904-6.713-2.714-1.615-1.747-2.42-4.053-2.42-6.914 0-3.265.916-5.79 2.75-7.576 1.7-1.663 3.974-2.494 6.823-2.494zm-15.889 10.748l.001-2.77c0-1.503-.49-2.77-1.467-3.796-1.015-1.077-2.299-1.615-3.852-1.615-1.834 0-3.277.67-4.328 2.01-1.053 1.337-1.579 3.194-1.579 5.567 0 2.262.545 4.016 1.633 5.263 1.003 1.149 2.312 1.725 3.925 1.725 1.71 0 3.099-.624 4.164-1.871 1.002-1.2 1.503-2.703 1.503-4.513zm0-19.313h3.007v27.806h-3.007v-3.193h-.074c-1.393 2.434-3.546 3.651-6.456 3.651-2.312 0-4.17-.82-5.576-2.458-1.468-1.687-2.2-3.999-2.2-6.933 0-3.13.782-5.631 2.348-7.501 1.565-1.873 3.65-2.808 6.253-2.808 2.568 0 4.446 1.015 5.632 3.045h.073zm-23.424 8.565c2.066 0 3.64.673 4.723 2.018 1.083 1.345 1.624 3.25 1.624 5.722v11.501h-3.009V24.775c0-3.975-1.454-5.962-4.365-5.962-1.505 0-2.75.563-3.733 1.688-.984 1.125-1.476 2.549-1.476 4.274v10.712h-3.009V16.704h3.009v3.12h.072c1.406-2.386 3.461-3.578 6.164-3.578zM97.893 8.028c.551 0 1.018.187 1.404.559.385.374.578.835.578 1.385 0 .551-.193 1.015-.578 1.395a1.928 1.928 0 0 1-1.404.569 1.93 1.93 0 0 1-1.384-.551c-.385-.366-.578-.838-.578-1.412 0-.55.192-1.012.578-1.385.385-.373.846-.56 1.384-.56zm-1.54 8.677h3.008v18.782h-3.008zm-5.376-7.52h3.34l-7.43 26.304h-3.613l-5.412-19.243a11.58 11.58 0 0 1-.403-2.66h-.074c-.085.906-.25 1.78-.494 2.624l-5.448 19.277h-3.577L60.181 9.185h3.375L69.15 29.36c.233.833.386 1.712.46 2.643h.073c.05-.65.232-1.53.55-2.643l5.832-20.175h2.971l5.558 20.322c.195.746.342 1.56.44 2.44h.073c.05-.624.214-1.463.495-2.513z"/></g><g><path d="M202.568 17.839v-.554h.261c.15 0 .258.025.32.077.062.051.094.118.094.2a.245.245 0 0 1-.1.2c-.064.051-.177.077-.337.077h-.238zm-.553-.94v2.218h.553v-.873a.345.345 0 0 1 .068-.008c.072 0 .145.041.217.123.073.083.215.336.428.758h.652l-.359-.642a1.133 1.133 0 0 0-.176-.226.645.645 0 0 0-.188-.103c.206-.048.357-.128.453-.236a.57.57 0 0 0 .144-.387.58.58 0 0 0-.188-.455c-.126-.113-.33-.17-.611-.17h-.993zm2.126 2.293a1.616 1.616 0 0 1-1.184.492c-.463 0-.858-.165-1.185-.492a1.616 1.616 0 0 1-.49-1.184c0-.463.163-.858.49-1.185a1.613 1.613 0 0 1 1.185-.492c.462 0 .857.165 1.184.492.328.327.49.722.49 1.185 0 .462-.162.857-.49 1.184zm.616-2.222a2.065 2.065 0 0 0-1.8-1.037c-.37 0-.715.091-1.037.276-.32.185-.574.44-.76.76-.186.323-.28.669-.28 1.039 0 .372.094.718.28 1.039.186.321.44.574.76.759.322.185.667.277 1.037.277.372 0 .719-.092 1.04-.277.32-.185.574-.438.76-.76.185-.32.278-.666.278-1.038 0-.37-.093-.716-.278-1.038z"/></g></g></g></g></svg>