<svg xmlns="http://www.w3.org/2000/svg" width="225" height="36" viewBox="0 0 225 36"><g><g><g><g><path fill="#0097e0" d="M44.318 26.2c-.857 1.081-2.956 1.852-2.956 1.852L25.75 33.66v-4.136l11.49-4.094c1.303-.467 1.504-1.127.444-1.474-1.058-.348-2.974-.248-4.278.22l-7.656 2.698v-4.293l.441-.15s2.212-.782 5.323-1.127c3.111-.342 6.92.047 9.91 1.181 3.37 1.065 3.749 2.634 2.894 3.715z"/></g><g><path fill="#39c4b1" d="M4.145 29.092c-3.46-.974-4.035-3.004-2.458-4.174 1.457-1.08 3.936-1.892 3.936-1.892l10.241-3.642v4.152l-7.37 2.637c-1.3.467-1.502 1.129-.444 1.475 1.06.347 2.975.248 4.28-.22l3.534-1.283v3.715c-.224.04-.474.08-.705.118a23.167 23.167 0 0 1-11.014-.886z"/></g><g><path fill="#f33a40" d="M24.395 2.134c-2.289-.694-5.047-1.45-7.143-1.84v31.581l7.143 2.267V7.656z"/></g><g><path fill="#ffba0c" d="M27.607 3.18v16.137c4.273 1.854 7.586-.32 7.586-5.838 0-5.652-1.943-8.252-7.586-10.298z"/></g></g><g><g><path d="M218.007 24.076c0 .759.302 1.487.839 2.022a2.853 2.853 0 0 0 2.02.839c1.58 0 2.86-1.285 2.86-2.86 0-.759-.3-1.487-.838-2.022a2.854 2.854 0 0 0-4.042 0 2.853 2.853 0 0 0-.838 2.021m.432 2.432a3.4 3.4 0 0 1-1.01-2.432 3.444 3.444 0 0 1 3.436-3.435 3.423 3.423 0 0 1 2.432 1.003 3.421 3.421 0 0 1 1.005 2.432v.013a3.429 3.429 0 0 1-3.437 3.422 3.424 3.424 0 0 1-2.426-1.003zm-61.766-10.715c0-1.182-.295-1.916-.78-2.532-.52-.653-1.579-.897-2.477-.897l-4.64.146v-2.287l5.582-.141s2.642-.113 4.118 1.058c1.03.819 1.72 2.12 1.72 4.362v11.683l-6.745.145s-3.057.01-4.592-.612c-1.5-.61-2.322-2.284-2.322-4.607 0-2.243.693-3.546 1.718-4.364 1.476-1.173 4.123-1.057 4.123-1.057h2.153v1.992h-1.21c-.9 0-1.835.167-2.347.82-.484.61-.744 1.139-.744 2.321 0 1.553.303 2.245 1.03 2.772.644.471 1.805.573 3.094.573l2.319-.142zm-59.342 0c0-1.182-.3-1.916-.785-2.532-.515-.653-1.573-.897-2.479-.897l-4.641.146v-2.287l5.586-.141s2.643-.113 4.12 1.058c1.032.819 1.717 2.12 1.717 4.362v11.683l-6.744.145s-3.054.01-4.592-.612c-1.5-.61-2.318-2.284-2.318-4.607 0-2.243.687-3.546 1.718-4.364 1.477-1.173 4.12-1.057 4.12-1.057h2.154v1.992h-1.21c-.903 0-1.834.167-2.351.82-.482.61-.74 1.139-.74 2.321 0 1.553.301 2.245 1.031 2.772.645.471 1.8.573 3.089.573l2.325-.142zm70.49-5.711h3.964v2.121h-3.964v9.746s0 1.218.125 2.237c.13 1.021.863 1.061 1.46 1.061.598 0 1.588-.071 1.588-.071v2.122l-3.645.071c-2.025 0-2.792-1.26-2.88-1.792-.085-.531-.168-2.042-.168-2.042V6.983h3.52zM204.25 27.35h-3.49V10.223l7.883-.141s2.644-.112 4.12 1.058c1.034.819 1.725 2.12 1.725 4.362V27.35h-3.524V15.793c0-1.182-.303-1.916-.783-2.532-.515-.653-1.578-.897-2.48-.897l-3.451.146zm-17.195-14.101c-.484.597-1.074 1.85-1.074 5.477 0 3.627.59 4.882 1.073 5.475.483.591 1.372.99 2.523.99 1.153 0 2.038-.399 2.526-.989.482-.594 1.072-1.85 1.072-5.475 0-3.628-.59-4.882-1.072-5.477-.488-.592-1.373-.988-2.526-.988-1.151 0-2.04.395-2.522.988m2.412-3.316c2.394 0 4.252.536 5.249 1.342 1.007.809 2.244 2.515 2.244 7.45 0 4.937-1.237 6.64-2.244 7.45-.998.808-2.855 1.347-5.25 1.347-2.4 0-4.25-.539-5.254-1.346-1.005-.81-2.237-2.514-2.237-7.451 0-4.935 1.232-6.642 2.237-7.45 1.005-.806 2.854-1.342 5.255-1.342zm-14.637-5.11h3.517V7.96h-3.517zm0 5.259h3.517v17.286h-3.517zm-33.966-3.1v3.099h3.975v2.121h-3.975v9.746s0 1.218.132 2.237c.124 1.021.856 1.061 1.46 1.061.596 0 1.584-.071 1.584-.071v2.122l-3.646.071c-2.016 0-2.79-1.26-2.876-1.792-.087-.531-.171-2.042-.171-2.042V6.983h3.518m-19.204 20.252v-2.13s3.722.146 4.497.146c1.718 0 2.575-.366 3.22-1.059.382-.415.727-2.255.727-2.91 0-.653-.126-2.065-.382-2.644-.264-.567-.863-1.096-1.763-1.172-.64-.056-1.632-.185-2.791-.24a4.486 4.486 0 0 1-3.217-1.533c-.513-.61-1.2-1.529-1.2-4.34 0-2.815.728-4.393 1.458-5.125.73-.736 1.798-1.059 2.618-1.204.944-.162 2.487-.171 2.487-.171l4.926.143v2.131s-3.592-.144-4.365-.144c-1.718 0-2.233.368-2.876 1.059-.38.411-.677 1.548-.677 2.2 0 .655.076 1.977.334 2.549.256.567.858 1.098 1.759 1.179.639.049 1.633.18 2.79.231 1.633.077 2.705.923 3.216 1.535.518.612 1.206 1.9 1.206 4.71 0 2.815-.734 4.826-1.46 5.56-.732.732-1.798 1.06-2.618 1.2-.947.163-2.49.175-2.49.175zm-14.864-17.153l4.314 12.638 4.638-12.638h3.262l-10.646 25.93h-2.92l3.695-9.054-6.439-16.876zM80.458 4.824h3.519V27.37h-3.519zm-9.676 0s2.707 0 4.21.69c1.812.838 2.7 3.305 2.7 5.75 0 2.692-.374 4.703-1.846 6.198-1.2 1.22-3.99 1.104-3.99 1.104h-3.093v-2h2.151c.901 0 1.887-.206 2.487-1.225.395-.667.47-2.488.47-3.667 0-1.1-.126-2.732-.814-3.632-.81-1.058-3.178-1.058-3.178-1.058H66.62V27.37h-3.52V4.823z"/></g><g><path d="M221.797 23.209c0 .214-.055.356-.162.434-.121.08-.291.126-.503.126h-1.065v-1.08h1.13c.15 0 .277.02.367.063.158.079.233.232.233.457m.765 2.463c-.051-.02-.09-.08-.112-.168a1.374 1.374 0 0 1-.033-.29l-.016-.493c-.008-.232-.057-.397-.14-.508a.712.712 0 0 0-.226-.188.962.962 0 0 0 .29-.279c.096-.154.147-.349.147-.585 0-.452-.19-.771-.563-.938-.197-.09-.435-.13-.726-.13h-1.776v3.826h.66V24.35h1.045c.189 0 .331.02.411.056.136.066.21.202.217.41l.029.61c.008.15.016.244.028.299.018.06.027.107.049.146l.027.047h.738v-.224l-.05-.024z"/></g></g></g></g></svg>