<svg xmlns="http://www.w3.org/2000/svg" width="59" height="51" viewBox="0 0 59 51"><g><g><g><g><path fill="#999" d="M10.56 12.38V.929h1.199c.286 0 .467.14.543.419l.146 1.175c.422-.52.895-.946 1.42-1.277.522-.332 1.131-.498 1.825-.498.776 0 1.403.215 1.882.645.478.43.823 1.01 1.034 1.74a3.569 3.569 0 0 1 1.503-1.82c.324-.195.668-.34 1.035-.43.365-.09.736-.135 1.113-.135.603 0 1.14.096 1.611.288.47.193.87.473 1.198.843.328.369.578.823.751 1.362.174.54.26 1.155.26 1.848v7.29h-2.01V5.09c0-.897-.198-1.577-.589-2.04-.392-.464-.961-.696-1.707-.696-.332 0-.646.06-.944.176-.298.116-.56.288-.786.514a2.42 2.42 0 0 0-.537.853 3.31 3.31 0 0 0-.197 1.193v7.29h-2.012V5.09c0-.92-.186-1.605-.554-2.057-.369-.453-.908-.68-1.617-.68-.497 0-.959.135-1.385.402a4.553 4.553 0 0 0-1.169 1.092v8.534z"/></g><g><path fill="#999" d="M32.309 11.148c-.264 0-.51-.032-.735-.097a1.544 1.544 0 0 1-.588-.307 1.484 1.484 0 0 1-.395-.54 1.923 1.923 0 0 1-.147-.785c0-.318.092-.605.277-.863.184-.258.48-.482.886-.671.408-.19.935-.343 1.583-.461.648-.118 1.436-.176 2.362-.176V9.61c-.225.24-.457.456-.694.645a4.462 4.462 0 0 1-.746.48c-.26.132-.537.234-.83.305a4.074 4.074 0 0 1-.973.108zm5.222-6.093a5.71 5.71 0 0 0-.26-1.763 3.74 3.74 0 0 0-.77-1.368 3.482 3.482 0 0 0-1.254-.882c-.497-.21-1.066-.316-1.706-.316-.889 0-1.7.151-2.43.45-.732.303-1.413.759-2.047 1.37l.362.644a.864.864 0 0 0 .243.266c.102.071.22.107.356.107a.907.907 0 0 0 .526-.187c.177-.124.388-.263.633-.418.245-.154.534-.294.87-.418.336-.124.748-.187 1.239-.187.745 0 1.308.23 1.69.689.38.459.569 1.135.569 2.03v.899c-1.295 0-2.392.104-3.288.312-.897.207-1.623.474-2.176.799-.554.326-.955.698-1.204 1.117-.25.42-.373.857-.373 1.31 0 .522.085.974.254 1.356.169.382.397.697.684.947.287.249.624.437 1.012.561.388.125.804.187 1.249.187.436 0 .834-.037 1.192-.112a4.785 4.785 0 0 0 1.916-.876c.286-.215.58-.459.882-.73l.226 1.063c.037.196.117.324.238.384.12.06.278.09.474.09h.893z"/></g><g><path fill="#999" d="M48.394 2.964a.89.89 0 0 1-.181.192.427.427 0 0 1-.26.068.642.642 0 0 1-.368-.142 5.01 5.01 0 0 0-.502-.31 4.191 4.191 0 0 0-.741-.311c-.29-.095-.646-.142-1.068-.142-.558 0-1.051.1-1.481.3-.43.2-.79.488-1.08.865-.29.376-.508.832-.655 1.367a6.864 6.864 0 0 0-.221 1.798c0 .693.08 1.309.238 1.848.158.54.381.991.667 1.357.286.365.635.644 1.046.836.41.192.871.288 1.384.288.49 0 .893-.058 1.21-.175a3.73 3.73 0 0 0 .79-.39c.212-.143.385-.273.521-.39.135-.117.272-.175.406-.175.174 0 .303.064.386.192l.565.735a4.364 4.364 0 0 1-1.865 1.34 6.598 6.598 0 0 1-2.363.423c-.717 0-1.38-.132-1.995-.396a4.539 4.539 0 0 1-1.6-1.147c-.452-.5-.808-1.117-1.068-1.848-.26-.731-.39-1.564-.39-2.498 0-.852.119-1.64.356-2.363a5.366 5.366 0 0 1 1.04-1.87 4.699 4.699 0 0 1 1.69-1.227c.671-.294 1.439-.44 2.306-.44.798 0 1.507.129 2.125.389.618.26 1.164.628 1.639 1.103z"/></g></g><g><path fill="#999" d="M28.687 33.836c0 2.052-.28 3.89-.84 5.514-.558 1.625-1.35 3-2.377 4.127a10.193 10.193 0 0 1-3.73 2.587c-1.46.6-3.093.898-4.896.898-1.788 0-3.412-.299-4.872-.898a10.286 10.286 0 0 1-3.742-2.587C7.196 42.35 6.4 40.975 5.84 39.35 5.28 37.726 5 35.888 5 33.836c0-2.05.28-3.893.839-5.525.56-1.632 1.356-3.011 2.39-4.138a10.384 10.384 0 0 1 3.742-2.599c1.46-.607 3.084-.91 4.872-.91 1.803 0 3.435.303 4.896.91a10.29 10.29 0 0 1 3.73 2.599c1.026 1.127 1.82 2.506 2.378 4.138.56 1.632.839 3.474.839 5.525zm3.45-6.889c-.792-2.09-1.911-3.893-3.356-5.408-1.446-1.516-3.183-2.693-5.21-3.532-2.029-.84-4.272-1.259-6.727-1.259-2.456 0-4.694.419-6.714 1.259-2.02.839-3.754 2.016-5.2 3.532-1.445 1.515-2.564 3.318-3.357 5.408-.792 2.091-1.19 4.388-1.19 6.889 0 2.503.398 4.8 1.19 6.89.793 2.091 1.912 3.89 3.358 5.397 1.445 1.508 3.178 2.678 5.199 3.509 2.02.83 4.258 1.247 6.714 1.247 2.455 0 4.698-.416 6.726-1.247 2.028-.831 3.765-2.001 5.211-3.509 1.445-1.508 2.564-3.306 3.357-5.397.793-2.09 1.19-4.387 1.19-6.89 0-2.501-.397-4.798-1.19-6.889z"/></g><g><path fill="#999" d="M56.617 22.343c-.14.233-.288.408-.443.524-.155.117-.358.175-.606.175-.265 0-.57-.132-.92-.396a14.61 14.61 0 0 0-1.33-.874c-.536-.319-1.181-.61-1.936-.874-.753-.265-1.666-.397-2.74-.397-1.01 0-1.903.137-2.68.408-.777.272-1.426.64-1.947 1.107a4.576 4.576 0 0 0-1.177 1.644 5.228 5.228 0 0 0-.396 2.04c0 .932.229 1.706.688 2.32.458.614 1.064 1.138 1.82 1.573.752.436 1.607.813 2.563 1.13.956.32 1.935.65 2.938.992 1.002.342 1.98.727 2.937 1.154.956.428 1.81.967 2.565 1.62a7.423 7.423 0 0 1 1.818 2.402c.458.948.687 2.113.687 3.497 0 1.46-.248 2.833-.746 4.114a9.456 9.456 0 0 1-2.18 3.346c-.955.948-2.129 1.695-3.52 2.239-1.39.543-2.972.815-4.744.815-2.16 0-4.131-.392-5.91-1.177-1.78-.785-3.298-1.846-4.558-3.182l1.306-2.145c.124-.171.275-.315.455-.432.178-.117.376-.174.594-.174.327 0 .699.174 1.12.524.418.35.943.734 1.573 1.154.629.42 1.39.804 2.284 1.154.894.35 1.986.525 3.276.525 1.072 0 2.028-.148 2.868-.443.84-.295 1.55-.71 2.132-1.247a5.396 5.396 0 0 0 1.341-1.924c.31-.746.467-1.577.467-2.494 0-1.01-.229-1.838-.688-2.483-.459-.646-1.061-1.185-1.807-1.621a12.64 12.64 0 0 0-2.553-1.107l-2.938-.933a29.71 29.71 0 0 1-2.937-1.107 9.56 9.56 0 0 1-2.553-1.632c-.746-.668-1.348-1.504-1.806-2.506-.46-1.003-.688-2.242-.688-3.72 0-1.18.229-2.322.688-3.426a8.834 8.834 0 0 1 1.992-2.937c.87-.855 1.947-1.539 3.23-2.052 1.282-.513 2.755-.769 4.418-.769 1.865 0 3.567.295 5.106.886a11.745 11.745 0 0 1 4.032 2.564z"/></g></g></g></svg>