<svg xmlns="http://www.w3.org/2000/svg" width="170" height="40" viewBox="0 0 170 40"><defs><linearGradient id="gyq7a" x1="-4580.4" x2="-4580.25" y1="3370.8" y2="3370.8" gradientUnits="userSpaceOnUse"><stop offset="0" stop-color="#008690"/><stop offset="1" stop-color="#00568f"/></linearGradient><linearGradient id="gyq7b" x1="-4442.23" x2="-4442.09" y1="3335.57" y2="3335.57" gradientUnits="userSpaceOnUse"><stop offset="0" stop-color="#f2f2f2"/><stop offset=".27" stop-color="#f2f2f2"/><stop offset=".81" stop-color="#acacac"/><stop offset="1" stop-color="#acacac"/></linearGradient><linearGradient id="gyq7c" x1="-4473.17" x2="-4473.02" y1="3292.04" y2="3292.04" gradientUnits="userSpaceOnUse"><stop offset="0" stop-color="#004e53"/><stop offset="1" stop-color="#003253"/></linearGradient><linearGradient id="gyq7d" x1="-4471.28" x2="-4471.13" y1="3291.83" y2="3291.83" gradientUnits="userSpaceOnUse"><stop offset="0" stop-color="#003c41"/><stop offset="1" stop-color="#002740"/></linearGradient><linearGradient id="gyq7e" x1="20.28" x2="18.61" y1="23.23" y2="21.1" gradientUnits="userSpaceOnUse"><stop offset=".1" stop-color="#9b9b9b"/><stop offset=".15" stop-color="#a7a7a7"/><stop offset=".3" stop-color="#c7c7c7"/><stop offset=".45" stop-color="#dfdfdf"/><stop offset=".62" stop-color="#f1f1f1"/><stop offset=".79" stop-color="#fbfbfb"/><stop offset="1" stop-color="#fff"/></linearGradient></defs><g><g><g><path fill="#2693ff" d="M30.044 21.685c-.772 3.295-2.565 6.12-5.479 8.638-2.095 1.809-4.431 3.16-6.415 4.145-5.584-2.776-10.471-6.71-11.895-12.783-1.21-5.155-1.2-10.634-1.056-13.731 2.558-1.19 7.283-2.939 12.951-2.939 5.663 0 10.39 1.749 12.955 2.943.145 3.086.156 8.541-1.061 13.727"/></g><g><path fill="#fff" d="M18.15.057v4.958c5.663 0 10.39 1.749 12.955 2.943.038.808.067 1.778.067 2.863a57.06 57.06 0 0 1-.216 5.025c-.169 1.89-.453 3.884-.911 5.84-.032.133-.065.267-.1.399-.708 2.695-2.117 5.073-4.286 7.226-1.77 1.763-3.909 3.233-6.21 4.483l-.003.001-.037.02-.028.015-.001.001c-.362.195-.717.38-1.062.553l-.01.005-.08.04-.022.01-.017.01-.039.019v5.475c5.738-2.554 14.437-7.387 16.721-17.126 1-4.263 1.255-8.652 1.255-12.023 0-3.519-.278-5.929-.278-5.929S28.394.057 18.15.057"/></g><g><path fill="#282830" d="M29.945 22.085c-.708 2.695-2.117 5.073-4.286 7.226 2.004-1.997 3.533-4.37 4.286-7.226M19.38 33.831l-.03.017h-.002l.033-.017m-.033.018a47.138 47.138 0 0 1-.005.002zm-.183.098l-.017.009-.12.063-.003.002-.036.019a46.952 46.952 0 0 0 .176-.093zm-.176.093l-.033.017.015-.008zm-.035.018l-.29.151-.078.04-.013.006c.127-.064.255-.13.383-.198zm-.38.197l-.076.039.044-.023zm-.123.063l-.006.003-.109.055-.017.008.18-.09zm-.142.071l-.03.015-.05.025.08-.04m-.102.05"/></g><g><path fill="url(#gyq7a)" d="M18.189 34.449000000000005"/></g><g><path fill="#2693ff" d="M18.15 5.766c5.305 0 9.797 1.602 12.224 2.684.115 2.934.092 8.147-1.06 13.063-1.153 4.916-4.806 8.881-11.164 12.114V5.766M18.663 34.209l-.078.04.078-.04m-.219.112l-.109.055.11-.055m-.295.147"/></g><g opacity=".11"><path fill="url(#gyq7b)" d="M18.34 10.314c-2.998 0-5.7.605-7.786 1.283v8.164a7.787 7.787 0 0 0 7.787 7.787c4.3 0 7.787-3.486 7.787-7.787V11.6c-2.088-.68-4.79-1.286-7.787-1.286z"/></g><g><path fill="#0f8cf2" d="M18.15 5.015c-5.668 0-10.393 1.749-12.95 2.939a63.286 63.286 0 0 0-.067 2.848c0 3.073.227 7.067 1.122 10.883 1.424 6.073 6.311 10.007 11.895 12.783v-.841C11.792 30.394 8.14 26.429 6.986 21.513 5.84 16.627 5.817 11.395 5.93 8.446c2.425-1.081 6.912-2.68 12.22-2.68v-.751"/></g><g><path fill="url(#gyq7c)" d="M30.956 15.846c-.169 1.89-.453 3.884-.911 5.84a20.143 20.143 0 0 0-.018.072l.002-.009.007-.028.008-.036c.459-1.955.743-3.949.912-5.839M25.66 29.31c-1.77 1.763-3.91 3.233-6.21 4.483l.002-.002c2.29-1.244 4.42-2.705 6.183-4.456zm-6.213 4.484v.001l-.036.019.036-.02M18.318 34.384v.001l-.01.004.01-.005"/></g><g><path fill="#121216" d="M30.027 21.756999999999998v0m-.04.164l-.042.164c-.753 2.856-2.282 5.229-4.286 7.226l-.025.025c2.055-2.04 3.613-4.474 4.353-7.415zm.04-.163zM19.451 33.792l-.006.004.001-.001.002-.001.003-.002m-.04.023l-.062.033.03-.017.002-.001.028-.015h.001m-.068.036l-.178.096.178-.096m-.388.207l-.29.151.29-.151m-.619.318l-.018.009.001-.001.017-.008m-.026.013l-.03.015.029-.015"/></g><g><path fill="url(#gyq7d)" d="M25.634 29.336c-1.553 1.541-3.388 2.858-5.367 4 1.424-.823 2.914-1.818 4.298-3.013.375-.324.73-.653 1.069-.987m-6.183 4.456zm-1.262.657"/></g><g><path fill="#0f8cf2" d="M18.15 5.015v.751c5.305 0 9.797 1.602 12.224 2.684.115 2.934.092 8.147-1.06 13.063-1.153 4.916-4.806 8.881-11.164 12.114v.841l.04-.019.016-.01.023-.01.05-.025.03-.015.008-.004.018-.009.11-.055.005-.003.091-.047.044-.022.078-.04.29-.151.017-.009.054-.028.003-.002.12-.063.017-.009.178-.096.007-.003.061-.033.035-.019.006-.004c1.661-.902 3.463-2.043 5.114-3.469.375-.324.73-.653 1.069-.987 2.093-2.078 3.67-4.564 4.393-7.579l.002-.008.007-.028.008-.036c.459-1.955.743-3.949.912-5.839.278-3.123.24-5.965.15-7.888-2.566-1.194-7.293-2.943-12.956-2.943"/></g><g><path fill="#fff" d="M22.071 20.292a3.54 3.54 0 0 1-2.324.864H18.33v-8.6h-3.032v10.967h8.048v-.015c0-1.232-.48-2.366-1.275-3.216z"/></g><g><g><path fill="url(#gyq7e)" d="M22.07 20.294a3.54 3.54 0 0 1-2.323.862h-1.214l-2.128 2.367h2.67c2.876-.544 3.025-2.773 2.994-3.23z"/></g></g><g><path fill="#fff" d="M6.255 21.685c-.895-3.816-1.122-7.81-1.122-10.883 0-1.079.03-2.044.066-2.848 2.558-1.19 7.283-2.939 12.951-2.939V.057C7.905.057.452 4.865.452 4.865s-1.067 9.239.977 17.952c2.284 9.739 10.983 14.572 16.721 17.126v-5.475C12.566 31.692 7.68 27.757 6.255 21.685z"/></g><g><g><path fill="#fff" d="M54.135 10.966h1.419V27.69h9.525v1.342H54.135z"/></g><g><path fill="#fff" d="M70.29 10.966h1.419v18.067h-1.42z"/></g><g><path fill="#fff" d="M79.347 10.966h1.445l7.28 9.91 6.993-9.91h1.369v18.067h-1.42V13.186l-6.943 9.756h-.233l-7.072-9.68v15.771h-1.42z"/></g><g><path fill="#fff" d="M103.45 10.966h9.988v1.342h-8.569V19.2h7.795v1.342h-7.795v7.149h8.827v1.342H103.45z"/></g><g><path fill="#fff" d="M126.47 29.085h-2.4l-7.434-18.12h3.38l5.37 13.397 5.136-13.396h3.174z"/></g><g><path fill="#fff" d="M140.61 13.935c.852-.027 1.626-.052 2.27-.052 2.17 0 3.33.929 3.33 2.813 0 2.013-1.47 2.917-3.354 2.917-.723 0-1.497-.052-2.246-.129v-5.549zm0 15.098v-6.53c.775.078 1.807.078 2.349.078 4.31 0 6.607-2.788 6.607-5.859 0-2.968-1.677-5.807-6.994-5.807-1.265 0-4.13.05-5.136.05v18.068z"/></g><g><path fill="#fff" d="M167.424 29.033l-9.937-12.517v12.517h-2.968V10.966h2.529l9.937 12.57v-12.57h2.97v18.067z"/></g></g></g></g></svg>