<svg xmlns="http://www.w3.org/2000/svg" width="293" height="37" viewBox="0 0 293 37"><g><g><g><g><path fill="#4a4e51" d="M293.045 28.19V.582h-6.33V28.19zm-9.293 0V.582h-6.33V28.19zm-16.025-5.252c-.674 1.077-2.155 1.48-3.502 1.48-1.751 0-3.232-.672-3.232-2.288 0-1.482 1.48-2.29 3.232-2.29 1.347 0 2.828.404 3.502 1.347zm6.329 5.252V15.53c0-6.194-4.444-7.945-9.292-7.945-2.963 0-6.464.943-9.023 3.098l2.29 4.04c1.615-1.347 3.635-2.155 5.655-2.155 2.56 0 4.04 1.077 4.04 2.828v2.424c-1.211-1.481-3.501-2.29-6.194-2.29-3.098 0-6.869 1.617-6.869 6.465 0 4.58 3.77 6.6 6.87 6.6 2.557 0 4.982-.944 6.194-2.425v2.02zm-25.05 0l5.927-19.932h-6.599l-3.232 12.256-3.906-12.256h-5.656l-3.905 12.256-3.232-12.256h-6.6l5.926 19.932h6.868l3.771-12.39 3.77 12.39zm-32.32.538c2.29 0 3.906-.538 4.714-1.346l-1.212-4.848c-.27.27-.943.538-1.616.538-1.078 0-1.75-.808-1.75-2.02V13.78h4.04V8.258h-4.04V2.737h-6.33v5.387h-3.368v5.656h3.367v9.023c0 3.771 2.29 5.791 6.195 5.925zm-10.64-.538V13.915c0-3.636-2.019-6.33-6.598-6.33-3.367 0-5.656 1.616-6.868 2.963V8.124h-6.33V28.19h6.33V15.127c.808-.808 2.02-1.886 3.905-1.886 1.886 0 3.233.943 3.233 3.367V28.19zM178.17 15.935h-8.215c.135-1.347 1.212-3.367 4.04-3.367 2.963 0 4.04 2.02 4.175 3.367zm-14.814 2.154c0 6.465 4.848 10.505 10.909 10.37 3.097 0 6.329-.943 8.35-2.693l-2.694-3.906c-1.078 1.078-3.636 1.75-4.983 1.75-2.828 0-4.579-1.615-4.983-3.5h14.275v-1.347c0-6.868-4.31-11.178-10.235-11.178-6.195 0-10.639 4.714-10.639 10.504zm-2.02 10.1V13.646c0-4.175-2.424-6.06-6.06-6.06-3.097 0-5.656 1.75-6.868 3.502-.808-2.29-2.828-3.502-5.656-3.502-3.233 0-5.791 1.75-6.599 2.963V8.124h-6.33V28.19h6.33V15.26c.673-.808 1.75-1.885 3.501-1.885 2.02 0 2.694 1.212 2.694 2.693v12.12h6.329V15.262c.673-.808 1.886-1.885 3.636-1.885 1.886 0 2.694 1.212 2.694 2.693v12.12zm-52.926 7.946c.674.135 2.155.27 2.694.27 3.905-.135 6.868-1.078 8.484-5.252l9.023-22.895h-6.733l-4.58 12.66-4.443-12.66h-6.734l7.946 20.201-.404 1.078c-.27.808-1.212 1.077-2.694 1.077-.54 0-1.212-.135-1.616-.404zm-8.484-13.197c-.673 1.077-2.155 1.48-3.501 1.48-1.751 0-3.232-.672-3.232-2.288 0-1.482 1.48-2.29 3.232-2.29 1.346 0 2.828.404 3.5 1.347zm6.33 5.252V15.53c0-6.194-4.444-7.945-9.293-7.945-2.962 0-6.464.943-9.023 3.098l2.29 4.04c1.616-1.347 3.636-2.155 5.656-2.155 2.56 0 4.04 1.077 4.04 2.828v2.424c-1.212-1.481-3.501-2.29-6.195-2.29-3.097 0-6.868 1.617-6.868 6.465 0 4.58 3.77 6.6 6.868 6.6 2.559 0 4.983-.944 6.195-2.425v2.02zM76.089 12.703h-5.791V6.777h5.79c2.021 0 3.368 1.077 3.368 2.963 0 1.885-1.347 2.963-3.367 2.963zM70.433 28.19v-9.293h6.734c6.195 0 9.56-4.174 9.56-9.157S83.363.582 77.168.582H63.296V28.19z"/></g><g><g><path fill="#fcbf14" d="M17.642 28.19l-3.097-8.35H3.097L0 28.19zm9.023-9.966l-2.963-8.35H12.255l-3.097 8.35zm18.45 0l-3.098-8.35H30.57l-2.962 8.35zm-9.023 9.966l-3.098-8.35H21.547l-3.097 8.35zm18.181 0l-3.098-8.35H39.728l-3.097 8.35z"/></g><g><g><path fill="#fcbf14" d="M18.45 8.393L21.547-.09H32.86l3.097 8.484z"/></g></g></g></g></g></g></svg>