<svg xmlns="http://www.w3.org/2000/svg" width="196" height="52" viewBox="0 0 196 52"><defs><linearGradient id="etcya" x1="-5632.37" x2="-5632.37" y1="-5261.65" y2="-5261.71" gradientUnits="userSpaceOnUse"><stop offset="0" stop-color="#81b4e0"/><stop offset="1" stop-color="#0c5a94"/></linearGradient><linearGradient id="etcyb" x1="-4281.1" x2="-4281.1" y1="-7550.83" y2="-7556.24" gradientUnits="userSpaceOnUse"><stop offset="0" stop-color="#f06b59"/><stop offset="1" stop-color="#df2227"/></linearGradient><linearGradient id="etcyc" x1="-4285.49" x2="-4282.76" y1="-7561.85" y2="-7557.33" gradientUnits="userSpaceOnUse"><stop offset="0" stop-color="#388b41"/><stop offset="1" stop-color="#4cb749"/></linearGradient><linearGradient id="etcyd" x1="-4277.16" x2="-4280.07" y1="-7564.2" y2="-7557.19" gradientUnits="userSpaceOnUse"><stop offset="0" stop-color="#e4b022"/><stop offset=".3" stop-color="#fcd209"/></linearGradient><linearGradient id="etcye" x1="-4288.13" x2="-4288.13" y1="-7558.83" y2="-7554.08" gradientUnits="userSpaceOnUse"><stop offset="0" stop-opacity=".15"/><stop offset=".3" stop-opacity=".06"/><stop offset="1" stop-opacity=".03"/></linearGradient><linearGradient id="etcyf" x1="-4276.55" x2="-4279.82" y1="-7560.56" y2="-7563.89" gradientUnits="userSpaceOnUse"><stop offset="0" stop-opacity=".15"/><stop offset=".3" stop-opacity=".06"/><stop offset="1" stop-opacity=".03"/></linearGradient><linearGradient id="etcyg" x1="-4277.55" x2="-4277.07" y1="-7557.16" y2="-7552.47" gradientUnits="userSpaceOnUse"><stop offset="0" stop-opacity=".15"/><stop offset=".3" stop-opacity=".06"/><stop offset="1" stop-opacity=".03"/></linearGradient></defs><g><g><g><g><path fill="#77787a" d="M191.427 24.887c.044-2.403-1.005-6.203-5.33-6.203-3.931 0-5.591 3.538-5.896 6.203h11.226zm-11.27 2.752c.087 5.199 3.363 7.338 7.251 7.338 2.752 0 4.456-.48 5.853-1.092l.7 2.752c-1.354.612-3.713 1.354-7.077 1.354-6.509 0-10.397-4.325-10.397-10.702 0-6.378 3.757-11.358 9.917-11.358 6.946 0 8.737 6.029 8.737 9.917 0 .786-.044 1.354-.131 1.79h-14.854zm-38.575-5.548c0-2.228-.087-3.975-.174-5.723h3.364l.174 3.451h.131c1.18-2.01 3.146-3.887 6.684-3.887 2.839 0 5.024 1.747 5.941 4.237h.088c.655-1.223 1.53-2.096 2.402-2.752 1.267-.961 2.622-1.485 4.631-1.485 2.84 0 6.99 1.835 6.99 9.174v12.406h-3.757V25.586c0-4.106-1.529-6.509-4.587-6.509-2.228 0-3.888 1.616-4.587 3.451a6.582 6.582 0 0 0-.306 1.922v13.062h-3.757v-12.67c0-3.364-1.485-5.765-4.412-5.765-2.36 0-4.15 1.922-4.762 3.844-.218.525-.305 1.223-.305 1.878V37.51h-3.758zm-21.58 4.893c0 4.63 2.621 8.125 6.377 8.125 3.67 0 6.422-3.452 6.422-8.213 0-3.582-1.791-8.082-6.334-8.082-4.5.001-6.465 4.194-6.465 8.17zm16.731-.22c0 7.82-5.46 11.228-10.528 11.228-5.679 0-10.135-4.193-10.135-10.877 0-7.033 4.674-11.183 10.485-11.183 6.071 0 10.178 4.412 10.178 10.833zm-32.983-3.8c0-2.49-.044-4.63-.174-6.596h3.363l.175 4.194h.132c.961-2.84 3.32-4.631 5.897-4.631.393 0 .699.044 1.048.087v3.626c-.394-.087-.787-.087-1.31-.087-2.71 0-4.631 2.01-5.155 4.893-.087.524-.131 1.179-.131 1.791v11.27h-3.845zM79.505 6.497h3.845v13.236h.087a7.232 7.232 0 0 1 2.752-2.752 7.877 7.877 0 0 1 3.932-1.048c2.839 0 7.382 1.747 7.382 8.999v12.58h-3.844V25.369c0-3.407-1.267-6.247-4.893-6.247-2.49 0-4.412 1.747-5.155 3.8-.218.568-.262 1.136-.262 1.835v12.756h-3.844zm-4.5 30.273c-1.004.481-3.232 1.223-6.072 1.223-6.377 0-10.528-4.325-10.528-10.79 0-6.509 4.456-11.27 11.358-11.27 2.272 0 4.28.568 5.33 1.136l-.874 2.926c-.918-.48-2.359-1.004-4.456-1.004-4.849 0-7.47 3.625-7.47 7.994 0 4.893 3.145 7.907 7.339 7.907 2.184 0 3.625-.525 4.718-1.005l.656 2.883z"/></g></g><g><path fill="#fff" d="M.474 26.368C.474 12.327 11.856.944 25.898.944c14.04 0 25.424 11.383 25.424 25.424 0 14.042-11.383 25.424-25.424 25.424C11.856 51.792.474 40.41.474 26.368z"/></g><g><path fill-opacity=".1" d="M42.076 30.99c0-8.935-7.243-16.18-16.178-16.18-8.936 0-16.18 7.245-16.18 16.18h4.623c0-6.382 5.174-11.556 11.556-11.556 6.383 0 11.557 5.174 11.557 11.556"/></g><g><path fill-opacity=".1" d="M18.27 29.603a8.783 8.783 0 1 1 17.566 0 8.783 8.783 0 0 1-17.565 0z"/></g><g><path fill="url(#etcya)" d="M16.422 26.368a9.476 9.476 0 1 1 18.952 0 9.476 9.476 0 0 1-18.952 0z"/></g><g><path fill="url(#etcyb)" d="M49.01 14.81C42.647 2.01 27.11-3.21 14.308 3.153a25.88 25.88 0 0 0-9.905 8.655l10.4 18.028c-1.915-6.088 1.468-12.577 7.556-14.492a11.585 11.585 0 0 1 3.307-.532"/></g><g><path fill="url(#etcyc)" d="M4.403 11.807c-7.96 11.875-4.787 27.955 7.088 35.916a25.885 25.885 0 0 0 12.326 4.3l10.864-18.489c-4.062 4.923-11.345 5.621-16.268 1.559a11.555 11.555 0 0 1-3.61-5.257"/></g><g><path fill="url(#etcyd)" d="M23.817 52.023c14.256 1.078 26.686-9.605 27.765-23.86.347-4.601-.54-9.21-2.572-13.351H25.666c6.382.029 11.533 5.227 11.503 11.609a11.554 11.554 0 0 1-2.49 7.112"/></g><g><path fill="url(#etcye)" d="M4.403 11.807l10.4 18.028a11.559 11.559 0 0 1 .463-7.858l-10.4-10.863"/></g><g><path fill="url(#etcyf)" d="M23.817 52.023l10.864-18.49a11.557 11.557 0 0 1-6.703 3.929l-4.623 14.561"/></g><g><path fill="url(#etcyg)" d="M49.01 14.81H25.666a11.56 11.56 0 0 1 9.014 4.393l14.792-3.698"/></g></g></g></svg>