<svg xmlns="http://www.w3.org/2000/svg" width="96" height="71" viewBox="0 0 96 71"><g><g><g><g><path fill="#5cbfab" d="M24.853 10.344l-.175.122a.744.744 0 0 0-.028 1.048l1.867 1.966a.73.73 0 0 0 .818.163 16.128 16.128 0 0 1 13.132.07.725.725 0 0 0 .796-.133l2-1.9a.737.737 0 0 0-.164-1.192 20.207 20.207 0 0 0-18.246-.144z"/></g><g><path fill="#999" d="M20.12 4.095l-.128.097a.742.742 0 0 0-.028 1.045l1.838 1.938c.226.24.59.294.885.13 7.068-4.003 15.803-3.899 22.792.272.279.168.638.127.872-.095l1.941-1.841a.727.727 0 0 0 .226-.609.73.73 0 0 0-.338-.55C39.718-.9 28.705-1.05 20.12 4.094z"/></g><g><path fill="#fff" d="M27.006 33.657V31.85h35.03v1.807z"/></g><g><path fill="#fff" d="M65.3 34.61v-.64h8.485v.64z"/></g><g><path fill="#5cbfab" d="M65.304 32.237V29.99h4.285v2.247z"/></g><g><path fill="#97d5c9" d="M69.589 32.237V29.99h4.197v2.247z"/></g><g><path fill="#999" d="M62.037 31.85v1.807H27.006V31.85zM32.284 18.347a1.658 1.658 0 1 1 3.316.002 1.658 1.658 0 0 1-3.316-.002zM65.301 33.97h8.484v.641h-8.484zm.002-3.979h8.483v2.247h-8.483zm-40.405-3.533a1.89 1.89 0 0 0-1.89 1.889v8.814a1.89 1.89 0 0 0 1.89 1.889h50.294a1.888 1.888 0 0 0 1.89-1.889v-8.814a1.888 1.888 0 0 0-1.89-1.889H34.833v-5.107a3.118 3.118 0 0 0 2.212-2.978 3.133 3.133 0 0 0-6.264 0c0 1.408.933 2.584 2.212 2.978v5.107z"/></g><g><path fill="#97d5c9" d="M32.284 18.347a1.658 1.658 0 1 0 3.317 0 1.658 1.658 0 1 0-3.317 0z"/></g></g><g><g><text fill="#999" style="line-height:25.86458969116211px;font-kerning:normal" dominant-baseline="text-before-edge" font-family="'Proxima Nova','ProximaNova-Bold'" font-size="22.17" font-style="none" font-weight="700" transform="translate(-1 52)"><tspan>MODEMS</tspan></text></g></g></g></g></svg>