<svg xmlns="http://www.w3.org/2000/svg" width="204" height="48" viewBox="0 0 204 48"><defs><linearGradient id="ucksa" x1="3156.66" x2="3156.84" y1="4994.09" y2="4994.09" gradientUnits="userSpaceOnUse"><stop offset="0" stop-color="#00acb8"/><stop offset="1" stop-color="#006eb7"/></linearGradient><linearGradient id="ucksb" x1="3279.58" x2="3279.77" y1="5202.22" y2="5202.22" gradientUnits="userSpaceOnUse"><stop offset="0" stop-color="#008690"/><stop offset="1" stop-color="#00568f"/></linearGradient><linearGradient id="ucksc" x1="3108.29" x2="3108.46" y1="5023.92" y2="5023.92" gradientUnits="userSpaceOnUse"><stop offset="0" stop-color="#f2f2f2"/><stop offset=".27" stop-color="#f2f2f2"/><stop offset=".81" stop-color="#acacac"/><stop offset="1" stop-color="#acacac"/></linearGradient><linearGradient id="ucksd" x1="3154.72" x2="3154.9" y1="4994.17" y2="4994.17" gradientUnits="userSpaceOnUse"><stop offset="0" stop-color="#004e53"/><stop offset="1" stop-color="#003253"/></linearGradient><linearGradient id="uckse" x1="3157.48" x2="3157.66" y1="4995.27" y2="4995.27" gradientUnits="userSpaceOnUse"><stop offset="0" stop-color="#003c41"/><stop offset="1" stop-color="#002740"/></linearGradient><linearGradient id="ucksf" x1="24.3" x2="22.3" y1="27.95" y2="25.38" gradientUnits="userSpaceOnUse"><stop offset=".1" stop-color="#9b9b9b"/><stop offset=".15" stop-color="#a7a7a7"/><stop offset=".3" stop-color="#c7c7c7"/><stop offset=".45" stop-color="#dfdfdf"/><stop offset=".62" stop-color="#f1f1f1"/><stop offset=".79" stop-color="#fbfbfb"/><stop offset="1" stop-color="#fff"/></linearGradient><linearGradient id="ucksg" x1=".17" x2="21.75" y1="24.06" y2="24.06" gradientUnits="userSpaceOnUse"><stop offset="0" stop-color="#00ddec"/><stop offset="1" stop-color="#008dea"/></linearGradient></defs><g><g><g><g><path fill="#33333d" d="M36.036 26.08c-.928 3.956-3.08 7.348-6.579 10.37-2.514 2.173-5.32 3.794-7.702 4.978-6.704-3.334-12.57-8.057-14.28-15.348-1.452-6.189-1.44-12.767-1.268-16.485 3.07-1.429 8.744-3.528 15.548-3.528 6.8 0 12.475 2.1 15.554 3.533.174 3.705.187 10.254-1.273 16.48"/></g><g><path fill="url(#ucksa)" d="M21.755.115v5.952c6.8 0 12.475 2.1 15.554 3.533.046.97.08 2.134.08 3.437 0 1.798-.066 3.859-.26 6.033-.201 2.27-.542 4.663-1.093 7.01a21.42 21.42 0 0 1-.119.48c-.851 3.236-2.543 6.091-5.146 8.676-2.124 2.116-4.693 3.881-7.457 5.382l-.003.001-.044.025-.034.018c-.435.235-.862.457-1.276.665l-.011.005-.095.048-.028.014-.02.01-.048.024V48c6.889-3.066 17.333-8.868 20.075-20.561 1.201-5.118 1.507-10.387 1.507-14.434 0-4.225-.334-7.119-.334-7.119S34.055.115 21.755.115"/></g><g><path fill="#282830" d="M35.917 26.56c-.851 3.236-2.543 6.091-5.146 8.676 2.406-2.398 4.242-5.247 5.146-8.676M23.233 40.662l-.038.021-.008.004-.074.04.12-.065m-.12.065l-.309.164.005-.003.144-.076.02-.011.14-.074zm-.309.164l-.064.034-.013.007.077-.041zm-.077.04c-.193.102-.384.2-.572.296l.07-.036.053-.027.093-.048.349-.181zm-.611.316l-.008.004-.131.066-.02.01.198-.1zm-.17.085l-.095.048.059-.03.036-.018m-.123.062"/></g><g><path fill="url(#ucksb)" d="M21.803 41.404"/></g><g><path fill="#1f1f25" d="M21.755 6.067c6.8 0 12.475 2.1 15.554 3.533-3.08-1.433-8.755-3.533-15.554-3.533m0 .901c6.37 0 11.762 1.924 14.677 3.223.137 3.523.11 9.78-1.274 15.683-1.384 5.902-5.77 10.662-13.403 14.544V6.968M37.129 19.07a68.62 68.62 0 0 0 .26-6.033 70.791 70.791 0 0 1-.259 6.033zM21.756 41.428"/></g><g opacity=".11"><path fill="url(#ucksc)" d="M21.985 12.428c-3.601 0-6.844.727-9.349 1.542v9.8a9.348 9.348 0 0 0 9.35 9.349 9.349 9.349 0 0 0 9.348-9.349v-9.798c-2.507-.816-5.751-1.544-9.349-1.544z"/></g><g><path fill="#17171c" d="M21.755 6.067c-6.804 0-12.478 2.099-15.548 3.528a73.86 73.86 0 0 0-.08 3.419c0 3.69.273 8.485 1.348 13.066 1.71 7.291 7.576 12.014 14.28 15.348v-1.01c-7.633-3.882-12.018-8.642-13.402-14.544-1.376-5.866-1.404-12.147-1.269-15.688 2.912-1.297 8.3-3.218 14.67-3.218v-.901"/></g><g><path fill="url(#ucksd)" d="M37.13 19.07c-.202 2.27-.543 4.663-1.094 7.01v.001-.001c.55-2.347.892-4.74 1.094-7.01m-1.104 7.054l-.008.033-.001.004.019-.08zm-.01.037a21.191 21.191 0 0 1-.001.005zm-.099.399zm-5.146 8.676l-.03.03a25.434 25.434 0 0 1 .03-.03m-7.453 5.38l-.004.002c2.063-1.12 4.017-2.388 5.76-3.838-1.742 1.45-3.695 2.716-5.756 3.836zm5.755-3.836zm-5.762 3.839v.001l-.022.011.022-.012m-.022.013l-.022.012.001-.001zM21.957 41.327l-.011.005.01-.005h.001"/></g><g><path fill="#121216" d="M36.015 26.166c-.031.132-.064.264-.098.394-.772 2.928-2.223 5.433-4.128 7.595 1.99-2.259 3.484-4.891 4.226-7.989m-5.274 9.1l.03-.03a22.929 22.929 0 0 0-.03.03zm-7.423 5.35l-.008.004.001-.001.003-.001.004-.002m-.123.067l.038-.021.013-.007zm.05-.028l.023-.012v.001zM21.978 41.317l-.02.01h-.001l.021-.01m-.031.015"/></g><g><path fill="url(#uckse)" d="M30.741 35.266l-.002.002.002-.002m-.002.002c-2.118 2.101-4.673 3.855-7.42 5.348 1.992-1.083 4.156-2.453 6.138-4.166.45-.387.877-.782 1.282-1.182zM21.803 41.404"/></g><g><path fill="#0e0e11" d="M21.755 6.067v.901c6.37 0 11.762 1.924 14.677 3.223.137 3.523.11 9.78-1.274 15.683-1.384 5.902-5.77 10.662-13.403 14.544v1.01l.048-.024.02-.01.028-.014.059-.03.036-.018.01-.005.021-.01.13-.066.009-.004.11-.056.052-.027.093-.048.349-.181.02-.01.064-.034.005-.003.144-.076.02-.011.214-.114.008-.004.073-.04.042-.023.008-.004c1.993-1.083 4.157-2.453 6.14-4.166.449-.388.877-.783 1.283-1.184 2.512-2.495 4.407-5.48 5.274-9.1l.003-.009.008-.033.01-.044c.55-2.347.892-4.74 1.094-7.01.334-3.75.288-7.162.18-9.47-3.081-1.433-8.756-3.533-15.555-3.533"/></g><g><path fill="#fff" d="M26.463 24.408a4.246 4.246 0 0 1-2.79 1.038h-1.701V15.12h-3.64v13.167h9.662v-.017c0-1.48-.578-2.842-1.531-3.862z"/></g><g><g><path fill="url(#ucksf)" d="M26.46 24.411a4.25 4.25 0 0 1-2.787 1.035h-1.458l-2.554 2.841h3.204c3.454-.653 3.632-3.33 3.595-3.876z"/></g></g><g><path fill="url(#ucksg)" d="M7.475 26.08C6.4 21.499 6.128 16.704 6.128 13.014c0-1.295.034-2.454.079-3.419 3.07-1.429 8.744-3.528 15.548-3.528V.115C9.456.115.508 5.886.508 5.886S-.773 16.978 1.68 27.439C4.422 39.132 14.867 44.934 21.755 48v-6.572c-6.704-3.334-12.57-8.057-14.28-15.348z"/></g></g><g><g><path fill="#1f1f25" d="M64.958 13.211h1.704v20.08h11.435v1.612H64.958z"/></g><g><path fill="#1f1f25" d="M84.353 13.211h1.704v21.692h-1.704z"/></g><g><path fill="#1f1f25" d="M95.227 13.211h1.735L105.7 25.11l8.397-11.899h1.643v21.692h-1.705V15.876L105.7 27.59h-.279l-8.491-11.621v18.934h-1.704z"/></g><g><path fill="#1f1f25" d="M124.164 13.211h11.992v1.612h-10.288v8.273h9.358v1.612h-9.358v8.583h10.598v1.612h-12.302z"/></g><g><path fill="#1f1f25" d="M151.801 34.965h-2.881l-8.925-21.754h4.06l6.445 16.083 6.166-16.083h3.812z"/></g><g><path fill="#1f1f25" d="M168.778 16.775c1.023-.031 1.952-.062 2.727-.062 2.603 0 3.997 1.116 3.997 3.378 0 2.417-1.766 3.501-4.028 3.501a26.72 26.72 0 0 1-2.696-.155v-6.662zm0 18.128v-7.84c.93.093 2.169.093 2.82.093 5.175 0 7.933-3.347 7.933-7.034 0-3.564-2.014-6.972-8.398-6.972-1.518 0-4.958.061-6.166.061v21.692z"/></g><g><path fill="#1f1f25" d="M200.97 34.903l-11.93-15.029v15.029h-3.563V13.211h3.036l11.931 15.091V13.211h3.563v21.692z"/></g></g></g></g></svg>